CooperHewitt-LightItalic.ufo
<glyph name="exclam" format="1">
  <advance width="200"/>
  <unicode hex="0021"/>
  <outline>
    <contour>
      <point x="130" y="780" type="line"/>
      <point x="62" y="175" type="line"/>
      <point x="86" y="175" type="line"/>
      <point x="176" y="780" type="line"/>
    </contour>
    <contour>
      <point x="88" y="60" type="line"/>
      <point x="28" y="60" type="line"/>
      <point x="21" y="0" type="line"/>
      <point x="81" y="0" type="line"/>
    </contour>
  </outline>
</glyph>
<glyph name="quotedbl" format="1">
  <advance width="300"/>
  <unicode hex="0022"/>
  <outline>
    <contour>
      <point x="130" y="780" type="line"/>
      <point x="108" y="530" type="line"/>
      <point x="132" y="530" type="line"/>
      <point x="176" y="780" type="line"/>
    </contour>
    <contour>
      <point x="230" y="780" type="line"/>
      <point x="208" y="530" type="line"/>
      <point x="232" y="530" type="line"/>
      <point x="276" y="780" type="line"/>
    </contour>
  </outline>
</glyph>
<glyph name="numbersign" format="1">
  <advance width="600"/>
  <unicode hex="0023"/>
  <outline>
    <contour>
      <point x="527" y="780" type="line"/>
      <point x="434" y="530" type="line"/>
      <point x="273" y="530" type="line"/>
      <point x="366" y="780" type="line"/>
      <point x="323" y="780" type="line"/>
      <point x="230" y="530" type="line"/>
      <point x="120" y="530" type="line"/>
      <point x="115" y="490" type="line"/>
      <point x="215" y="490" type="line"/>
      <point x="141" y="290" type="line"/>
      <point x="26" y="290" type="line"/>
      <point x="21" y="250" type="line"/>
      <point x="126" y="250" type="line"/>
      <point x="34" y="0" type="line"/>
      <point x="77" y="0" type="line"/>
      <point x="169" y="250" type="line"/>
      <point x="330" y="250" type="line"/>
      <point x="238" y="0" type="line"/>
      <point x="281" y="0" type="line"/>
      <point x="373" y="250" type="line"/>
      <point x="484" y="250" type="line"/>
      <point x="489" y="290" type="line"/>
      <point x="388" y="290" type="line"/>
      <point x="462" y="490" type="line"/>
      <point x="578" y="490" type="line"/>
      <point x="583" y="530" type="line"/>
      <point x="477" y="530" type="line"/>
      <point x="570" y="780" type="line"/>
    </contour>
    <contour>
      <point x="258" y="490" type="line"/>
      <point x="419" y="490" type="line"/>
      <point x="345" y="290" type="line"/>
      <point x="184" y="290" type="line"/>
    </contour>
  </outline>
</glyph>
<glyph name="dollar" format="1">
  <advance width="600"/>
  <unicode hex="0024"/>
  <outline>
    <contour>
      <point x="484" y="840" type="line"/>
      <point x="444" y="840" type="line"/>
      <point x="399" y="720" type="line"/>
      <point x="378" y="724"/>
      <point x="356" y="726"/>
      <point x="332" y="726" type="curve" smooth="yes"/>
      <point x="209" y="726"/>
      <point x="116" y="670"/>
      <point x="102" y="559" type="curve" smooth="yes"/>
      <point x="101" y="551" type="line" smooth="yes"/>
      <point x="90" y="461"/>
      <point x="141" y="402"/>
      <point x="275" y="384" type="curve"/>
      <point x="173" y="108" type="line"/>
      <point x="114" y="131"/>
      <point x="84" y="180"/>
      <point x="96" y="271" type="curve"/>
      <point x="56" y="271" type="line"/>
      <point x="54" y="256" type="line" smooth="yes"/>
      <point x="42" y="163"/>
      <point x="81" y="101"/>
      <point x="160" y="72" type="curve"/>
      <point x="111" y="-60" type="line"/>
      <point x="151" y="-60" type="line"/>
      <point x="196" y="62" type="line"/>
      <point x="221" y="56"/>
      <point x="249" y="54"/>
      <point x="280" y="54" type="curve" smooth="yes"/>
      <point x="415" y="54"/>
      <point x="497" y="120"/>
      <point x="511" y="230" type="curve" smooth="yes"/>
      <point x="512" y="238" type="line" smooth="yes"/>
      <point x="524" y="335"/>
      <point x="470" y="396"/>
      <point x="326" y="415" type="curve"/>
      <point x="422" y="674" type="line"/>
      <point x="498" y="644"/>
      <point x="510" y="571"/>
      <point x="499" y="498" type="curve"/>
      <point x="539" y="498" type="line"/>
      <point x="541" y="513" type="line" smooth="yes"/>
      <point x="555" y="620"/>
      <point x="510" y="683"/>
      <point x="436" y="710" type="curve"/>
    </contour>
    <contour>
      <point x="313" y="379" type="line"/>
      <point x="426" y="364"/>
      <point x="481" y="324"/>
      <point x="470" y="238" type="curve" smooth="yes"/>
      <point x="469" y="230" type="line" smooth="yes"/>
      <point x="458" y="141"/>
      <point x="390" y="92"/>
      <point x="283" y="92" type="curve" smooth="yes"/>
      <point x="277" y="92" type="line" smooth="yes"/>
      <point x="252" y="92"/>
      <point x="229" y="94"/>
      <point x="209" y="98" type="curve"/>
    </contour>
    <contour>
      <point x="143" y="551" type="curve" smooth="yes"/>
      <point x="144" y="559" type="line" smooth="yes"/>
      <point x="155" y="649"/>
      <point x="228" y="688"/>
      <point x="327" y="688" type="curve" smooth="yes"/>
      <point x="337" y="688" type="line" smooth="yes"/>
      <point x="355" y="688"/>
      <point x="371" y="686"/>
      <point x="386" y="684" type="curve"/>
      <point x="288" y="420" type="line"/>
      <point x="177" y="435"/>
      <point x="134" y="476"/>
    </contour>
  </outline>
</glyph>
<glyph name="ampersand" format="1">
  <advance width="650"/>
  <unicode hex="0026"/>
  <outline>
    <contour>
      <point x="236" y="-10" type="curve" smooth="yes"/>
      <point x="317" y="-10"/>
      <point x="393" y="22"/>
      <point x="458" y="94" type="curve"/>
      <point x="535" y="0" type="line"/>
      <point x="591" y="0" type="line"/>
      <point x="485" y="129" type="line"/>
      <point x="529" y="191"/>
      <point x="562" y="277"/>
      <point x="578" y="395" type="curve"/>
      <point x="538" y="395" type="line"/>
      <point x="537" y="387" type="line" smooth="yes"/>
      <point x="524" y="285"/>
      <point x="496" y="213"/>
      <point x="460" y="159" type="curve"/>
      <point x="249" y="417" type="line"/>
      <point x="343" y="476"/>
      <point x="441" y="532"/>
      <point x="453" y="626" type="curve" smooth="yes"/>
      <point x="454" y="634" type="line" smooth="yes"/>
      <point x="465" y="723"/>
      <point x="405" y="790"/>
      <point x="290" y="790" type="curve" smooth="yes"/>
      <point x="175" y="790"/>
      <point x="115" y="724"/>
      <point x="104" y="634" type="curve" smooth="yes"/>
      <point x="103" y="626" type="line" smooth="yes"/>
      <point x="94" y="555"/>
      <point x="129" y="496"/>
      <point x="190" y="421" type="curve"/>
      <point x="111" y="371"/>
      <point x="41" y="316"/>
      <point x="29" y="218" type="curve" smooth="yes"/>
      <point x="27" y="202" type="line" smooth="yes"/>
      <point x="10" y="67"/>
      <point x="97" y="-10"/>
    </contour>
    <contour>
      <point x="232" y="30" type="line" smooth="yes"/>
      <point x="110" y="30"/>
      <point x="55" y="103"/>
      <point x="67" y="202" type="curve" smooth="yes"/>
      <point x="69" y="218" type="line" smooth="yes"/>
      <point x="79" y="300"/>
      <point x="141" y="346"/>
      <point x="212" y="394" type="curve"/>
      <point x="434" y="123" type="line"/>
      <point x="373" y="53"/>
      <point x="309" y="30"/>
      <point x="240" y="30" type="curve" smooth="yes"/>
    </contour>
    <contour>
      <point x="146" y="634" type="line" smooth="yes"/>
      <point x="153" y="694"/>
      <point x="195" y="750"/>
      <point x="288" y="750" type="curve" smooth="yes"/>
      <point x="294" y="750" type="line" smooth="yes"/>
      <point x="380" y="750"/>
      <point x="420" y="697"/>
      <point x="412" y="634" type="curve" smooth="yes"/>
      <point x="411" y="626" type="line" smooth="yes"/>
      <point x="401" y="547"/>
      <point x="314" y="499"/>
      <point x="227" y="445" type="curve"/>
      <point x="175" y="506"/>
      <point x="136" y="558"/>
      <point x="145" y="626" type="curve" smooth="yes"/>
    </contour>
  </outline>
</glyph>
<glyph name="quotesingle" format="1">
  <advance width="200"/>
  <unicode hex="0027"/>
  <outline>
    <contour>
      <point x="130" y="780" type="line"/>
      <point x="108" y="530" type="line"/>
      <point x="132" y="530" type="line"/>
      <point x="176" y="780" type="line"/>
    </contour>
  </outline>
</glyph>
<glyph name="parenleft" format="1">
  <advance width="300"/>
  <unicode hex="0028"/>
  <outline>
    <contour>
      <point x="51" y="350" type="line" smooth="yes"/>
      <point x="25" y="142"/>
      <point x="90" y="0"/>
      <point x="147" y="-120" type="curve"/>
      <point x="192" y="-120" type="line"/>
      <point x="127" y="11"/>
      <point x="66" y="142"/>
      <point x="92" y="350" type="curve" smooth="yes"/>
      <point x="95" y="374" type="line" smooth="yes"/>
      <point x="122" y="594"/>
      <point x="222" y="734"/>
      <point x="321" y="840" type="curve"/>
      <point x="275" y="840" type="line"/>
      <point x="197" y="760"/>
      <point x="84" y="613"/>
      <point x="54" y="374" type="curve" smooth="yes"/>
    </contour>
  </outline>
</glyph>
<glyph name="parenright" format="1">
  <advance width="300"/>
  <unicode hex="0029"/>
  <outline>
    <contour>
      <point x="245" y="370" type="line" smooth="yes"/>
      <point x="271" y="578"/>
      <point x="206" y="720"/>
      <point x="149" y="840" type="curve"/>
      <point x="104" y="840" type="line"/>
      <point x="169" y="709"/>
      <point x="230" y="578"/>
      <point x="204" y="370" type="curve" smooth="yes"/>
      <point x="201" y="346" type="line" smooth="yes"/>
      <point x="174" y="126"/>
      <point x="74" y="-14"/>
      <point x="-25" y="-120" type="curve"/>
      <point x="21" y="-120" type="line"/>
      <point x="99" y="-40"/>
      <point x="212" y="107"/>
      <point x="242" y="346" type="curve" smooth="yes"/>
    </contour>
  </outline>
</glyph>
<glyph name="asterisk" format="1">
  <advance width="380"/>
  <unicode hex="002A"/>
  <outline>
    <contour>
      <point x="226" y="800" type="line"/>
      <point x="211" y="650" type="line"/>
      <point x="241" y="650" type="line"/>
      <point x="266" y="800" type="line"/>
    </contour>
    <contour>
      <point x="49" y="657" type="line"/>
      <point x="189" y="616" type="line"/>
      <point x="201" y="644" type="line"/>
      <point x="67" y="695" type="line"/>
    </contour>
    <contour>
      <point x="112" y="464" type="line"/>
      <point x="212" y="588" type="line"/>
      <point x="190" y="605" type="line"/>
      <point x="83" y="487" type="line"/>
    </contour>
    <contour>
      <point x="397" y="695" type="line"/>
      <point x="249" y="644" type="line"/>
      <point x="255" y="616" type="line"/>
      <point x="405" y="657" type="line"/>
    </contour>
    <contour>
      <point x="327" y="487" type="line"/>
      <point x="250" y="605" type="line"/>
      <point x="224" y="588" type="line"/>
      <point x="292" y="464" type="line"/>
    </contour>
  </outline>
</glyph>
<glyph name="plus" format="1">
  <advance width="600"/>
  <unicode hex="002B"/>
  <outline>
    <contour>
      <point x="314" y="640" type="line"/>
      <point x="283" y="410" type="line"/>
      <point x="53" y="410" type="line"/>
      <point x="48" y="370" type="line"/>
      <point x="278" y="370" type="line"/>
      <point x="248" y="140" type="line"/>
      <point x="288" y="140" type="line"/>
      <point x="318" y="370" type="line"/>
      <point x="548" y="370" type="line"/>
      <point x="553" y="410" type="line"/>
      <point x="323" y="410" type="line"/>
      <point x="354" y="640" type="line"/>
    </contour>
  </outline>
</glyph>
<glyph name="comma" format="1">
  <advance width="200"/>
  <unicode hex="002C"/>
  <outline>
    <contour>
      <point x="88" y="60" type="line"/>
      <point x="28" y="60" type="line"/>
      <point x="21" y="0" type="line"/>
      <point x="51" y="0" type="line"/>
      <point x="40" y="-62"/>
      <point x="18" y="-80"/>
      <point x="-20" y="-80" type="curve"/>
      <point x="-24" y="-110" type="line"/>
      <point x="36" y="-110"/>
      <point x="71" y="-70"/>
      <point x="82" y="12" type="curve" smooth="yes"/>
    </contour>
  </outline>
</glyph>
<glyph name="period" format="1">
  <advance width="200"/>
  <unicode hex="002E"/>
  <outline>
    <contour>
      <point x="88" y="60" type="line"/>
      <point x="28" y="60" type="line"/>
      <point x="21" y="0" type="line"/>
      <point x="81" y="0" type="line"/>
    </contour>
  </outline>
</glyph>
<glyph name="slash" format="1">
  <advance width="300"/>
  <unicode hex="002F"/>
  <outline>
    <contour>
      <point x="346" y="840" type="line"/>
      <point x="306" y="840" type="line"/>
      <point x="-49" y="-120" type="line"/>
      <point x="-10" y="-120" type="line"/>
    </contour>
  </outline>
</glyph>
<glyph name="zero" format="1">
  <advance width="600"/>
  <unicode hex="0030"/>
  <outline>
    <contour>
      <point x="556" y="555" type="line" smooth="yes"/>
      <point x="574" y="692"/>
      <point x="518" y="790"/>
      <point x="343" y="790" type="curve" smooth="yes"/>
      <point x="171" y="790"/>
      <point x="112" y="707"/>
      <point x="92" y="555" type="curve" smooth="yes"/>
      <point x="48" y="225" type="line" smooth="yes"/>
      <point x="30" y="88"/>
      <point x="86" y="-10"/>
      <point x="261" y="-10" type="curve" smooth="yes"/>
      <point x="433" y="-10"/>
      <point x="492" y="73"/>
      <point x="512" y="225" type="curve" smooth="yes"/>
    </contour>
    <contour>
      <point x="474" y="237" type="line" smooth="yes"/>
      <point x="455" y="96"/>
      <point x="409" y="28"/>
      <point x="264" y="28" type="curve" smooth="yes"/>
      <point x="258" y="28" type="line" smooth="yes"/>
      <point x="116" y="28"/>
      <point x="72" y="104"/>
      <point x="89" y="235" type="curve" smooth="yes"/>
      <point x="130" y="543" type="line" smooth="yes"/>
      <point x="149" y="684"/>
      <point x="195" y="752"/>
      <point x="340" y="752" type="curve" smooth="yes"/>
      <point x="346" y="752" type="line" smooth="yes"/>
      <point x="488" y="752"/>
      <point x="532" y="676"/>
      <point x="515" y="545" type="curve" smooth="yes"/>
    </contour>
  </outline>
</glyph>
<glyph name="one" format="1">
  <advance width="600"/>
  <unicode hex="0031"/>
  <outline>
    <contour>
      <point x="496" y="0" type="line"/>
      <point x="501" y="40" type="line"/>
      <point x="286" y="40" type="line"/>
      <point x="384" y="785" type="line"/>
      <point x="364" y="785" type="line"/>
      <point x="97" y="619" type="line"/>
      <point x="114" y="585" type="line"/>
      <point x="336" y="723" type="line"/>
      <point x="246" y="40" type="line"/>
      <point x="31" y="40" type="line"/>
      <point x="26" y="0" type="line"/>
    </contour>
  </outline>
</glyph>
<glyph name="two" format="1">
  <advance width="600"/>
  <unicode hex="0032"/>
  <outline>
    <contour>
      <point x="163" y="40" type="line"/>
      <point x="87" y="39" type="line"/>
      <point x="450" y="375" type="line" smooth="yes"/>
      <point x="534" y="453"/>
      <point x="555" y="488"/>
      <point x="566" y="573" type="curve" smooth="yes"/>
      <point x="567" y="581" type="line" smooth="yes"/>
      <point x="583" y="711"/>
      <point x="489" y="790"/>
      <point x="342" y="790" type="curve" smooth="yes"/>
      <point x="175" y="790"/>
      <point x="102" y="697"/>
      <point x="82" y="543" type="curve" smooth="yes"/>
      <point x="79" y="520" type="line"/>
      <point x="119" y="520" type="line"/>
      <point x="141" y="684"/>
      <point x="206" y="752"/>
      <point x="339" y="752" type="curve" smooth="yes"/>
      <point x="345" y="752" type="line" smooth="yes"/>
      <point x="462" y="752"/>
      <point x="538" y="682"/>
      <point x="525" y="577" type="curve" smooth="yes"/>
      <point x="524" y="569" type="line" smooth="yes"/>
      <point x="515" y="499"/>
      <point x="492" y="467"/>
      <point x="412" y="393" type="curve" smooth="yes"/>
      <point x="14" y="25" type="line"/>
      <point x="11" y="0" type="line"/>
      <point x="491" y="0" type="line"/>
      <point x="496" y="40" type="line"/>
    </contour>
  </outline>
</glyph>
<glyph name="three" format="1">
  <advance width="600"/>
  <unicode hex="0033"/>
  <outline>
    <contour>
      <point x="78" y="250" type="curve"/>
      <point x="38" y="250" type="line"/>
      <point x="37" y="242" type="line" smooth="yes"/>
      <point x="18" y="90"/>
      <point x="87" y="-10"/>
      <point x="265" y="-10" type="curve" smooth="yes"/>
      <point x="389" y="-10"/>
      <point x="504" y="67"/>
      <point x="521" y="200" type="curve" smooth="yes"/>
      <point x="522" y="208" type="line" smooth="yes"/>
      <point x="535" y="310"/>
      <point x="485" y="376"/>
      <point x="402" y="397" type="curve"/>
      <point x="486" y="415"/>
      <point x="554" y="478"/>
      <point x="566" y="574" type="curve" smooth="yes"/>
      <point x="567" y="582" type="line" smooth="yes"/>
      <point x="583" y="713"/>
      <point x="489" y="790"/>
      <point x="342" y="790" type="curve" smooth="yes"/>
      <point x="175" y="790"/>
      <point x="102" y="697"/>
      <point x="82" y="543" type="curve" smooth="yes"/>
      <point x="79" y="520" type="line"/>
      <point x="119" y="520" type="line"/>
      <point x="141" y="684"/>
      <point x="206" y="752"/>
      <point x="339" y="752" type="curve" smooth="yes"/>
      <point x="345" y="752" type="line" smooth="yes"/>
      <point x="462" y="752"/>
      <point x="538" y="686"/>
      <point x="525" y="581" type="curve" smooth="yes"/>
      <point x="524" y="573" type="line" smooth="yes"/>
      <point x="510" y="464"/>
      <point x="424" y="417"/>
      <point x="317" y="417" type="curve" smooth="yes"/>
      <point x="205" y="417" type="line"/>
      <point x="200" y="379" type="line"/>
      <point x="317" y="379" type="line" smooth="yes"/>
      <point x="426" y="379"/>
      <point x="494" y="322"/>
      <point x="480" y="207" type="curve" smooth="yes"/>
      <point x="479" y="199" type="line" smooth="yes"/>
      <point x="465" y="84"/>
      <point x="368" y="28"/>
      <point x="265" y="28" type="curve" smooth="yes"/>
      <point x="259" y="28" type="line" smooth="yes"/>
      <point x="126" y="28"/>
      <point x="59" y="99"/>
    </contour>
  </outline>
</glyph>
<glyph name="four" format="1">
  <advance width="600"/>
  <unicode hex="0034"/>
  <outline>
    <contour>
      <point x="371" y="0" type="line"/>
      <point x="400" y="220" type="line"/>
      <point x="544" y="220" type="line"/>
      <point x="550" y="260" type="line"/>
      <point x="405" y="260" type="line"/>
      <point x="473" y="780" type="line"/>
      <point x="433" y="780" type="line"/>
      <point x="18" y="245" type="line"/>
      <point x="14" y="220" type="line"/>
      <point x="360" y="220" type="line"/>
      <point x="331" y="0" type="line"/>
    </contour>
    <contour>
      <point x="425" y="708" type="line"/>
      <point x="408" y="590" type="line"/>
      <point x="365" y="260" type="line"/>
      <point x="175" y="260" type="line"/>
      <point x="77" y="259" type="line"/>
    </contour>
  </outline>
</glyph>
<glyph name="five" format="1">
  <advance width="600"/>
  <unicode hex="0035"/>
  <outline>
    <contour>
      <point x="38" y="250" type="line"/>
      <point x="37" y="242" type="line" smooth="yes"/>
      <point x="18" y="90"/>
      <point x="87" y="-10"/>
      <point x="265" y="-10" type="curve" smooth="yes"/>
      <point x="396" y="-10"/>
      <point x="507" y="69"/>
      <point x="527" y="232" type="curve" smooth="yes"/>
      <point x="528" y="240" type="line" smooth="yes"/>
      <point x="548" y="403"/>
      <point x="442" y="490"/>
      <point x="303" y="490" type="curve" smooth="yes"/>
      <point x="218" y="490"/>
      <point x="143" y="458"/>
      <point x="109" y="414" type="curve"/>
      <point x="166" y="740" type="line"/>
      <point x="583" y="740" type="line"/>
      <point x="588" y="780" type="line"/>
      <point x="133" y="780" type="line"/>
      <point x="57" y="345" type="line"/>
      <point x="89" y="336" type="line"/>
      <point x="133" y="418"/>
      <point x="211" y="452"/>
      <point x="298" y="452" type="curve" smooth="yes"/>
      <point x="308" y="452" type="line" smooth="yes"/>
      <point x="418" y="452"/>
      <point x="504" y="380"/>
      <point x="486" y="239" type="curve" smooth="yes"/>
      <point x="485" y="231" type="line" smooth="yes"/>
      <point x="467" y="90"/>
      <point x="374" y="28"/>
      <point x="265" y="28" type="curve" smooth="yes"/>
      <point x="259" y="28" type="line" smooth="yes"/>
      <point x="126" y="28"/>
      <point x="59" y="99"/>
      <point x="78" y="250" type="curve"/>
    </contour>
  </outline>
</glyph>
<glyph name="six" format="1">
  <advance width="600"/>
  <unicode hex="0036"/>
  <outline>
    <contour>
      <point x="570" y="790" type="line"/>
      <point x="463" y="790"/>
      <point x="315" y="746"/>
      <point x="204" y="629" type="curve" smooth="yes"/>
      <point x="102" y="521"/>
      <point x="61" y="399"/>
      <point x="46" y="275" type="curve" smooth="yes"/>
      <point x="45" y="267" type="line" smooth="yes"/>
      <point x="22" y="87"/>
      <point x="121" y="-10"/>
      <point x="269" y="-10" type="curve" smooth="yes"/>
      <point x="404" y="-10"/>
      <point x="510" y="65"/>
      <point x="531" y="233" type="curve" smooth="yes"/>
      <point x="532" y="241" type="line" smooth="yes"/>
      <point x="553" y="409"/>
      <point x="454" y="490"/>
      <point x="313" y="490" type="curve" smooth="yes"/>
      <point x="232" y="490"/>
      <point x="151" y="448"/>
      <point x="112" y="396" type="curve"/>
      <point x="136" y="465"/>
      <point x="175" y="541"/>
      <point x="234" y="603" type="curve" smooth="yes"/>
      <point x="341" y="714"/>
      <point x="477" y="750"/>
      <point x="564" y="750" type="curve"/>
    </contour>
    <contour>
      <point x="316" y="450" type="line" smooth="yes"/>
      <point x="435" y="450"/>
      <point x="506" y="370"/>
      <point x="490" y="240" type="curve" smooth="yes"/>
      <point x="489" y="232" type="line" smooth="yes"/>
      <point x="473" y="102"/>
      <point x="396" y="30"/>
      <point x="272" y="30" type="curve" smooth="yes"/>
      <point x="266" y="30" type="line" smooth="yes"/>
      <point x="154" y="30"/>
      <point x="71" y="91"/>
      <point x="85" y="260" type="curve" smooth="yes"/>
      <point x="88" y="294"/>
      <point x="95" y="323"/>
      <point x="95" y="323" type="curve"/>
      <point x="143" y="399"/>
      <point x="216" y="450"/>
      <point x="310" y="450" type="curve" smooth="yes"/>
    </contour>
  </outline>
</glyph>
<glyph name="seven" format="1">
  <advance width="600"/>
  <unicode hex="0037"/>
  <outline>
    <contour>
      <point x="81" y="500" type="line"/>
      <point x="121" y="500" type="line"/>
      <point x="153" y="740" type="line"/>
      <point x="425" y="740" type="line"/>
      <point x="543" y="741" type="line"/>
      <point x="144" y="0" type="line"/>
      <point x="189" y="0" type="line"/>
      <point x="595" y="755" type="line"/>
      <point x="598" y="780" type="line"/>
      <point x="118" y="780" type="line"/>
    </contour>
  </outline>
</glyph>
<glyph name="eight" format="1">
  <advance width="600"/>
  <unicode hex="0038"/>
  <outline>
    <contour>
      <point x="258" y="-10" type="curve" smooth="yes"/>
      <point x="391" y="-10"/>
      <point x="504" y="67"/>
      <point x="521" y="200" type="curve" smooth="yes"/>
      <point x="522" y="208" type="line" smooth="yes"/>
      <point x="535" y="310"/>
      <point x="487" y="375"/>
      <point x="402" y="397" type="curve"/>
      <point x="486" y="415"/>
      <point x="554" y="478"/>
      <point x="566" y="574" type="curve" smooth="yes"/>
      <point x="567" y="582" type="line" smooth="yes"/>
      <point x="583" y="712"/>
      <point x="489" y="790"/>
      <point x="342" y="790" type="curve" smooth="yes"/>
      <point x="195" y="790"/>
      <point x="104" y="714"/>
      <point x="88" y="584" type="curve" smooth="yes"/>
      <point x="87" y="576" type="line" smooth="yes"/>
      <point x="75" y="478"/>
      <point x="134" y="412"/>
      <point x="204" y="399" type="curve"/>
      <point x="124" y="378"/>
      <point x="49" y="328"/>
      <point x="34" y="206" type="curve" smooth="yes"/>
      <point x="33" y="198" type="line" smooth="yes"/>
      <point x="16" y="64"/>
      <point x="119" y="-10"/>
    </contour>
    <contour>
      <point x="310" y="379" type="line" smooth="yes"/>
      <point x="419" y="379"/>
      <point x="494" y="322"/>
      <point x="480" y="207" type="curve" smooth="yes"/>
      <point x="479" y="199" type="line" smooth="yes"/>
      <point x="465" y="85"/>
      <point x="371" y="28"/>
      <point x="268" y="28" type="curve" smooth="yes"/>
      <point x="258" y="28" type="line" smooth="yes"/>
      <point x="148" y="28"/>
      <point x="60" y="80"/>
      <point x="75" y="199" type="curve" smooth="yes"/>
      <point x="76" y="207" type="line" smooth="yes"/>
      <point x="90" y="318"/>
      <point x="177" y="379"/>
      <point x="290" y="379" type="curve" smooth="yes"/>
    </contour>
    <contour>
      <point x="345" y="752" type="line" smooth="yes"/>
      <point x="462" y="752"/>
      <point x="538" y="686"/>
      <point x="525" y="581" type="curve" smooth="yes"/>
      <point x="524" y="573" type="line" smooth="yes"/>
      <point x="510" y="464"/>
      <point x="420" y="417"/>
      <point x="317" y="417" type="curve" smooth="yes"/>
      <point x="293" y="417" type="line" smooth="yes"/>
      <point x="190" y="417"/>
      <point x="115" y="468"/>
      <point x="129" y="577" type="curve" smooth="yes"/>
      <point x="130" y="585" type="line" smooth="yes"/>
      <point x="143" y="690"/>
      <point x="222" y="752"/>
      <point x="339" y="752" type="curve" smooth="yes"/>
    </contour>
  </outline>
</glyph>
<glyph name="nine" format="1">
  <advance width="600"/>
  <unicode hex="0039"/>
  <outline>
    <contour>
      <point x="33" y="-10" type="line"/>
      <point x="140" y="-10"/>
      <point x="288" y="34"/>
      <point x="399" y="151" type="curve" smooth="yes"/>
      <point x="501" y="259"/>
      <point x="542" y="381"/>
      <point x="557" y="505" type="curve" smooth="yes"/>
      <point x="558" y="513" type="line" smooth="yes"/>
      <point x="581" y="693"/>
      <point x="482" y="790"/>
      <point x="334" y="790" type="curve" smooth="yes"/>
      <point x="199" y="790"/>
      <point x="93" y="715"/>
      <point x="72" y="547" type="curve" smooth="yes"/>
      <point x="71" y="539" type="line" smooth="yes"/>
      <point x="50" y="371"/>
      <point x="149" y="290"/>
      <point x="290" y="290" type="curve" smooth="yes"/>
      <point x="371" y="290"/>
      <point x="452" y="332"/>
      <point x="491" y="384" type="curve"/>
      <point x="467" y="315"/>
      <point x="428" y="239"/>
      <point x="369" y="177" type="curve" smooth="yes"/>
      <point x="262" y="66"/>
      <point x="126" y="30"/>
      <point x="39" y="30" type="curve"/>
    </contour>
    <contour>
      <point x="287" y="330" type="line" smooth="yes"/>
      <point x="168" y="330"/>
      <point x="97" y="410"/>
      <point x="113" y="540" type="curve" smooth="yes"/>
      <point x="114" y="548" type="line" smooth="yes"/>
      <point x="130" y="678"/>
      <point x="207" y="750"/>
      <point x="331" y="750" type="curve" smooth="yes"/>
      <point x="337" y="750" type="line" smooth="yes"/>
      <point x="449" y="750"/>
      <point x="532" y="689"/>
      <point x="518" y="520" type="curve" smooth="yes"/>
      <point x="515" y="486"/>
      <point x="508" y="457"/>
      <point x="508" y="457" type="curve"/>
      <point x="460" y="381"/>
      <point x="387" y="330"/>
      <point x="293" y="330" type="curve" smooth="yes"/>
    </contour>
  </outline>
</glyph>
<glyph name="colon" format="1">
  <advance width="200"/>
  <unicode hex="003A"/>
  <outline>
    <contour>
      <point x="88" y="60" type="line"/>
      <point x="28" y="60" type="line"/>
      <point x="21" y="0" type="line"/>
      <point x="81" y="0" type="line"/>
    </contour>
    <contour>
      <point x="136" y="420" type="line"/>
      <point x="76" y="420" type="line"/>
      <point x="68" y="360" type="line"/>
      <point x="128" y="360" type="line"/>
    </contour>
  </outline>
</glyph>
<glyph name="less" format="1">
  <advance width="600"/>
  <unicode hex="003C"/>
  <outline>
    <contour>
      <point x="53" y="410" type="line"/>
      <point x="48" y="370" type="line"/>
      <point x="516" y="124" type="line"/>
      <point x="521" y="164" type="line"/>
      <point x="91" y="388" type="line"/>
      <point x="580" y="612" type="line"/>
      <point x="586" y="656" type="line"/>
    </contour>
  </outline>
</glyph>
<glyph name="equal" format="1">
  <advance width="600"/>
  <unicode hex="003D"/>
  <outline>
    <contour>
      <point x="61" y="470" type="line"/>
      <point x="561" y="470" type="line"/>
      <point x="567" y="510" type="line"/>
      <point x="67" y="510" type="line"/>
    </contour>
    <contour>
      <point x="35" y="270" type="line"/>
      <point x="535" y="270" type="line"/>
      <point x="540" y="310" type="line"/>
      <point x="40" y="310" type="line"/>
    </contour>
  </outline>
</glyph>
<glyph name="greater" format="1">
  <advance width="600"/>
  <unicode hex="003E"/>
  <outline>
    <contour>
      <point x="548" y="370" type="line"/>
      <point x="553" y="410" type="line"/>
      <point x="85" y="656" type="line"/>
      <point x="80" y="616" type="line"/>
      <point x="510" y="392" type="line"/>
      <point x="21" y="168" type="line"/>
      <point x="15" y="124" type="line"/>
    </contour>
  </outline>
</glyph>
<glyph name="question" format="1">
  <advance width="440"/>
  <unicode hex="003F"/>
  <outline>
    <contour>
      <point x="267" y="752" type="curve" smooth="yes"/>
      <point x="359" y="752"/>
      <point x="396" y="707"/>
      <point x="396" y="620" type="curve" smooth="yes"/>
      <point x="396" y="411"/>
      <point x="202" y="394"/>
      <point x="182" y="175" type="curve"/>
      <point x="206" y="175" type="line"/>
      <point x="240" y="395"/>
      <point x="438" y="386"/>
      <point x="438" y="630" type="curve" smooth="yes"/>
      <point x="438" y="729"/>
      <point x="385" y="790"/>
      <point x="267" y="790" type="curve" smooth="yes"/>
      <point x="116" y="790"/>
      <point x="72" y="681"/>
      <point x="46" y="513" type="curve" smooth="yes"/>
      <point x="44" y="500" type="line"/>
      <point x="84" y="500" type="line"/>
      <point x="104" y="651"/>
      <point x="144" y="752"/>
    </contour>
    <contour>
      <point x="208" y="60" type="line"/>
      <point x="148" y="60" type="line"/>
      <point x="141" y="0" type="line"/>
      <point x="201" y="0" type="line"/>
    </contour>
  </outline>
</glyph>
<glyph name="at" format="1">
  <advance width="950"/>
  <unicode hex="0040"/>
  <outline>
    <contour>
      <point x="425" y="-172" type="line" smooth="yes"/>
      <point x="178" y="-172"/>
      <point x="25" y="-15"/>
      <point x="61" y="270" type="curve" smooth="yes"/>
      <point x="66" y="310" type="line" smooth="yes"/>
      <point x="100" y="585"/>
      <point x="293" y="752"/>
      <point x="540" y="752" type="curve" smooth="yes"/>
      <point x="546" y="752" type="line" smooth="yes"/>
      <point x="743" y="752"/>
      <point x="908" y="640"/>
      <point x="874" y="385" type="curve" smooth="yes"/>
      <point x="870" y="355" type="line" smooth="yes"/>
      <point x="840" y="131"/>
      <point x="741" y="99"/>
      <point x="613" y="97" type="curve"/>
      <point x="651" y="380" type="line"/>
      <point x="675" y="530" type="line"/>
      <point x="645" y="530" type="line"/>
      <point x="625" y="453" type="line"/>
      <point x="604" y="499"/>
      <point x="557" y="540"/>
      <point x="475" y="540" type="curve" smooth="yes"/>
      <point x="330" y="540"/>
      <point x="264" y="423"/>
      <point x="246" y="305" type="curve" smooth="yes"/>
      <point x="243" y="285" type="line" smooth="yes"/>
      <point x="225" y="167"/>
      <point x="269" y="50"/>
      <point x="414" y="50" type="curve" smooth="yes"/>
      <point x="496" y="50"/>
      <point x="550" y="91"/>
      <point x="583" y="136" type="curve"/>
      <point x="583" y="60" type="line"/>
      <point x="608" y="60" type="line" smooth="yes"/>
      <point x="763" y="60"/>
      <point x="880" y="115"/>
      <point x="912" y="355" type="curve" smooth="yes"/>
      <point x="916" y="385" type="line" smooth="yes"/>
      <point x="952" y="655"/>
      <point x="770" y="790"/>
      <point x="540" y="790" type="curve" smooth="yes"/>
      <point x="265" y="790"/>
      <point x="64" y="610"/>
      <point x="26" y="310" type="curve" smooth="yes"/>
      <point x="21" y="270" type="line" smooth="yes"/>
      <point x="-17" y="-30"/>
      <point x="141" y="-210"/>
      <point x="428" y="-210" type="curve" smooth="yes"/>
      <point x="545" y="-210"/>
      <point x="675" y="-188"/>
      <point x="791" y="-100" type="curve"/>
      <point x="772" y="-68" type="line"/>
      <point x="669" y="-142"/>
      <point x="552" y="-172"/>
      <point x="431" y="-172" type="curve" smooth="yes"/>
    </contour>
    <contour>
      <point x="614" y="410" type="curve"/>
      <point x="584" y="180" type="line"/>
      <point x="554" y="140"/>
      <point x="497" y="88"/>
      <point x="422" y="88" type="curve" smooth="yes"/>
      <point x="309" y="88"/>
      <point x="268" y="174"/>
      <point x="285" y="285" type="curve" smooth="yes"/>
      <point x="288" y="305" type="line" smooth="yes"/>
      <point x="305" y="416"/>
      <point x="364" y="502"/>
      <point x="477" y="502" type="curve" smooth="yes"/>
      <point x="552" y="502"/>
      <point x="595" y="450"/>
    </contour>
  </outline>
</glyph>
<glyph name="A" format="1">
  <advance width="600"/>
  <unicode hex="0041"/>
  <outline>
    <contour>
      <point x="325" y="790" type="line"/>
      <point x="-15" y="0" type="line"/>
      <point x="31" y="0" type="line"/>
      <point x="120" y="211" type="line"/>
      <point x="439" y="211" type="line"/>
      <point x="475" y="0" type="line"/>
      <point x="517" y="0" type="line"/>
      <point x="385" y="790" type="line"/>
    </contour>
    <contour>
      <point x="351" y="750" type="line"/>
      <point x="433" y="249" type="line"/>
      <point x="136" y="249" type="line"/>
    </contour>
  </outline>
</glyph>
<glyph name="C" format="1">
  <advance width="607"/>
  <unicode hex="0043"/>
  <outline>
    <contour>
      <point x="108" y="402" type="line" smooth="yes"/>
      <point x="139" y="649"/>
      <point x="222" y="752"/>
      <point x="364" y="752" type="curve" smooth="yes"/>
      <point x="370" y="752" type="line" smooth="yes"/>
      <point x="504" y="752"/>
      <point x="550" y="680"/>
      <point x="526" y="500" type="curve"/>
      <point x="568" y="500" type="line"/>
      <point x="571" y="519" type="line" smooth="yes"/>
      <point x="598" y="689"/>
      <point x="533" y="790"/>
      <point x="367" y="790" type="curve" smooth="yes"/>
      <point x="197" y="790"/>
      <point x="100" y="674"/>
      <point x="66" y="402" type="curve" smooth="yes"/>
      <point x="63" y="378" type="line" smooth="yes"/>
      <point x="28" y="99"/>
      <point x="104" y="-10"/>
      <point x="276" y="-10" type="curve" smooth="yes"/>
      <point x="432" y="-10"/>
      <point x="517" y="90"/>
      <point x="534" y="241" type="curve" smooth="yes"/>
      <point x="535" y="250" type="line"/>
      <point x="493" y="250" type="line"/>
      <point x="474" y="105"/>
      <point x="410" y="28"/>
      <point x="279" y="28" type="curve" smooth="yes"/>
      <point x="273" y="28" type="line" smooth="yes"/>
      <point x="131" y="28"/>
      <point x="73" y="125"/>
      <point x="105" y="378" type="curve" smooth="yes"/>
    </contour>
  </outline>
</glyph>
<glyph name="F" format="1">
  <advance width="500"/>
  <unicode hex="0046"/>
  <outline>
    <contour>
      <point x="133" y="780" type="line"/>
      <point x="31" y="0" type="line"/>
      <point x="71" y="0" type="line"/>
      <point x="120" y="379" type="line"/>
      <point x="430" y="379" type="line"/>
      <point x="435" y="417" type="line"/>
      <point x="125" y="417" type="line"/>
      <point x="168" y="742" type="line"/>
      <point x="528" y="742" type="line"/>
      <point x="533" y="780" type="line"/>
    </contour>
  </outline>
</glyph>
<glyph name="H" format="1">
  <advance width="630"/>
  <unicode hex="0048"/>
  <outline>
    <contour>
      <point x="563" y="780" type="line"/>
      <point x="515" y="417" type="line"/>
      <point x="125" y="417" type="line"/>
      <point x="173" y="780" type="line"/>
      <point x="133" y="780" type="line"/>
      <point x="31" y="0" type="line"/>
      <point x="71" y="0" type="line"/>
      <point x="120" y="379" type="line"/>
      <point x="510" y="379" type="line"/>
      <point x="461" y="0" type="line"/>
      <point x="501" y="0" type="line"/>
      <point x="603" y="780" type="line"/>
    </contour>
  </outline>
</glyph>
<glyph name="I" format="1">
  <advance width="210"/>
  <unicode hex="0049"/>
  <outline>
    <contour>
      <point x="178" y="780" type="line"/>
      <point x="138" y="780" type="line"/>
      <point x="36" y="0" type="line"/>
      <point x="76" y="0" type="line"/>
    </contour>
  </outline>
</glyph>
<glyph name="K" format="1">
  <advance width="540"/>
  <unicode hex="004B"/>
  <outline>
    <contour>
      <point x="173" y="780" type="line"/>
      <point x="133" y="780" type="line"/>
      <point x="31" y="0" type="line"/>
      <point x="71" y="0" type="line"/>
      <point x="103" y="246" type="line"/>
      <point x="243" y="412" type="line"/>
      <point x="407" y="0" type="line"/>
      <point x="451" y="0" type="line"/>
      <point x="271" y="445" type="line"/>
      <point x="553" y="780" type="line"/>
      <point x="503" y="780" type="line"/>
      <point x="112" y="315" type="line"/>
    </contour>
  </outline>
</glyph>
<glyph name="L" format="1">
  <advance width="480"/>
  <unicode hex="004C"/>
  <outline>
    <contour>
      <point x="416" y="0" type="line"/>
      <point x="421" y="38" type="line"/>
      <point x="76" y="38" type="line"/>
      <point x="173" y="780" type="line"/>
      <point x="133" y="780" type="line"/>
      <point x="31" y="0" type="line"/>
    </contour>
  </outline>
</glyph>
<glyph name="M" format="1">
  <advance width="780"/>
  <unicode hex="004D"/>
  <outline>
    <contour>
      <point x="707" y="710" type="line"/>
      <point x="680" y="530" type="line"/>
      <point x="611" y="0" type="line"/>
      <point x="651" y="0" type="line"/>
      <point x="753" y="780" type="line"/>
      <point x="700" y="780" type="line"/>
      <point x="348" y="68" type="line"/>
      <point x="184" y="780" type="line"/>
      <point x="133" y="780" type="line"/>
      <point x="31" y="0" type="line"/>
      <point x="71" y="0" type="line"/>
      <point x="140" y="530" type="line"/>
      <point x="161" y="710" type="line"/>
      <point x="326" y="0" type="line"/>
      <point x="356" y="0" type="line"/>
    </contour>
  </outline>
</glyph>
<glyph name="N" format="1">
  <advance width="650"/>
  <unicode hex="004E"/>
  <outline>
    <contour>
      <point x="623" y="780" type="line"/>
      <point x="584" y="780" type="line"/>
      <point x="514" y="250" type="line"/>
      <point x="492" y="60" type="line"/>
      <point x="177" y="780" type="line"/>
      <point x="133" y="780" type="line"/>
      <point x="31" y="0" type="line"/>
      <point x="70" y="0" type="line"/>
      <point x="139" y="530" type="line"/>
      <point x="161" y="720" type="line"/>
      <point x="477" y="0" type="line"/>
      <point x="521" y="0" type="line"/>
    </contour>
  </outline>
</glyph>
<glyph name="Q" format="1">
  <advance width="640"/>
  <unicode hex="0051"/>
  <outline>
    <contour>
      <point x="580" y="402" type="line" smooth="yes"/>
      <point x="615" y="681"/>
      <point x="539" y="790"/>
      <point x="367" y="790" type="curve" smooth="yes"/>
      <point x="197" y="790"/>
      <point x="100" y="674"/>
      <point x="66" y="402" type="curve" smooth="yes"/>
      <point x="63" y="378" type="line" smooth="yes"/>
      <point x="28" y="99"/>
      <point x="104" y="-10"/>
      <point x="276" y="-10" type="curve" smooth="yes"/>
      <point x="296" y="-10"/>
      <point x="321" y="-8"/>
      <point x="334" y="-5" type="curve"/>
      <point x="357" y="-100" type="line"/>
      <point x="399" y="-100" type="line"/>
      <point x="372" y="5" type="line"/>
      <point x="483" y="44"/>
      <point x="550" y="162"/>
      <point x="577" y="378" type="curve" smooth="yes"/>
    </contour>
    <contour>
      <point x="280" y="213" type="line"/>
      <point x="325" y="32" type="line"/>
      <point x="309" y="29"/>
      <point x="295" y="28"/>
      <point x="279" y="28" type="curve" smooth="yes"/>
      <point x="273" y="28" type="line" smooth="yes"/>
      <point x="131" y="28"/>
      <point x="73" y="125"/>
      <point x="105" y="378" type="curve" smooth="yes"/>
      <point x="108" y="402" type="line" smooth="yes"/>
      <point x="139" y="649"/>
      <point x="222" y="752"/>
      <point x="364" y="752" type="curve" smooth="yes"/>
      <point x="370" y="752" type="line" smooth="yes"/>
      <point x="512" y="752"/>
      <point x="570" y="655"/>
      <point x="538" y="402" type="curve" smooth="yes"/>
      <point x="535" y="378" type="line" smooth="yes"/>
      <point x="510" y="184"/>
      <point x="454" y="79"/>
      <point x="363" y="43" type="curve"/>
      <point x="320" y="213" type="line"/>
    </contour>
  </outline>
</glyph>
<glyph name="R" format="1">
  <advance width="570"/>
  <unicode hex="0052"/>
  <outline>
    <contour>
      <point x="114" y="330" type="line"/>
      <point x="281" y="330" type="line" smooth="yes"/>
      <point x="296" y="330"/>
      <point x="312" y="331"/>
      <point x="328" y="333" type="curve"/>
      <point x="417" y="0" type="line"/>
      <point x="461" y="0" type="line"/>
      <point x="367" y="341" type="line"/>
      <point x="446" y="362"/>
      <point x="516" y="418"/>
      <point x="531" y="537" type="curve" smooth="yes"/>
      <point x="534" y="561" type="line" smooth="yes"/>
      <point x="555" y="731"/>
      <point x="436" y="780"/>
      <point x="330" y="780" type="curve" smooth="yes"/>
      <point x="133" y="780" type="line"/>
      <point x="31" y="0" type="line"/>
      <point x="71" y="0" type="line"/>
    </contour>
    <contour>
      <point x="119" y="368" type="line"/>
      <point x="168" y="742" type="line"/>
      <point x="327" y="742" type="line" smooth="yes"/>
      <point x="403" y="742"/>
      <point x="511" y="712"/>
      <point x="492" y="561" type="curve" smooth="yes"/>
      <point x="489" y="537" type="line" smooth="yes"/>
      <point x="471" y="392"/>
      <point x="360" y="368"/>
      <point x="286" y="368" type="curve" smooth="yes"/>
    </contour>
  </outline>
</glyph>
<glyph name="T" format="1">
  <advance width="500"/>
  <unicode hex="0054"/>
  <outline>
    <contour>
      <point x="318" y="742" type="line"/>
      <point x="523" y="742" type="line"/>
      <point x="528" y="780" type="line"/>
      <point x="78" y="780" type="line"/>
      <point x="73" y="742" type="line"/>
      <point x="278" y="742" type="line"/>
      <point x="181" y="0" type="line"/>
      <point x="221" y="0" type="line"/>
    </contour>
  </outline>
</glyph>
<glyph name="U" format="1">
  <advance width="630"/>
  <unicode hex="0055"/>
  <outline>
    <contour>
      <point x="273" y="-10" type="curve" smooth="yes"/>
      <point x="423" y="-10"/>
      <point x="512" y="50"/>
      <point x="537" y="240" type="curve" smooth="yes"/>
      <point x="608" y="780" type="line"/>
      <point x="568" y="780" type="line"/>
      <point x="498" y="245" type="line" smooth="yes"/>
      <point x="476" y="78"/>
      <point x="403" y="28"/>
      <point x="273" y="28" type="curve" smooth="yes"/>
      <point x="143" y="28"/>
      <point x="76" y="77"/>
      <point x="98" y="245" type="curve" smooth="yes"/>
      <point x="168" y="780" type="line"/>
      <point x="128" y="780" type="line"/>
      <point x="57" y="240" type="line" smooth="yes"/>
      <point x="32" y="47"/>
      <point x="123" y="-10"/>
    </contour>
  </outline>
</glyph>
<glyph name="V" format="1">
  <advance width="600"/>
  <unicode hex="0056"/>
  <outline>
    <contour>
      <point x="279" y="-10" type="line"/>
      <point x="619" y="780" type="line"/>
      <point x="573" y="780" type="line"/>
      <point x="253" y="30" type="line"/>
      <point x="129" y="780" type="line"/>
      <point x="87" y="780" type="line"/>
      <point x="219" y="-10" type="line"/>
    </contour>
  </outline>
</glyph>
<glyph name="X" format="1">
  <advance width="600"/>
  <unicode hex="0058"/>
  <outline>
    <contour>
      <point x="-14" y="0" type="line"/>
      <point x="37" y="0" type="line"/>
      <point x="300" y="355" type="line"/>
      <point x="471" y="0" type="line"/>
      <point x="516" y="0" type="line"/>
      <point x="325" y="392" type="line"/>
      <point x="618" y="780" type="line"/>
      <point x="567" y="780" type="line"/>
      <point x="304" y="427" type="line"/>
      <point x="133" y="780" type="line"/>
      <point x="88" y="780" type="line"/>
      <point x="279" y="394" type="line"/>
    </contour>
  </outline>
</glyph>
<glyph name="Y" format="1">
  <advance width="560"/>
  <unicode hex="0059"/>
  <outline>
    <contour>
      <point x="281" y="235" type="line"/>
      <point x="588" y="780" type="line"/>
      <point x="543" y="780" type="line"/>
      <point x="266" y="285" type="line"/>
      <point x="119" y="780" type="line"/>
      <point x="78" y="780" type="line"/>
      <point x="241" y="235" type="line"/>
      <point x="211" y="0" type="line"/>
      <point x="251" y="0" type="line"/>
    </contour>
  </outline>
</glyph>
<glyph name="Z" format="1">
  <advance width="550"/>
  <unicode hex="005A"/>
  <outline>
    <contour>
      <point x="-6" y="28" type="line"/>
      <point x="-9" y="0" type="line"/>
      <point x="461" y="0" type="line"/>
      <point x="466" y="38" type="line"/>
      <point x="165" y="38" type="line"/>
      <point x="44" y="36" type="line"/>
      <point x="550" y="752" type="line"/>
      <point x="553" y="780" type="line"/>
      <point x="103" y="780" type="line"/>
      <point x="98" y="742" type="line"/>
      <point x="379" y="742" type="line"/>
      <point x="500" y="744" type="line"/>
    </contour>
  </outline>
</glyph>
<glyph name="bracketleft" format="1">
  <advance width="300"/>
  <unicode hex="005B"/>
  <outline>
    <contour>
      <point x="131" y="840" type="line"/>
      <point x="5" y="-120" type="line"/>
      <point x="190" y="-120" type="line"/>
      <point x="195" y="-80" type="line"/>
      <point x="50" y="-80" type="line"/>
      <point x="166" y="800" type="line"/>
      <point x="311" y="800" type="line"/>
      <point x="316" y="840" type="line"/>
    </contour>
  </outline>
</glyph>
<glyph name="backslash" format="1">
  <advance width="300"/>
  <unicode hex="005C"/>
  <outline>
    <contour>
      <point x="180" y="-120" type="line"/>
      <point x="220" y="-120" type="line"/>
      <point x="116" y="840" type="line"/>
      <point x="76" y="840" type="line"/>
    </contour>
  </outline>
</glyph>
<glyph name="bracketright" format="1">
  <advance width="300"/>
  <unicode hex="005D"/>
  <outline>
    <contour>
      <point x="165" y="-120" type="line"/>
      <point x="291" y="840" type="line"/>
      <point x="106" y="840" type="line"/>
      <point x="101" y="800" type="line"/>
      <point x="246" y="800" type="line"/>
      <point x="130" y="-80" type="line"/>
      <point x="-15" y="-80" type="line"/>
      <point x="-20" y="-120" type="line"/>
    </contour>
  </outline>
</glyph>
<glyph name="asciicircum" format="1">
  <advance width="600"/>
  <unicode hex="005E"/>
  <outline>
    <contour>
      <point x="373" y="780" type="line"/>
      <point x="333" y="780" type="line"/>
      <point x="21" y="280" type="line"/>
      <point x="65" y="280" type="line"/>
      <point x="350" y="739" type="line"/>
      <point x="513" y="280" type="line"/>
      <point x="553" y="280" type="line"/>
    </contour>
  </outline>
</glyph>
<glyph name="underscore" format="1">
  <advance width="320"/>
  <unicode hex="005F"/>
  <outline>
    <contour>
      <point x="-15" y="-118" type="line"/>
      <point x="205" y="-118" type="line"/>
      <point x="210" y="-80" type="line"/>
      <point x="-10" y="-80" type="line"/>
    </contour>
  </outline>
</glyph>
<glyph name="grave" format="1">
  <advance width="500"/>
  <unicode hex="0060"/>
  <outline>
    <contour>
      <point x="192" y="780" type="line"/>
      <point x="261" y="620" type="line"/>
      <point x="303" y="620" type="line"/>
      <point x="234" y="780" type="line"/>
    </contour>
  </outline>
</glyph>
<glyph name="b" format="1">
  <advance width="525"/>
  <unicode hex="0062"/>
  <outline>
    <contour>
      <point x="166" y="800" type="line"/>
      <point x="126" y="800" type="line"/>
      <point x="40" y="150" type="line"/>
      <point x="16" y="0" type="line"/>
      <point x="46" y="0" type="line"/>
      <point x="65" y="81" type="line"/>
      <point x="81" y="43"/>
      <point x="136" y="-10"/>
      <point x="218" y="-10" type="curve" smooth="yes"/>
      <point x="363" y="-10"/>
      <point x="436" y="100"/>
      <point x="455" y="255" type="curve" smooth="yes"/>
      <point x="457" y="271" type="line" smooth="yes"/>
      <point x="476" y="420"/>
      <point x="425" y="540"/>
      <point x="274" y="540" type="curve" smooth="yes"/>
      <point x="208" y="540"/>
      <point x="153" y="509"/>
      <point x="123" y="470" type="curve"/>
    </contour>
    <contour>
      <point x="77" y="126" type="curve"/>
      <point x="115" y="416" type="line"/>
      <point x="150" y="463"/>
      <point x="199" y="502"/>
      <point x="274" y="502" type="curve" smooth="yes"/>
      <point x="387" y="502"/>
      <point x="433" y="411"/>
      <point x="415" y="268" type="curve" smooth="yes"/>
      <point x="413" y="252" type="line" smooth="yes"/>
      <point x="396" y="114"/>
      <point x="331" y="28"/>
      <point x="218" y="28" type="curve" smooth="yes"/>
      <point x="140" y="28"/>
      <point x="96" y="82"/>
    </contour>
  </outline>
</glyph>
<glyph name="c" format="1">
  <advance width="520"/>
  <unicode hex="0063"/>
  <outline>
    <contour>
      <point x="83" y="278" type="line" smooth="yes"/>
      <point x="100" y="416"/>
      <point x="165" y="502"/>
      <point x="278" y="502" type="curve" smooth="yes"/>
      <point x="390" y="502"/>
      <point x="433" y="430"/>
      <point x="421" y="340" type="curve"/>
      <point x="460" y="340" type="line"/>
      <point x="462" y="355" type="line" smooth="yes"/>
      <point x="472" y="427"/>
      <point x="439" y="540"/>
      <point x="278" y="540" type="curve" smooth="yes"/>
      <point x="133" y="540"/>
      <point x="60" y="430"/>
      <point x="41" y="275" type="curve" smooth="yes"/>
      <point x="39" y="259" type="line" smooth="yes"/>
      <point x="20" y="110"/>
      <point x="79" y="-10"/>
      <point x="234" y="-10" type="curve" smooth="yes"/>
      <point x="379" y="-10"/>
      <point x="426" y="91"/>
      <point x="437" y="166" type="curve" smooth="yes"/>
      <point x="439" y="180" type="line"/>
      <point x="399" y="180" type="line"/>
      <point x="389" y="102"/>
      <point x="347" y="28"/>
      <point x="234" y="28" type="curve" smooth="yes"/>
      <point x="115" y="28"/>
      <point x="63" y="121"/>
      <point x="81" y="262" type="curve" smooth="yes"/>
    </contour>
  </outline>
</glyph>
<glyph name="g" format="1">
  <advance width="525"/>
  <unicode hex="0067"/>
  <outline>
    <contour>
      <point x="365" y="-5" type="line" smooth="yes"/>
      <point x="352" y="-110"/>
      <point x="314" y="-172"/>
      <point x="192" y="-172" type="curve" smooth="yes"/>
      <point x="88" y="-172"/>
      <point x="37" y="-117"/>
      <point x="53" y="0" type="curve"/>
      <point x="16" y="0" type="line"/>
      <point x="14" y="-15" type="line" smooth="yes"/>
      <point x="-1" y="-125"/>
      <point x="47" y="-210"/>
      <point x="192" y="-210" type="curve" smooth="yes"/>
      <point x="337" y="-210"/>
      <point x="390" y="-120"/>
      <point x="404" y="-10" type="curve" smooth="yes"/>
      <point x="456" y="380" type="line"/>
      <point x="480" y="530" type="line"/>
      <point x="450" y="530" type="line"/>
      <point x="431" y="449" type="line"/>
      <point x="415" y="487"/>
      <point x="360" y="540"/>
      <point x="278" y="540" type="curve" smooth="yes"/>
      <point x="133" y="540"/>
      <point x="62" y="439"/>
      <point x="44" y="295" type="curve" smooth="yes"/>
      <point x="42" y="279" type="line" smooth="yes"/>
      <point x="25" y="145"/>
      <point x="72" y="30"/>
      <point x="227" y="30" type="curve" smooth="yes"/>
      <point x="293" y="30"/>
      <point x="348" y="61"/>
      <point x="378" y="100" type="curve"/>
    </contour>
    <contour>
      <point x="386" y="154" type="line"/>
      <point x="351" y="107"/>
      <point x="302" y="68"/>
      <point x="227" y="68" type="curve" smooth="yes"/>
      <point x="111" y="68"/>
      <point x="67" y="150"/>
      <point x="84" y="282" type="curve" smooth="yes"/>
      <point x="86" y="298" type="line" smooth="yes"/>
      <point x="102" y="429"/>
      <point x="165" y="502"/>
      <point x="278" y="502" type="curve" smooth="yes"/>
      <point x="356" y="502"/>
      <point x="400" y="448"/>
      <point x="419" y="404" type="curve"/>
    </contour>
  </outline>
</glyph>
<glyph name="h" format="1">
  <advance width="510"/>
  <unicode hex="0068"/>
  <outline>
    <contour>
      <point x="166" y="800" type="line"/>
      <point x="126" y="800" type="line"/>
      <point x="21" y="0" type="line"/>
      <point x="61" y="0" type="line"/>
      <point x="114" y="410" type="line"/>
      <point x="142" y="449"/>
      <point x="197" y="502"/>
      <point x="285" y="502" type="curve" smooth="yes"/>
      <point x="367" y="502"/>
      <point x="416" y="465"/>
      <point x="404" y="370" type="curve" smooth="yes"/>
      <point x="356" y="0" type="line"/>
      <point x="396" y="0" type="line"/>
      <point x="445" y="375" type="line" smooth="yes"/>
      <point x="458" y="477"/>
      <point x="403" y="540"/>
      <point x="290" y="540" type="curve" smooth="yes"/>
      <point x="214" y="540"/>
      <point x="152" y="503"/>
      <point x="121" y="460" type="curve"/>
    </contour>
  </outline>
</glyph>
<glyph name="i" format="1">
  <advance width="200"/>
  <unicode hex="0069"/>
  <outline>
    <contour>
      <point x="31" y="0" type="line"/>
      <point x="71" y="0" type="line"/>
      <point x="140" y="530" type="line"/>
      <point x="100" y="530" type="line"/>
    </contour>
    <contour>
      <point x="177" y="735" type="line"/>
      <point x="117" y="735" type="line"/>
      <point x="109" y="675" type="line"/>
      <point x="169" y="675" type="line"/>
    </contour>
  </outline>
</glyph>
<glyph name="j" format="1">
  <advance width="200"/>
  <unicode hex="006A"/>
  <outline>
    <contour>
      <point x="177" y="735" type="line"/>
      <point x="117" y="735" type="line"/>
      <point x="109" y="675" type="line"/>
      <point x="169" y="675" type="line"/>
    </contour>
    <contour>
      <point x="22" y="-67" type="line" smooth="yes"/>
      <point x="11" y="-149"/>
      <point x="-30" y="-172"/>
      <point x="-97" y="-172" type="curve" smooth="yes"/>
      <point x="-121" y="-172"/>
      <point x="-151" y="-167"/>
      <point x="-160" y="-163" type="curve"/>
      <point x="-165" y="-199" type="line"/>
      <point x="-158" y="-202"/>
      <point x="-131" y="-210"/>
      <point x="-97" y="-210" type="curve" smooth="yes"/>
      <point x="-11" y="-210"/>
      <point x="47" y="-173"/>
      <point x="60" y="-79" type="curve" smooth="yes"/>
      <point x="140" y="530" type="line"/>
      <point x="100" y="530" type="line"/>
    </contour>
  </outline>
</glyph>
<glyph name="l" format="1">
  <advance width="200"/>
  <unicode hex="006C"/>
  <outline>
    <contour>
      <point x="31" y="0" type="line"/>
      <point x="71" y="0" type="line"/>
      <point x="176" y="800" type="line"/>
      <point x="136" y="800" type="line"/>
    </contour>
  </outline>
</glyph>
<glyph name="m" format="1">
  <advance width="785"/>
  <unicode hex="006D"/>
  <outline>
    <contour>
      <point x="671" y="0" type="line"/>
      <point x="722" y="390" type="line" smooth="yes"/>
      <point x="735" y="490"/>
      <point x="673" y="540"/>
      <point x="583" y="540" type="curve" smooth="yes"/>
      <point x="510" y="540"/>
      <point x="451" y="499"/>
      <point x="415" y="451" type="curve"/>
      <point x="403" y="504"/>
      <point x="360" y="540"/>
      <point x="278" y="540" type="curve" smooth="yes"/>
      <point x="205" y="540"/>
      <point x="145" y="496"/>
      <point x="114" y="452" type="curve"/>
      <point x="115" y="530" type="line"/>
      <point x="85" y="530" type="line"/>
      <point x="71" y="380" type="line"/>
      <point x="21" y="0" type="line"/>
      <point x="61" y="0" type="line"/>
      <point x="114" y="410" type="line"/>
      <point x="142" y="449"/>
      <point x="200" y="502"/>
      <point x="273" y="502" type="curve" smooth="yes"/>
      <point x="343" y="502"/>
      <point x="388" y="475"/>
      <point x="376" y="385" type="curve" smooth="yes"/>
      <point x="326" y="0" type="line"/>
      <point x="366" y="0" type="line"/>
      <point x="419" y="410" type="line"/>
      <point x="447" y="449"/>
      <point x="505" y="502"/>
      <point x="578" y="502" type="curve" smooth="yes"/>
      <point x="643" y="502"/>
      <point x="693" y="475"/>
      <point x="681" y="385" type="curve" smooth="yes"/>
      <point x="631" y="0" type="line"/>
    </contour>
  </outline>
</glyph>
<glyph name="n" format="1">
  <advance width="510"/>
  <unicode hex="006E"/>
  <outline>
    <contour>
      <point x="396" y="0" type="line"/>
      <point x="445" y="375" type="line" smooth="yes"/>
      <point x="458" y="477"/>
      <point x="403" y="540"/>
      <point x="290" y="540" type="curve" smooth="yes"/>
      <point x="214" y="540"/>
      <point x="150" y="503"/>
      <point x="114" y="452" type="curve"/>
      <point x="115" y="530" type="line"/>
      <point x="85" y="530" type="line"/>
      <point x="71" y="380" type="line"/>
      <point x="21" y="0" type="line"/>
      <point x="61" y="0" type="line"/>
      <point x="114" y="410" type="line"/>
      <point x="142" y="449"/>
      <point x="197" y="502"/>
      <point x="285" y="502" type="curve" smooth="yes"/>
      <point x="367" y="502"/>
      <point x="416" y="465"/>
      <point x="404" y="370" type="curve" smooth="yes"/>
      <point x="356" y="0" type="line"/>
    </contour>
  </outline>
</glyph>
<glyph name="q" format="1">
  <advance width="525"/>
  <unicode hex="0071"/>
  <outline>
    <contour>
      <point x="339" y="-200" type="line"/>
      <point x="379" y="-200" type="line"/>
      <point x="456" y="380" type="line"/>
      <point x="480" y="530" type="line"/>
      <point x="450" y="530" type="line"/>
      <point x="431" y="449" type="line"/>
      <point x="415" y="487"/>
      <point x="360" y="540"/>
      <point x="278" y="540" type="curve" smooth="yes"/>
      <point x="133" y="540"/>
      <point x="60" y="430"/>
      <point x="41" y="275" type="curve" smooth="yes"/>
      <point x="39" y="259" type="line" smooth="yes"/>
      <point x="20" y="110"/>
      <point x="71" y="-10"/>
      <point x="222" y="-10" type="curve" smooth="yes"/>
      <point x="288" y="-10"/>
      <point x="343" y="21"/>
      <point x="373" y="60" type="curve"/>
    </contour>
    <contour>
      <point x="381" y="114" type="line"/>
      <point x="346" y="67"/>
      <point x="297" y="28"/>
      <point x="222" y="28" type="curve" smooth="yes"/>
      <point x="109" y="28"/>
      <point x="63" y="119"/>
      <point x="81" y="262" type="curve" smooth="yes"/>
      <point x="83" y="278" type="line" smooth="yes"/>
      <point x="100" y="416"/>
      <point x="165" y="502"/>
      <point x="278" y="502" type="curve" smooth="yes"/>
      <point x="356" y="502"/>
      <point x="400" y="448"/>
      <point x="419" y="404" type="curve"/>
    </contour>
  </outline>
</glyph>
<glyph name="r" format="1">
  <advance width="315"/>
  <unicode hex="0072"/>
  <outline>
    <contour>
      <point x="277" y="540" type="curve" smooth="yes"/>
      <point x="202" y="540"/>
      <point x="146" y="503"/>
      <point x="115" y="457" type="curve"/>
      <point x="115" y="530" type="line"/>
      <point x="85" y="530" type="line"/>
      <point x="71" y="380" type="line"/>
      <point x="21" y="0" type="line"/>
      <point x="61" y="0" type="line"/>
      <point x="114" y="410" type="line"/>
      <point x="141" y="451"/>
      <point x="192" y="502"/>
      <point x="277" y="502" type="curve" smooth="yes"/>
      <point x="287" y="502" type="line"/>
      <point x="291" y="539" type="line"/>
      <point x="291" y="539"/>
      <point x="284" y="540"/>
    </contour>
  </outline>
</glyph>
<glyph name="t" format="1">
  <advance width="390"/>
  <unicode hex="0074"/>
  <outline>
    <contour>
      <point x="180" y="530" type="line"/>
      <point x="200" y="680" type="line"/>
      <point x="160" y="680" type="line"/>
      <point x="140" y="530" type="line"/>
      <point x="55" y="530" type="line"/>
      <point x="50" y="492" type="line"/>
      <point x="135" y="492" type="line"/>
      <point x="88" y="135" type="line" smooth="yes"/>
      <point x="75" y="35"/>
      <point x="128" y="-10"/>
      <point x="212" y="-10" type="curve" smooth="yes"/>
      <point x="248" y="-10"/>
      <point x="273" y="-3"/>
      <point x="281" y="0" type="curve"/>
      <point x="285" y="37" type="line"/>
      <point x="275" y="34"/>
      <point x="241" y="28"/>
      <point x="212" y="28" type="curve" smooth="yes"/>
      <point x="158" y="28"/>
      <point x="117" y="51"/>
      <point x="129" y="140" type="curve" smooth="yes"/>
      <point x="175" y="492" type="line"/>
      <point x="355" y="492" type="line"/>
      <point x="360" y="530" type="line"/>
    </contour>
  </outline>
</glyph>
<glyph name="u" format="1">
  <advance width="510"/>
  <unicode hex="0075"/>
  <outline>
    <contour>
      <point x="85" y="530" type="line"/>
      <point x="36" y="155" type="line" smooth="yes"/>
      <point x="23" y="53"/>
      <point x="78" y="-10"/>
      <point x="191" y="-10" type="curve" smooth="yes"/>
      <point x="267" y="-10"/>
      <point x="331" y="27"/>
      <point x="367" y="78" type="curve"/>
      <point x="366" y="0" type="line"/>
      <point x="396" y="0" type="line"/>
      <point x="410" y="150" type="line"/>
      <point x="460" y="530" type="line"/>
      <point x="420" y="530" type="line"/>
      <point x="367" y="120" type="line"/>
      <point x="339" y="81"/>
      <point x="284" y="28"/>
      <point x="196" y="28" type="curve" smooth="yes"/>
      <point x="114" y="28"/>
      <point x="65" y="65"/>
      <point x="77" y="160" type="curve" smooth="yes"/>
      <point x="125" y="530" type="line"/>
    </contour>
  </outline>
</glyph>
<glyph name="v" format="1">
  <advance width="500"/>
  <unicode hex="0076"/>
  <outline>
    <contour>
      <point x="177" y="0" type="line"/>
      <point x="225" y="0" type="line"/>
      <point x="490" y="530" type="line"/>
      <point x="444" y="530" type="line"/>
      <point x="205" y="45" type="line"/>
      <point x="94" y="530" type="line"/>
      <point x="50" y="530" type="line"/>
    </contour>
  </outline>
</glyph>
<glyph name="x" format="1">
  <advance width="460"/>
  <unicode hex="0078"/>
  <outline>
    <contour>
      <point x="45" y="530" type="line"/>
      <point x="190" y="266" type="line"/>
      <point x="-24" y="0" type="line"/>
      <point x="29" y="0" type="line"/>
      <point x="212" y="226" type="line"/>
      <point x="337" y="0" type="line"/>
      <point x="386" y="0" type="line"/>
      <point x="240" y="264" type="line"/>
      <point x="455" y="530" type="line"/>
      <point x="404" y="530" type="line"/>
      <point x="218" y="300" type="line"/>
      <point x="92" y="530" type="line"/>
    </contour>
  </outline>
</glyph>
<glyph name="z" format="1">
  <advance width="446"/>
  <unicode hex="007A"/>
  <outline>
    <contour>
      <point x="-8" y="28" type="line"/>
      <point x="-11" y="0" type="line"/>
      <point x="359" y="0" type="line"/>
      <point x="364" y="38" type="line"/>
      <point x="164" y="38" type="line"/>
      <point x="43" y="37" type="line"/>
      <point x="415" y="502" type="line"/>
      <point x="418" y="530" type="line"/>
      <point x="68" y="530" type="line"/>
      <point x="63" y="492" type="line"/>
      <point x="243" y="492" type="line"/>
      <point x="364" y="493" type="line"/>
    </contour>
  </outline>
</glyph>
<glyph name="braceleft" format="1">
  <advance width="300"/>
  <unicode hex="007B"/>
  <outline>
    <contour>
      <point x="316" y="840" type="line"/>
      <point x="301" y="840" type="line" smooth="yes"/>
      <point x="246" y="840"/>
      <point x="174" y="817"/>
      <point x="160" y="715" type="curve" smooth="yes"/>
      <point x="127" y="470" type="line" smooth="yes"/>
      <point x="117" y="393"/>
      <point x="86" y="380"/>
      <point x="26" y="380" type="curve"/>
      <point x="20" y="340" type="line"/>
      <point x="80" y="340"/>
      <point x="109" y="327"/>
      <point x="98" y="250" type="curve" smooth="yes"/>
      <point x="66" y="5" type="line" smooth="yes"/>
      <point x="53" y="-95"/>
      <point x="118" y="-120"/>
      <point x="175" y="-120" type="curve" smooth="yes"/>
      <point x="190" y="-120" type="line"/>
      <point x="195" y="-80" type="line"/>
      <point x="121" y="-80"/>
      <point x="96" y="-66"/>
      <point x="109" y="30" type="curve" smooth="yes"/>
      <point x="140" y="262" type="line" smooth="yes"/>
      <point x="147" y="316"/>
      <point x="128" y="345"/>
      <point x="100" y="360" type="curve"/>
      <point x="132" y="374"/>
      <point x="159" y="403"/>
      <point x="166" y="458" type="curve" smooth="yes"/>
      <point x="196" y="690" type="line" smooth="yes"/>
      <point x="208" y="782"/>
      <point x="241" y="800"/>
      <point x="311" y="800" type="curve"/>
    </contour>
  </outline>
</glyph>
<glyph name="bar" format="1">
  <advance width="180"/>
  <unicode hex="007C"/>
  <outline>
    <contour>
      <point x="5" y="-120" type="line"/>
      <point x="45" y="-120" type="line"/>
      <point x="171" y="840" type="line"/>
      <point x="131" y="840" type="line"/>
    </contour>
  </outline>
</glyph>
<glyph name="braceright" format="1">
  <advance width="300"/>
  <unicode hex="007D"/>
  <outline>
    <contour>
      <point x="-20" y="-120" type="line"/>
      <point x="-5" y="-120" type="line" smooth="yes"/>
      <point x="50" y="-120"/>
      <point x="122" y="-97"/>
      <point x="136" y="5" type="curve" smooth="yes"/>
      <point x="169" y="250" type="line" smooth="yes"/>
      <point x="179" y="327"/>
      <point x="210" y="340"/>
      <point x="270" y="340" type="curve"/>
      <point x="276" y="380" type="line"/>
      <point x="216" y="380"/>
      <point x="187" y="393"/>
      <point x="198" y="470" type="curve" smooth="yes"/>
      <point x="230" y="715" type="line" smooth="yes"/>
      <point x="243" y="815"/>
      <point x="178" y="840"/>
      <point x="121" y="840" type="curve" smooth="yes"/>
      <point x="106" y="840" type="line"/>
      <point x="101" y="800" type="line"/>
      <point x="175" y="800"/>
      <point x="200" y="786"/>
      <point x="187" y="690" type="curve" smooth="yes"/>
      <point x="156" y="458" type="line" smooth="yes"/>
      <point x="149" y="404"/>
      <point x="168" y="375"/>
      <point x="196" y="360" type="curve"/>
      <point x="164" y="346"/>
      <point x="137" y="317"/>
      <point x="130" y="262" type="curve" smooth="yes"/>
      <point x="100" y="30" type="line" smooth="yes"/>
      <point x="88" y="-62"/>
      <point x="55" y="-80"/>
      <point x="-15" y="-80" type="curve"/>
    </contour>
  </outline>
</glyph>
<glyph name="asciitilde" format="1">
  <advance width="600"/>
  <unicode hex="007E"/>
  <outline>
    <contour>
      <point x="180" y="440" type="curve" smooth="yes"/>
      <point x="110" y="440"/>
      <point x="64" y="397"/>
      <point x="39" y="371" type="curve"/>
      <point x="67" y="343" type="line"/>
      <point x="89" y="367"/>
      <point x="131" y="402"/>
      <point x="176" y="402" type="curve" smooth="yes"/>
      <point x="271" y="402"/>
      <point x="314" y="329"/>
      <point x="422" y="329" type="curve" smooth="yes"/>
      <point x="492" y="329"/>
      <point x="538" y="372"/>
      <point x="563" y="398" type="curve"/>
      <point x="536" y="426" type="line"/>
      <point x="513" y="402"/>
      <point x="471" y="367"/>
      <point x="426" y="367" type="curve" smooth="yes"/>
      <point x="331" y="367"/>
      <point x="288" y="440"/>
    </contour>
  </outline>
</glyph>
<glyph name="exclamdown" format="1">
  <advance width="200"/>
  <unicode hex="00A1"/>
  <outline>
    <contour>
      <point x="47" y="-200" type="line"/>
      <point x="109" y="355" type="line"/>
      <point x="85" y="355" type="line"/>
      <point x="1" y="-200" type="line"/>
    </contour>
    <contour>
      <point x="150" y="530" type="line"/>
      <point x="90" y="530" type="line"/>
      <point x="83" y="470" type="line"/>
      <point x="143" y="470" type="line"/>
    </contour>
  </outline>
</glyph>
<glyph name="cent" format="1">
  <advance width="600"/>
  <unicode hex="00A2"/>
  <outline>
    <contour>
      <point x="484" y="840" type="line"/>
      <point x="444" y="840" type="line"/>
      <point x="401" y="723" type="line"/>
      <point x="389" y="725"/>
      <point x="375" y="726"/>
      <point x="353" y="726" type="curve" smooth="yes"/>
      <point x="200" y="726"/>
      <point x="99" y="605"/>
      <point x="73" y="397" type="curve" smooth="yes"/>
      <point x="71" y="381" type="line" smooth="yes"/>
      <point x="52" y="230"/>
      <point x="82" y="124"/>
      <point x="162" y="80" type="curve"/>
      <point x="111" y="-60" type="line"/>
      <point x="151" y="-60" type="line"/>
      <point x="197" y="66" type="line"/>
      <point x="219" y="59"/>
      <point x="254" y="56"/>
      <point x="282" y="56" type="curve" smooth="yes"/>
      <point x="424" y="56"/>
      <point x="498" y="148"/>
      <point x="515" y="264" type="curve" smooth="yes"/>
      <point x="517" y="278" type="line"/>
      <point x="476" y="278" type="line"/>
      <point x="462" y="170"/>
      <point x="408" y="96"/>
      <point x="284" y="96" type="curve" smooth="yes"/>
      <point x="280" y="96" type="line" smooth="yes"/>
      <point x="256" y="96"/>
      <point x="231" y="99"/>
      <point x="211" y="105" type="curve"/>
      <point x="424" y="677" type="line"/>
      <point x="494" y="654"/>
      <point x="517" y="588"/>
      <point x="503" y="481" type="curve"/>
      <point x="544" y="481" type="line"/>
      <point x="546" y="496" type="line" smooth="yes"/>
      <point x="560" y="601"/>
      <point x="530" y="686"/>
      <point x="438" y="715" type="curve"/>
    </contour>
    <contour>
      <point x="115" y="400" type="line" smooth="yes"/>
      <point x="139" y="590"/>
      <point x="221" y="686"/>
      <point x="350" y="686" type="curve" smooth="yes"/>
      <point x="356" y="686" type="line" smooth="yes"/>
      <point x="366" y="686"/>
      <point x="378" y="685"/>
      <point x="387" y="684" type="curve"/>
      <point x="178" y="122" type="line"/>
      <point x="118" y="161"/>
      <point x="97" y="253"/>
      <point x="113" y="384" type="curve" smooth="yes"/>
    </contour>
  </outline>
</glyph>
<glyph name="sterling" format="1">
  <advance width="600"/>
  <unicode hex="00A3"/>
  <outline>
    <contour>
      <point x="370" y="752" type="curve" smooth="yes"/>
      <point x="499" y="752"/>
      <point x="545" y="652"/>
      <point x="521" y="500" type="curve"/>
      <point x="561" y="500" type="line"/>
      <point x="564" y="519" type="line" smooth="yes"/>
      <point x="588" y="670"/>
      <point x="536" y="790"/>
      <point x="370" y="790" type="curve" smooth="yes"/>
      <point x="218" y="790"/>
      <point x="145" y="691"/>
      <point x="145" y="503" type="curve" smooth="yes"/>
      <point x="145" y="462"/>
      <point x="147" y="434"/>
      <point x="149" y="410" type="curve"/>
      <point x="64" y="410" type="line"/>
      <point x="59" y="370" type="line"/>
      <point x="154" y="370" type="line"/>
      <point x="168" y="263"/>
      <point x="192" y="159"/>
      <point x="185" y="40" type="curve"/>
      <point x="16" y="40" type="line"/>
      <point x="11" y="0" type="line"/>
      <point x="491" y="0" type="line"/>
      <point x="496" y="40" type="line"/>
      <point x="222" y="40" type="line"/>
      <point x="232" y="151"/>
      <point x="214" y="267"/>
      <point x="200" y="370" type="curve"/>
      <point x="399" y="370" type="line"/>
      <point x="404" y="410" type="line"/>
      <point x="195" y="410" type="line"/>
      <point x="191" y="443"/>
      <point x="189" y="479"/>
      <point x="189" y="503" type="curve" smooth="yes"/>
      <point x="189" y="654"/>
      <point x="238" y="752"/>
    </contour>
  </outline>
</glyph>
<glyph name="yen" format="1">
  <advance width="600"/>
  <unicode hex="00A5"/>
  <outline>
    <contour>
      <point x="53" y="440" type="line"/>
      <point x="195" y="440" type="line"/>
      <point x="252" y="280" type="line"/>
      <point x="32" y="280" type="line"/>
      <point x="27" y="240" type="line"/>
      <point x="262" y="240" type="line"/>
      <point x="231" y="0" type="line"/>
      <point x="271" y="0" type="line"/>
      <point x="302" y="240" type="line"/>
      <point x="537" y="240" type="line"/>
      <point x="542" y="280" type="line"/>
      <point x="321" y="280" type="line"/>
      <point x="421" y="440" type="line"/>
      <point x="563" y="440" type="line"/>
      <point x="569" y="480" type="line"/>
      <point x="446" y="480" type="line"/>
      <point x="633" y="780" type="line"/>
      <point x="586" y="780" type="line"/>
      <point x="288" y="299" type="line"/>
      <point x="116" y="780" type="line"/>
      <point x="73" y="780" type="line"/>
      <point x="181" y="480" type="line"/>
      <point x="59" y="480" type="line"/>
    </contour>
  </outline>
</glyph>
<glyph name="brokenbar" format="1">
  <advance width="180"/>
  <unicode hex="00A6"/>
  <outline>
    <contour>
      <point x="73" y="400" type="line"/>
      <point x="113" y="400" type="line"/>
      <point x="171" y="840" type="line"/>
      <point x="131" y="840" type="line"/>
    </contour>
    <contour>
      <point x="5" y="-120" type="line"/>
      <point x="45" y="-120" type="line"/>
      <point x="103" y="320" type="line"/>
      <point x="63" y="320" type="line"/>
    </contour>
  </outline>
</glyph>
<glyph name="section" format="1">
  <advance width="500"/>
  <unicode hex="00A7"/>
  <outline>
    <contour>
      <point x="236" y="279" type="line" smooth="yes"/>
      <point x="147" y="279"/>
      <point x="87" y="302"/>
      <point x="87" y="369" type="curve" smooth="yes"/>
      <point x="87" y="448"/>
      <point x="147" y="501"/>
      <point x="255" y="501" type="curve" smooth="yes"/>
      <point x="268" y="501" type="line" smooth="yes"/>
      <point x="357" y="501"/>
      <point x="417" y="478"/>
      <point x="417" y="411" type="curve" smooth="yes"/>
      <point x="417" y="332"/>
      <point x="357" y="279"/>
      <point x="249" y="279" type="curve" smooth="yes"/>
    </contour>
    <contour>
      <point x="210" y="244" type="curve" smooth="yes"/>
      <point x="327" y="235"/>
      <point x="357" y="217"/>
      <point x="357" y="155" type="curve" smooth="yes"/>
      <point x="357" y="73"/>
      <point x="301" y="28"/>
      <point x="201" y="28" type="curve" smooth="yes"/>
      <point x="85" y="28"/>
      <point x="52" y="83"/>
      <point x="63" y="170" type="curve"/>
      <point x="23" y="170" type="line"/>
      <point x="22" y="159" type="line" smooth="yes"/>
      <point x="13" y="59"/>
      <point x="55" y="-10"/>
      <point x="201" y="-10" type="curve" smooth="yes"/>
      <point x="327" y="-10"/>
      <point x="387" y="51"/>
      <point x="397" y="129" type="curve" smooth="yes"/>
      <point x="398" y="137" type="line" smooth="yes"/>
      <point x="405" y="192"/>
      <point x="390" y="239"/>
      <point x="334" y="257" type="curve"/>
      <point x="408" y="278"/>
      <point x="448" y="322"/>
      <point x="456" y="384" type="curve" smooth="yes"/>
      <point x="457" y="392" type="line" smooth="yes"/>
      <point x="467" y="473"/>
      <point x="426" y="526"/>
      <point x="294" y="536" type="curve" smooth="yes"/>
      <point x="177" y="545"/>
      <point x="147" y="563"/>
      <point x="147" y="625" type="curve" smooth="yes"/>
      <point x="147" y="707"/>
      <point x="203" y="752"/>
      <point x="303" y="752" type="curve" smooth="yes"/>
      <point x="419" y="752"/>
      <point x="452" y="697"/>
      <point x="441" y="610" type="curve"/>
      <point x="481" y="610" type="line"/>
      <point x="482" y="621" type="line" smooth="yes"/>
      <point x="491" y="721"/>
      <point x="449" y="790"/>
      <point x="303" y="790" type="curve" smooth="yes"/>
      <point x="177" y="790"/>
      <point x="117" y="729"/>
      <point x="107" y="651" type="curve" smooth="yes"/>
      <point x="106" y="643" type="line" smooth="yes"/>
      <point x="99" y="588"/>
      <point x="114" y="541"/>
      <point x="170" y="523" type="curve"/>
      <point x="96" y="502"/>
      <point x="56" y="458"/>
      <point x="48" y="396" type="curve" smooth="yes"/>
      <point x="47" y="388" type="line" smooth="yes"/>
      <point x="37" y="307"/>
      <point x="78" y="254"/>
    </contour>
  </outline>
</glyph>
<glyph name="dieresis" format="1">
  <advance width="500"/>
  <unicode hex="00A8"/>
  <outline>
    <contour>
      <point x="252" y="735" type="line"/>
      <point x="192" y="735" type="line"/>
      <point x="184" y="675" type="line"/>
      <point x="244" y="675" type="line"/>
    </contour>
    <contour>
      <point x="402" y="735" type="line"/>
      <point x="342" y="735" type="line"/>
      <point x="334" y="675" type="line"/>
      <point x="394" y="675" type="line"/>
    </contour>
  </outline>
</glyph>
<glyph name="copyright" format="1">
  <advance width="920"/>
  <unicode hex="00A9"/>
  <outline>
    <contour>
      <point x="460" y="185" type="curve" smooth="yes"/>
      <point x="341" y="185"/>
      <point x="297" y="287"/>
      <point x="297" y="380" type="curve" smooth="yes"/>
      <point x="297" y="400" type="line" smooth="yes"/>
      <point x="297" y="493"/>
      <point x="341" y="595"/>
      <point x="460" y="595" type="curve" smooth="yes"/>
      <point x="572" y="595"/>
      <point x="605" y="525"/>
      <point x="605" y="465" type="curve"/>
      <point x="645" y="465" type="line"/>
      <point x="645" y="480" type="line" smooth="yes"/>
      <point x="645" y="530"/>
      <point x="604" y="635"/>
      <point x="460" y="635" type="curve" smooth="yes"/>
      <point x="309" y="635"/>
      <point x="255" y="503"/>
      <point x="255" y="400" type="curve" smooth="yes"/>
      <point x="255" y="380" type="line" smooth="yes"/>
      <point x="255" y="277"/>
      <point x="309" y="145"/>
      <point x="460" y="145" type="curve" smooth="yes"/>
      <point x="604" y="145"/>
      <point x="645" y="245"/>
      <point x="645" y="295" type="curve" smooth="yes"/>
      <point x="645" y="305" type="line"/>
      <point x="605" y="305" type="line"/>
      <point x="605" y="257"/>
      <point x="576" y="185"/>
    </contour>
    <contour>
      <point x="60" y="390" type="curve" smooth="yes"/>
      <point x="60" y="169"/>
      <point x="239" y="-10"/>
      <point x="460" y="-10" type="curve" smooth="yes"/>
      <point x="681" y="-10"/>
      <point x="860" y="169"/>
      <point x="860" y="390" type="curve" smooth="yes"/>
      <point x="860" y="611"/>
      <point x="681" y="790"/>
      <point x="460" y="790" type="curve" smooth="yes"/>
      <point x="239" y="790"/>
      <point x="60" y="611"/>
    </contour>
    <contour>
      <point x="100" y="390" type="curve" smooth="yes"/>
      <point x="100" y="589"/>
      <point x="261" y="750"/>
      <point x="460" y="750" type="curve" smooth="yes"/>
      <point x="659" y="750"/>
      <point x="820" y="589"/>
      <point x="820" y="390" type="curve" smooth="yes"/>
      <point x="820" y="191"/>
      <point x="659" y="30"/>
      <point x="460" y="30" type="curve" smooth="yes"/>
      <point x="261" y="30"/>
      <point x="100" y="191"/>
    </contour>
  </outline>
</glyph>
<glyph name="ordfeminine" format="1">
  <advance width="377"/>
  <unicode hex="00AA"/>
  <outline>
    <contour>
      <point x="308" y="388" type="line"/>
      <point x="337" y="388" type="line"/>
      <point x="347" y="499" type="line"/>
      <point x="366" y="645" type="line" smooth="yes"/>
      <point x="377" y="728"/>
      <point x="356" y="790"/>
      <point x="242" y="790" type="curve" smooth="yes"/>
      <point x="138" y="790"/>
      <point x="103" y="722"/>
      <point x="94" y="659" type="curve" smooth="yes"/>
      <point x="93" y="652" type="line"/>
      <point x="130" y="652" type="line"/>
      <point x="137" y="713"/>
      <point x="169" y="756"/>
      <point x="240" y="756" type="curve" smooth="yes"/>
      <point x="323" y="756"/>
      <point x="338" y="716"/>
      <point x="328" y="645" type="curve" smooth="yes"/>
      <point x="326" y="631" type="line"/>
      <point x="200" y="612" type="line" smooth="yes"/>
      <point x="138" y="603"/>
      <point x="68" y="584"/>
      <point x="57" y="498" type="curve" smooth="yes"/>
      <point x="56" y="490" type="line" smooth="yes"/>
      <point x="48" y="426"/>
      <point x="89" y="380"/>
      <point x="165" y="380" type="curve" smooth="yes"/>
      <point x="230" y="380"/>
      <point x="277" y="411"/>
      <point x="307" y="445" type="curve"/>
    </contour>
    <contour>
      <point x="165" y="414" type="curve" smooth="yes"/>
      <point x="112" y="414"/>
      <point x="90" y="452"/>
      <point x="95" y="490" type="curve" smooth="yes"/>
      <point x="96" y="498" type="line" smooth="yes"/>
      <point x="102" y="547"/>
      <point x="135" y="570"/>
      <point x="196" y="580" type="curve" smooth="yes"/>
      <point x="322" y="600" type="line"/>
      <point x="307" y="483" type="line"/>
      <point x="289" y="459"/>
      <point x="245" y="414"/>
    </contour>
    <contour>
      <point x="30" y="223" type="line"/>
      <point x="315" y="223" type="line"/>
      <point x="319" y="258" type="line"/>
      <point x="34" y="258" type="line"/>
    </contour>
  </outline>
</glyph>
<glyph name="guillemotleft" format="1">
  <advance width="500"/>
  <unicode hex="00AB"/>
  <outline>
    <contour>
      <point x="268" y="510" type="line"/>
      <point x="47" y="355" type="line"/>
      <point x="43" y="325" type="line"/>
      <point x="223" y="170" type="line"/>
      <point x="229" y="212" type="line"/>
      <point x="82" y="337" type="line"/>
      <point x="262" y="462" type="line"/>
    </contour>
    <contour>
      <point x="468" y="510" type="line"/>
      <point x="247" y="355" type="line"/>
      <point x="243" y="325" type="line"/>
      <point x="423" y="170" type="line"/>
      <point x="429" y="212" type="line"/>
      <point x="282" y="337" type="line"/>
      <point x="462" y="462" type="line"/>
    </contour>
  </outline>
</glyph>
<glyph name="logicalnot" format="1">
  <advance width="600"/>
  <unicode hex="00AC"/>
  <outline>
    <contour>
      <point x="67" y="510" type="line"/>
      <point x="527" y="510" type="line"/>
      <point x="488" y="220" type="line"/>
      <point x="528" y="220" type="line"/>
      <point x="572" y="550" type="line"/>
      <point x="72" y="550" type="line"/>
    </contour>
  </outline>
</glyph>
<glyph name="uni00AD" format="1">
  <advance width="320"/>
  <unicode hex="00AD"/>
  <outline>
    <contour>
      <point x="34" y="331" type="line"/>
      <point x="274" y="331" type="line"/>
      <point x="279" y="369" type="line"/>
      <point x="39" y="369" type="line"/>
    </contour>
  </outline>
</glyph>
<glyph name="registered" format="1">
  <advance width="330"/>
  <unicode hex="00AE"/>
  <outline>
    <contour>
      <point x="20" y="665" type="curve" smooth="yes"/>
      <point x="20" y="585"/>
      <point x="85" y="520"/>
      <point x="165" y="520" type="curve" smooth="yes"/>
      <point x="245" y="520"/>
      <point x="310" y="585"/>
      <point x="310" y="665" type="curve" smooth="yes"/>
      <point x="310" y="745"/>
      <point x="245" y="810"/>
      <point x="165" y="810" type="curve" smooth="yes"/>
      <point x="85" y="810"/>
      <point x="20" y="745"/>
    </contour>
    <contour>
      <point x="44" y="665" type="curve" smooth="yes"/>
      <point x="44" y="732"/>
      <point x="98" y="786"/>
      <point x="165" y="786" type="curve" smooth="yes"/>
      <point x="232" y="786"/>
      <point x="286" y="732"/>
      <point x="286" y="665" type="curve" smooth="yes"/>
      <point x="286" y="598"/>
      <point x="232" y="544"/>
      <point x="165" y="544" type="curve" smooth="yes"/>
      <point x="98" y="544"/>
      <point x="44" y="598"/>
    </contour>
    <contour>
      <point x="225" y="694" type="curve" smooth="yes"/>
      <point x="225" y="702" type="line" smooth="yes"/>
      <point x="225" y="733"/>
      <point x="203" y="751"/>
      <point x="171" y="751" type="curve" smooth="yes"/>
      <point x="105" y="751" type="line"/>
      <point x="105" y="579" type="line"/>
      <point x="133" y="579" type="line"/>
      <point x="133" y="645" type="line"/>
      <point x="168" y="645" type="line"/>
      <point x="196" y="579" type="line"/>
      <point x="225" y="579" type="line"/>
      <point x="194" y="648" type="line"/>
      <point x="213" y="655"/>
      <point x="225" y="671"/>
    </contour>
    <contour>
      <point x="197" y="700" type="curve" smooth="yes"/>
      <point x="197" y="696" type="line" smooth="yes"/>
      <point x="197" y="679"/>
      <point x="186" y="671"/>
      <point x="166" y="671" type="curve" smooth="yes"/>
      <point x="133" y="671" type="line"/>
      <point x="133" y="725" type="line"/>
      <point x="166" y="725" type="line" smooth="yes"/>
      <point x="186" y="725"/>
      <point x="197" y="717"/>
    </contour>
  </outline>
</glyph>
<glyph name="macron" format="1">
  <advance width="500"/>
  <unicode hex="00AF"/>
  <outline>
    <contour>
      <point x="185" y="680" type="line"/>
      <point x="395" y="680" type="line"/>
      <point x="400" y="720" type="line"/>
      <point x="190" y="720" type="line"/>
    </contour>
  </outline>
</glyph>
<glyph name="degree" format="1">
  <advance width="400"/>
  <unicode hex="00B0"/>
  <outline>
    <contour>
      <point x="218" y="528" type="line" smooth="yes"/>
      <point x="149" y="528"/>
      <point x="114" y="573"/>
      <point x="122" y="636" type="curve" smooth="yes"/>
      <point x="123" y="644" type="line" smooth="yes"/>
      <point x="132" y="718"/>
      <point x="182" y="752"/>
      <point x="245" y="752" type="curve" smooth="yes"/>
      <point x="251" y="752" type="line" smooth="yes"/>
      <point x="320" y="752"/>
      <point x="355" y="707"/>
      <point x="347" y="644" type="curve" smooth="yes"/>
      <point x="346" y="636" type="line" smooth="yes"/>
      <point x="337" y="562"/>
      <point x="287" y="528"/>
      <point x="224" y="528" type="curve" smooth="yes"/>
    </contour>
    <contour>
      <point x="248" y="790" type="curve" smooth="yes"/>
      <point x="160" y="790"/>
      <point x="97" y="740"/>
      <point x="85" y="644" type="curve" smooth="yes"/>
      <point x="84" y="636" type="line" smooth="yes"/>
      <point x="72" y="542"/>
      <point x="129" y="490"/>
      <point x="221" y="490" type="curve" smooth="yes"/>
      <point x="309" y="490"/>
      <point x="372" y="540"/>
      <point x="384" y="636" type="curve" smooth="yes"/>
      <point x="385" y="644" type="line" smooth="yes"/>
      <point x="397" y="738"/>
      <point x="340" y="790"/>
    </contour>
  </outline>
</glyph>
<glyph name="plusminus" format="1">
  <advance width="600"/>
  <unicode hex="00B1"/>
  <outline>
    <contour>
      <point x="314" y="640" type="line"/>
      <point x="294" y="490" type="line"/>
      <point x="64" y="490" type="line"/>
      <point x="59" y="450" type="line"/>
      <point x="289" y="450" type="line"/>
      <point x="269" y="300" type="line"/>
      <point x="309" y="300" type="line"/>
      <point x="329" y="450" type="line"/>
      <point x="559" y="450" type="line"/>
      <point x="564" y="490" type="line"/>
      <point x="334" y="490" type="line"/>
      <point x="354" y="640" type="line"/>
    </contour>
    <contour>
      <point x="22" y="170" type="line"/>
      <point x="522" y="170" type="line"/>
      <point x="527" y="210" type="line"/>
      <point x="27" y="210" type="line"/>
    </contour>
  </outline>
</glyph>
<glyph name="twosuperior" format="1">
  <advance width="300"/>
  <unicode hex="00B2"/>
  <outline>
    <contour>
      <point x="278" y="422" type="line"/>
      <point x="88" y="422" type="line"/>
      <point x="252" y="575" type="line" smooth="yes"/>
      <point x="284" y="605"/>
      <point x="306" y="627"/>
      <point x="311" y="670" type="curve" smooth="yes"/>
      <point x="312" y="678" type="line" smooth="yes"/>
      <point x="320" y="741"/>
      <point x="284" y="785"/>
      <point x="199" y="785" type="curve" smooth="yes"/>
      <point x="120" y="785"/>
      <point x="76" y="743"/>
      <point x="66" y="665" type="curve" smooth="yes"/>
      <point x="64" y="650" type="line"/>
      <point x="99" y="650" type="line"/>
      <point x="109" y="723"/>
      <point x="141" y="753"/>
      <point x="197" y="753" type="curve" smooth="yes"/>
      <point x="201" y="753" type="line" smooth="yes"/>
      <point x="252" y="753"/>
      <point x="282" y="727"/>
      <point x="276" y="678" type="curve" smooth="yes"/>
      <point x="275" y="670" type="line" smooth="yes"/>
      <point x="271" y="637"/>
      <point x="253" y="618"/>
      <point x="224" y="591" type="curve" smooth="yes"/>
      <point x="33" y="412" type="line"/>
      <point x="30" y="390" type="line"/>
      <point x="274" y="390" type="line"/>
    </contour>
  </outline>
</glyph>
<glyph name="acute" format="1">
  <advance width="500"/>
  <unicode hex="00B4"/>
  <outline>
    <contour>
      <point x="372" y="780" type="line"/>
      <point x="261" y="620" type="line"/>
      <point x="303" y="620" type="line"/>
      <point x="414" y="780" type="line"/>
    </contour>
  </outline>
</glyph>
<glyph name="paragraph" format="1">
  <advance width="500"/>
  <unicode hex="00B6"/>
  <outline>
    <contour>
      <point x="270" y="368" type="line" smooth="yes"/>
      <point x="194" y="368"/>
      <point x="86" y="398"/>
      <point x="105" y="549" type="curve" smooth="yes"/>
      <point x="108" y="573" type="line" smooth="yes"/>
      <point x="126" y="718"/>
      <point x="237" y="742"/>
      <point x="311" y="742" type="curve" smooth="yes"/>
      <point x="328" y="742" type="line"/>
      <point x="279" y="368" type="line"/>
    </contour>
    <contour>
      <point x="368" y="742" type="line"/>
      <point x="438" y="742" type="line"/>
      <point x="341" y="0" type="line"/>
      <point x="381" y="0" type="line"/>
      <point x="483" y="780" type="line"/>
      <point x="316" y="780" type="line" smooth="yes"/>
      <point x="207" y="780"/>
      <point x="86" y="734"/>
      <point x="66" y="573" type="curve" smooth="yes"/>
      <point x="63" y="549" type="line" smooth="yes"/>
      <point x="42" y="379"/>
      <point x="161" y="330"/>
      <point x="267" y="330" type="curve" smooth="yes"/>
      <point x="274" y="330" type="line"/>
      <point x="231" y="0" type="line"/>
      <point x="271" y="0" type="line"/>
    </contour>
  </outline>
</glyph>
<glyph name="periodcentered" format="1">
  <advance width="200"/>
  <unicode hex="00B7"/>
  <outline>
    <contour>
      <point x="131" y="380" type="line"/>
      <point x="71" y="380" type="line"/>
      <point x="63" y="320" type="line"/>
      <point x="123" y="320" type="line"/>
    </contour>
  </outline>
</glyph>
<glyph name="cedilla" format="1">
  <advance width="602"/>
  <unicode hex="00B8"/>
  <outline>
    <contour>
      <point x="90" y="-183" type="line"/>
      <point x="108" y="-197"/>
      <point x="144" y="-210"/>
      <point x="177" y="-210" type="curve" smooth="yes"/>
      <point x="232" y="-210"/>
      <point x="278" y="-188"/>
      <point x="278" y="-130" type="curve" smooth="yes"/>
      <point x="278" y="-78"/>
      <point x="232" y="-64"/>
      <point x="193" y="-64" type="curve" smooth="yes"/>
      <point x="188" y="-64" type="line"/>
      <point x="221" y="0" type="line"/>
      <point x="185" y="0" type="line"/>
      <point x="143" y="-83" type="line"/>
      <point x="157" y="-99" type="line"/>
      <point x="157" y="-99"/>
      <point x="170" y="-97"/>
      <point x="185" y="-97" type="curve" smooth="yes"/>
      <point x="215" y="-97"/>
      <point x="244" y="-104"/>
      <point x="244" y="-134" type="curve" smooth="yes"/>
      <point x="244" y="-164"/>
      <point x="219" y="-177"/>
      <point x="177" y="-177" type="curve" smooth="yes"/>
      <point x="146" y="-177"/>
      <point x="120" y="-166"/>
      <point x="105" y="-155" type="curve"/>
    </contour>
  </outline>
</glyph>
<glyph name="onesuperior" format="1">
  <advance width="300"/>
  <unicode hex="00B9"/>
  <outline>
    <contour>
      <point x="276" y="390" type="line"/>
      <point x="280" y="422" type="line"/>
      <point x="179" y="422" type="line"/>
      <point x="226" y="782" type="line"/>
      <point x="203" y="782" type="line"/>
      <point x="70" y="699" type="line"/>
      <point x="84" y="671" type="line"/>
      <point x="184" y="733" type="line"/>
      <point x="143" y="422" type="line"/>
      <point x="41" y="422" type="line"/>
      <point x="37" y="390" type="line"/>
    </contour>
  </outline>
</glyph>
<glyph name="ordmasculine" format="1">
  <advance width="410"/>
  <unicode hex="00BA"/>
  <outline>
    <contour>
      <point x="396" y="593" type="line" smooth="yes"/>
      <point x="410" y="702"/>
      <point x="375" y="790"/>
      <point x="254" y="790" type="curve" smooth="yes"/>
      <point x="149" y="790"/>
      <point x="87" y="713"/>
      <point x="72" y="593" type="curve" smooth="yes"/>
      <point x="70" y="577" type="line" smooth="yes"/>
      <point x="56" y="468"/>
      <point x="91" y="380"/>
      <point x="212" y="380" type="curve" smooth="yes"/>
      <point x="317" y="380"/>
      <point x="379" y="457"/>
      <point x="394" y="577" type="curve" smooth="yes"/>
    </contour>
    <contour>
      <point x="110" y="593" type="line" smooth="yes"/>
      <point x="122" y="687"/>
      <point x="169" y="755"/>
      <point x="254" y="755" type="curve" smooth="yes"/>
      <point x="339" y="755"/>
      <point x="370" y="690"/>
      <point x="358" y="593" type="curve" smooth="yes"/>
      <point x="356" y="577" type="line" smooth="yes"/>
      <point x="344" y="483"/>
      <point x="297" y="415"/>
      <point x="212" y="415" type="curve" smooth="yes"/>
      <point x="127" y="415"/>
      <point x="96" y="480"/>
      <point x="108" y="577" type="curve" smooth="yes"/>
    </contour>
    <contour>
      <point x="30" y="223" type="line"/>
      <point x="340" y="223" type="line"/>
      <point x="344" y="258" type="line"/>
      <point x="34" y="258" type="line"/>
    </contour>
  </outline>
</glyph>
<glyph name="guillemotright" format="1">
  <advance width="500"/>
  <unicode hex="00BB"/>
  <outline>
    <contour>
      <point x="262" y="468" type="line"/>
      <point x="408" y="343" type="line"/>
      <point x="229" y="218" type="line"/>
      <point x="223" y="170" type="line"/>
      <point x="443" y="325" type="line"/>
      <point x="447" y="355" type="line"/>
      <point x="268" y="510" type="line"/>
    </contour>
    <contour>
      <point x="62" y="468" type="line"/>
      <point x="208" y="343" type="line"/>
      <point x="29" y="218" type="line"/>
      <point x="23" y="170" type="line"/>
      <point x="243" y="325" type="line"/>
      <point x="247" y="355" type="line"/>
      <point x="68" y="510" type="line"/>
    </contour>
  </outline>
</glyph>
<glyph name="onequarter" format="1">
  <advance width="800"/>
  <unicode hex="00BC"/>
  <outline>
    <contour>
      <point x="276" y="390" type="line"/>
      <point x="280" y="422" type="line"/>
      <point x="179" y="422" type="line"/>
      <point x="226" y="782" type="line"/>
      <point x="203" y="782" type="line"/>
      <point x="70" y="699" type="line"/>
      <point x="84" y="671" type="line"/>
      <point x="184" y="733" type="line"/>
      <point x="143" y="422" type="line"/>
      <point x="41" y="422" type="line"/>
      <point x="37" y="390" type="line"/>
    </contour>
    <contour>
      <point x="86" y="0" type="line"/>
      <point x="764" y="780" type="line"/>
      <point x="718" y="780" type="line"/>
      <point x="40" y="0" type="line"/>
    </contour>
    <contour>
      <point x="670" y="0" type="line"/>
      <point x="683" y="103" type="line"/>
      <point x="747" y="103" type="line"/>
      <point x="752" y="136" type="line"/>
      <point x="688" y="136" type="line"/>
      <point x="721" y="390" type="line"/>
      <point x="686" y="390" type="line"/>
      <point x="484" y="127" type="line"/>
      <point x="480" y="103" type="line"/>
      <point x="647" y="103" type="line"/>
      <point x="634" y="0" type="line"/>
    </contour>
    <contour>
      <point x="678" y="329" type="line"/>
      <point x="670" y="278" type="line"/>
      <point x="652" y="136" type="line"/>
      <point x="572" y="136" type="line"/>
      <point x="529" y="135" type="line"/>
    </contour>
  </outline>
</glyph>
<glyph name="onehalf" format="1">
  <advance width="800"/>
  <unicode hex="00BD"/>
  <outline>
    <contour>
      <point x="276" y="390" type="line"/>
      <point x="280" y="422" type="line"/>
      <point x="179" y="422" type="line"/>
      <point x="226" y="782" type="line"/>
      <point x="203" y="782" type="line"/>
      <point x="70" y="699" type="line"/>
      <point x="84" y="671" type="line"/>
      <point x="184" y="733" type="line"/>
      <point x="143" y="422" type="line"/>
      <point x="41" y="422" type="line"/>
      <point x="37" y="390" type="line"/>
    </contour>
    <contour>
      <point x="86" y="0" type="line"/>
      <point x="764" y="780" type="line"/>
      <point x="718" y="780" type="line"/>
      <point x="40" y="0" type="line"/>
    </contour>
    <contour>
      <point x="727" y="32" type="line"/>
      <point x="537" y="32" type="line"/>
      <point x="701" y="185" type="line" smooth="yes"/>
      <point x="733" y="215"/>
      <point x="755" y="237"/>
      <point x="760" y="280" type="curve" smooth="yes"/>
      <point x="761" y="288" type="line" smooth="yes"/>
      <point x="769" y="351"/>
      <point x="733" y="395"/>
      <point x="648" y="395" type="curve" smooth="yes"/>
      <point x="569" y="395"/>
      <point x="525" y="353"/>
      <point x="515" y="275" type="curve" smooth="yes"/>
      <point x="513" y="260" type="line"/>
      <point x="548" y="260" type="line"/>
      <point x="558" y="333"/>
      <point x="590" y="363"/>
      <point x="646" y="363" type="curve" smooth="yes"/>
      <point x="650" y="363" type="line" smooth="yes"/>
      <point x="701" y="363"/>
      <point x="731" y="337"/>
      <point x="725" y="288" type="curve" smooth="yes"/>
      <point x="724" y="280" type="line" smooth="yes"/>
      <point x="720" y="247"/>
      <point x="702" y="228"/>
      <point x="673" y="201" type="curve" smooth="yes"/>
      <point x="482" y="22" type="line"/>
      <point x="479" y="0" type="line"/>
      <point x="723" y="0" type="line"/>
    </contour>
  </outline>
</glyph>
<glyph name="threequarters" format="1">
  <advance width="800"/>
  <unicode hex="00BE"/>
  <outline>
    <contour>
      <point x="79" y="515" type="curve"/>
      <point x="43" y="515" type="line"/>
      <point x="42" y="507" type="line" smooth="yes"/>
      <point x="32" y="430"/>
      <point x="74" y="384"/>
      <point x="159" y="384" type="curve" smooth="yes"/>
      <point x="232" y="384"/>
      <point x="280" y="424"/>
      <point x="288" y="486" type="curve" smooth="yes"/>
      <point x="289" y="494" type="line" smooth="yes"/>
      <point x="295" y="542"/>
      <point x="273" y="579"/>
      <point x="238" y="589" type="curve"/>
      <point x="277" y="599"/>
      <point x="305" y="624"/>
      <point x="311" y="670" type="curve" smooth="yes"/>
      <point x="312" y="678" type="line" smooth="yes"/>
      <point x="320" y="741"/>
      <point x="283" y="785"/>
      <point x="199" y="785" type="curve" smooth="yes"/>
      <point x="119" y="785"/>
      <point x="76" y="743"/>
      <point x="66" y="665" type="curve" smooth="yes"/>
      <point x="64" y="650" type="line"/>
      <point x="99" y="650" type="line"/>
      <point x="109" y="723"/>
      <point x="141" y="753"/>
      <point x="197" y="753" type="curve" smooth="yes"/>
      <point x="201" y="753" type="line" smooth="yes"/>
      <point x="252" y="753"/>
      <point x="282" y="727"/>
      <point x="276" y="678" type="curve" smooth="yes"/>
      <point x="275" y="670" type="line" smooth="yes"/>
      <point x="269" y="624"/>
      <point x="230" y="605"/>
      <point x="185" y="605" type="curve" smooth="yes"/>
      <point x="130" y="605" type="line"/>
      <point x="126" y="573" type="line"/>
      <point x="183" y="573" type="line" smooth="yes"/>
      <point x="229" y="573"/>
      <point x="259" y="544"/>
      <point x="253" y="494" type="curve" smooth="yes"/>
      <point x="252" y="486" type="line" smooth="yes"/>
      <point x="246" y="435"/>
      <point x="207" y="416"/>
      <point x="162" y="416" type="curve" smooth="yes"/>
      <point x="156" y="416" type="line" smooth="yes"/>
      <point x="102" y="416"/>
      <point x="70" y="447"/>
    </contour>
    <contour>
      <point x="86" y="0" type="line"/>
      <point x="764" y="780" type="line"/>
      <point x="718" y="780" type="line"/>
      <point x="40" y="0" type="line"/>
    </contour>
    <contour>
      <point x="670" y="0" type="line"/>
      <point x="683" y="103" type="line"/>
      <point x="747" y="103" type="line"/>
      <point x="752" y="136" type="line"/>
      <point x="688" y="136" type="line"/>
      <point x="721" y="390" type="line"/>
      <point x="686" y="390" type="line"/>
      <point x="484" y="127" type="line"/>
      <point x="480" y="103" type="line"/>
      <point x="647" y="103" type="line"/>
      <point x="634" y="0" type="line"/>
    </contour>
    <contour>
      <point x="678" y="329" type="line"/>
      <point x="670" y="278" type="line"/>
      <point x="652" y="136" type="line"/>
      <point x="572" y="136" type="line"/>
      <point x="529" y="135" type="line"/>
    </contour>
  </outline>
</glyph>
<glyph name="questiondown" format="1">
  <advance width="440"/>
  <unicode hex="00BF"/>
  <outline>
    <contour>
      <point x="142" y="-172" type="curve" smooth="yes"/>
      <point x="50" y="-172"/>
      <point x="18" y="-127"/>
      <point x="18" y="-50" type="curve" smooth="yes"/>
      <point x="18" y="139"/>
      <point x="209" y="136"/>
      <point x="229" y="355" type="curve"/>
      <point x="205" y="355" type="line"/>
      <point x="171" y="135"/>
      <point x="-24" y="174"/>
      <point x="-24" y="-60" type="curve" smooth="yes"/>
      <point x="-24" y="-149"/>
      <point x="24" y="-210"/>
      <point x="142" y="-210" type="curve" smooth="yes"/>
      <point x="283" y="-210"/>
      <point x="342" y="-121"/>
      <point x="368" y="47" type="curve" smooth="yes"/>
      <point x="370" y="60" type="line"/>
      <point x="330" y="60" type="line"/>
      <point x="310" y="-91"/>
      <point x="255" y="-172"/>
    </contour>
    <contour>
      <point x="270" y="530" type="line"/>
      <point x="210" y="530" type="line"/>
      <point x="203" y="470" type="line"/>
      <point x="263" y="470" type="line"/>
    </contour>
  </outline>
</glyph>
<glyph name="Agrave" format="1">
  <advance width="600"/>
  <unicode hex="00C0"/>
  <outline>
    <contour>
      <point x="293" y="950" type="line"/>
      <point x="340" y="840" type="line"/>
      <point x="382" y="840" type="line"/>
      <point x="335" y="950" type="line"/>
    </contour>
    <contour>
      <point x="325" y="790" type="line"/>
      <point x="-15" y="0" type="line"/>
      <point x="31" y="0" type="line"/>
      <point x="120" y="211" type="line"/>
      <point x="439" y="211" type="line"/>
      <point x="475" y="0" type="line"/>
      <point x="517" y="0" type="line"/>
      <point x="385" y="790" type="line"/>
    </contour>
    <contour>
      <point x="351" y="750" type="line"/>
      <point x="433" y="249" type="line"/>
      <point x="136" y="249" type="line"/>
    </contour>
  </outline>
</glyph>
<glyph name="Acircumflex" format="1">
  <advance width="600"/>
  <unicode hex="00C2"/>
  <outline>
    <contour>
      <point x="293" y="840" type="line"/>
      <point x="373" y="917" type="line"/>
      <point x="433" y="840" type="line"/>
      <point x="476" y="840" type="line"/>
      <point x="391" y="950" type="line"/>
      <point x="361" y="950" type="line"/>
      <point x="246" y="840" type="line"/>
    </contour>
    <contour>
      <point x="325" y="790" type="line"/>
      <point x="-15" y="0" type="line"/>
      <point x="31" y="0" type="line"/>
      <point x="120" y="211" type="line"/>
      <point x="439" y="211" type="line"/>
      <point x="475" y="0" type="line"/>
      <point x="517" y="0" type="line"/>
      <point x="385" y="790" type="line"/>
    </contour>
    <contour>
      <point x="351" y="750" type="line"/>
      <point x="433" y="249" type="line"/>
      <point x="136" y="249" type="line"/>
    </contour>
  </outline>
</glyph>
<glyph name="Atilde" format="1">
  <advance width="600"/>
  <unicode hex="00C3"/>
  <outline>
    <contour>
      <point x="477" y="932" type="line"/>
      <point x="473" y="897"/>
      <point x="456" y="881"/>
      <point x="431" y="881" type="curve" smooth="yes"/>
      <point x="391" y="881"/>
      <point x="365" y="942"/>
      <point x="307" y="942" type="curve" smooth="yes"/>
      <point x="264" y="942"/>
      <point x="231" y="915"/>
      <point x="223" y="858" type="curve"/>
      <point x="259" y="858" type="line"/>
      <point x="264" y="893"/>
      <point x="280" y="909"/>
      <point x="305" y="909" type="curve" smooth="yes"/>
      <point x="345" y="909"/>
      <point x="372" y="848"/>
      <point x="430" y="848" type="curve" smooth="yes"/>
      <point x="473" y="848"/>
      <point x="506" y="875"/>
      <point x="513" y="932" type="curve"/>
    </contour>
    <contour>
      <point x="325" y="790" type="line"/>
      <point x="-15" y="0" type="line"/>
      <point x="31" y="0" type="line"/>
      <point x="120" y="211" type="line"/>
      <point x="439" y="211" type="line"/>
      <point x="475" y="0" type="line"/>
      <point x="517" y="0" type="line"/>
      <point x="385" y="790" type="line"/>
    </contour>
    <contour>
      <point x="351" y="750" type="line"/>
      <point x="433" y="249" type="line"/>
      <point x="136" y="249" type="line"/>
    </contour>
  </outline>
</glyph>
<glyph name="Adieresis" format="1">
  <advance width="600"/>
  <unicode hex="00C4"/>
  <outline>
    <contour>
      <point x="327" y="925" type="line"/>
      <point x="267" y="925" type="line"/>
      <point x="259" y="865" type="line"/>
      <point x="319" y="865" type="line"/>
    </contour>
    <contour>
      <point x="477" y="925" type="line"/>
      <point x="417" y="925" type="line"/>
      <point x="409" y="865" type="line"/>
      <point x="469" y="865" type="line"/>
    </contour>
    <contour>
      <point x="325" y="790" type="line"/>
      <point x="-15" y="0" type="line"/>
      <point x="31" y="0" type="line"/>
      <point x="120" y="211" type="line"/>
      <point x="439" y="211" type="line"/>
      <point x="475" y="0" type="line"/>
      <point x="517" y="0" type="line"/>
      <point x="385" y="790" type="line"/>
    </contour>
    <contour>
      <point x="351" y="750" type="line"/>
      <point x="433" y="249" type="line"/>
      <point x="136" y="249" type="line"/>
    </contour>
  </outline>
</glyph>
<glyph name="Aring" format="1">
  <advance width="600"/>
  <unicode hex="00C5"/>
  <outline>
    <contour>
      <point x="456" y="880" type="curve" smooth="yes"/>
      <point x="456" y="925"/>
      <point x="422" y="960"/>
      <point x="372" y="960" type="curve" smooth="yes"/>
      <point x="315" y="960"/>
      <point x="274" y="915"/>
      <point x="274" y="860" type="curve" smooth="yes"/>
      <point x="274" y="826"/>
      <point x="293" y="798"/>
      <point x="323" y="786" type="curve"/>
      <point x="-15" y="0" type="line"/>
      <point x="31" y="0" type="line"/>
      <point x="120" y="211" type="line"/>
      <point x="439" y="211" type="line"/>
      <point x="475" y="0" type="line"/>
      <point x="517" y="0" type="line"/>
      <point x="386" y="784" type="line"/>
      <point x="428" y="796"/>
      <point x="456" y="834"/>
    </contour>
    <contour>
      <point x="351" y="750" type="line"/>
      <point x="433" y="249" type="line"/>
      <point x="136" y="249" type="line"/>
    </contour>
    <contour>
      <point x="307" y="860" type="curve" smooth="yes"/>
      <point x="307" y="905"/>
      <point x="339" y="928"/>
      <point x="372" y="928" type="curve" smooth="yes"/>
      <point x="402" y="928"/>
      <point x="423" y="906"/>
      <point x="423" y="880" type="curve" smooth="yes"/>
      <point x="423" y="835"/>
      <point x="391" y="812"/>
      <point x="358" y="812" type="curve" smooth="yes"/>
      <point x="328" y="812"/>
      <point x="307" y="834"/>
    </contour>
  </outline>
</glyph>
<glyph name="AE" format="1">
  <advance width="820"/>
  <unicode hex="00C6"/>
  <outline>
    <contour>
      <point x="370" y="780" type="line"/>
      <point x="-25" y="0" type="line"/>
      <point x="18" y="0" type="line"/>
      <point x="129" y="221" type="line"/>
      <point x="399" y="221" type="line"/>
      <point x="403" y="0" type="line"/>
      <point x="731" y="0" type="line"/>
      <point x="736" y="38" type="line"/>
      <point x="443" y="38" type="line"/>
      <point x="436" y="379" type="line"/>
      <point x="730" y="379" type="line"/>
      <point x="735" y="417" type="line"/>
      <point x="436" y="417" type="line"/>
      <point x="430" y="742" type="line"/>
      <point x="828" y="742" type="line"/>
      <point x="833" y="780" type="line"/>
    </contour>
    <contour>
      <point x="391" y="742" type="line"/>
      <point x="399" y="259" type="line"/>
      <point x="148" y="259" type="line"/>
    </contour>
  </outline>
</glyph>
<glyph name="Ccedilla" format="1">
  <advance width="607"/>
  <unicode hex="00C7"/>
  <outline>
    <contour>
      <point x="166" y="-183" type="line"/>
      <point x="184" y="-197"/>
      <point x="220" y="-210"/>
      <point x="253" y="-210" type="curve" smooth="yes"/>
      <point x="308" y="-210"/>
      <point x="354" y="-188"/>
      <point x="354" y="-130" type="curve" smooth="yes"/>
      <point x="354" y="-78"/>
      <point x="308" y="-64"/>
      <point x="269" y="-64" type="curve" smooth="yes"/>
      <point x="264" y="-64" type="line"/>
      <point x="292" y="-10" type="line"/>
      <point x="438" y="-3"/>
      <point x="517" y="95"/>
      <point x="534" y="241" type="curve" smooth="yes"/>
      <point x="535" y="250" type="line"/>
      <point x="493" y="250" type="line"/>
      <point x="474" y="105"/>
      <point x="410" y="28"/>
      <point x="279" y="28" type="curve" smooth="yes"/>
      <point x="273" y="28" type="line" smooth="yes"/>
      <point x="131" y="28"/>
      <point x="73" y="125"/>
      <point x="105" y="378" type="curve" smooth="yes"/>
      <point x="108" y="402" type="line" smooth="yes"/>
      <point x="139" y="649"/>
      <point x="222" y="752"/>
      <point x="364" y="752" type="curve" smooth="yes"/>
      <point x="370" y="752" type="line" smooth="yes"/>
      <point x="504" y="752"/>
      <point x="550" y="680"/>
      <point x="526" y="500" type="curve"/>
      <point x="568" y="500" type="line"/>
      <point x="571" y="519" type="line" smooth="yes"/>
      <point x="598" y="689"/>
      <point x="533" y="790"/>
      <point x="367" y="790" type="curve" smooth="yes"/>
      <point x="197" y="790"/>
      <point x="100" y="674"/>
      <point x="66" y="402" type="curve" smooth="yes"/>
      <point x="63" y="378" type="line" smooth="yes"/>
      <point x="29" y="110"/>
      <point x="98" y="-1"/>
      <point x="256" y="-9" type="curve"/>
      <point x="219" y="-83" type="line"/>
      <point x="233" y="-99" type="line"/>
      <point x="233" y="-99"/>
      <point x="246" y="-97"/>
      <point x="261" y="-97" type="curve" smooth="yes"/>
      <point x="291" y="-97"/>
      <point x="320" y="-104"/>
      <point x="320" y="-134" type="curve" smooth="yes"/>
      <point x="320" y="-164"/>
      <point x="295" y="-177"/>
      <point x="253" y="-177" type="curve" smooth="yes"/>
      <point x="222" y="-177"/>
      <point x="196" y="-166"/>
      <point x="181" y="-155" type="curve"/>
    </contour>
  </outline>
</glyph>
<glyph name="Eacute" format="1">
  <advance width="540"/>
  <unicode hex="00C9"/>
  <outline>
    <contour>
      <point x="133" y="780" type="line"/>
      <point x="31" y="0" type="line"/>
      <point x="451" y="0" type="line"/>
      <point x="456" y="38" type="line"/>
      <point x="76" y="38" type="line"/>
      <point x="120" y="379" type="line"/>
      <point x="450" y="379" type="line"/>
      <point x="455" y="417" type="line"/>
      <point x="125" y="417" type="line"/>
      <point x="168" y="742" type="line"/>
      <point x="548" y="742" type="line"/>
      <point x="553" y="780" type="line"/>
    </contour>
    <contour>
      <point x="417" y="950" type="line"/>
      <point x="340" y="840" type="line"/>
      <point x="382" y="840" type="line"/>
      <point x="459" y="950" type="line"/>
    </contour>
  </outline>
</glyph>
<glyph name="Ecircumflex" format="1">
  <advance width="540"/>
  <unicode hex="00CA"/>
  <outline>
    <contour>
      <point x="133" y="780" type="line"/>
      <point x="31" y="0" type="line"/>
      <point x="451" y="0" type="line"/>
      <point x="456" y="38" type="line"/>
      <point x="76" y="38" type="line"/>
      <point x="120" y="379" type="line"/>
      <point x="450" y="379" type="line"/>
      <point x="455" y="417" type="line"/>
      <point x="125" y="417" type="line"/>
      <point x="168" y="742" type="line"/>
      <point x="548" y="742" type="line"/>
      <point x="553" y="780" type="line"/>
    </contour>
    <contour>
      <point x="293" y="840" type="line"/>
      <point x="373" y="917" type="line"/>
      <point x="433" y="840" type="line"/>
      <point x="476" y="840" type="line"/>
      <point x="391" y="950" type="line"/>
      <point x="361" y="950" type="line"/>
      <point x="246" y="840" type="line"/>
    </contour>
  </outline>
</glyph>
<glyph name="Edieresis" format="1">
  <advance width="540"/>
  <unicode hex="00CB"/>
  <outline>
    <contour>
      <point x="133" y="780" type="line"/>
      <point x="31" y="0" type="line"/>
      <point x="451" y="0" type="line"/>
      <point x="456" y="38" type="line"/>
      <point x="76" y="38" type="line"/>
      <point x="120" y="379" type="line"/>
      <point x="450" y="379" type="line"/>
      <point x="455" y="417" type="line"/>
      <point x="125" y="417" type="line"/>
      <point x="168" y="742" type="line"/>
      <point x="548" y="742" type="line"/>
      <point x="553" y="780" type="line"/>
    </contour>
    <contour>
      <point x="477" y="925" type="line"/>
      <point x="417" y="925" type="line"/>
      <point x="409" y="865" type="line"/>
      <point x="469" y="865" type="line"/>
    </contour>
    <contour>
      <point x="327" y="925" type="line"/>
      <point x="267" y="925" type="line"/>
      <point x="259" y="865" type="line"/>
      <point x="319" y="865" type="line"/>
    </contour>
  </outline>
</glyph>
<glyph name="Iacute" format="1">
  <advance width="210"/>
  <unicode hex="00CD"/>
  <outline>
    <contour>
      <point x="178" y="780" type="line"/>
      <point x="138" y="780" type="line"/>
      <point x="36" y="0" type="line"/>
      <point x="76" y="0" type="line"/>
    </contour>
    <contour>
      <point x="222" y="950" type="line"/>
      <point x="145" y="840" type="line"/>
      <point x="187" y="840" type="line"/>
      <point x="264" y="950" type="line"/>
    </contour>
  </outline>
</glyph>
<glyph name="Icircumflex" format="1">
  <advance width="210"/>
  <unicode hex="00CE"/>
  <outline>
    <contour>
      <point x="178" y="780" type="line"/>
      <point x="138" y="780" type="line"/>
      <point x="36" y="0" type="line"/>
      <point x="76" y="0" type="line"/>
    </contour>
    <contour>
      <point x="98" y="840" type="line"/>
      <point x="178" y="917" type="line"/>
      <point x="238" y="840" type="line"/>
      <point x="281" y="840" type="line"/>
      <point x="196" y="950" type="line"/>
      <point x="166" y="950" type="line"/>
      <point x="51" y="840" type="line"/>
    </contour>
  </outline>
</glyph>
<glyph name="Idieresis" format="1">
  <advance width="210"/>
  <unicode hex="00CF"/>
  <outline>
    <contour>
      <point x="178" y="780" type="line"/>
      <point x="138" y="780" type="line"/>
      <point x="36" y="0" type="line"/>
      <point x="76" y="0" type="line"/>
    </contour>
    <contour>
      <point x="282" y="925" type="line"/>
      <point x="222" y="925" type="line"/>
      <point x="214" y="865" type="line"/>
      <point x="274" y="865" type="line"/>
    </contour>
    <contour>
      <point x="132" y="925" type="line"/>
      <point x="72" y="925" type="line"/>
      <point x="64" y="865" type="line"/>
      <point x="124" y="865" type="line"/>
    </contour>
  </outline>
</glyph>
<glyph name="Eth" format="1">
  <advance width="690"/>
  <unicode hex="00D0"/>
  <outline>
    <contour>
      <point x="630" y="402" type="line" smooth="yes"/>
      <point x="664" y="672"/>
      <point x="555" y="780"/>
      <point x="380" y="780" type="curve" smooth="yes"/>
      <point x="193" y="780" type="line"/>
      <point x="145" y="417" type="line"/>
      <point x="25" y="417" type="line"/>
      <point x="20" y="379" type="line"/>
      <point x="140" y="379" type="line"/>
      <point x="91" y="0" type="line"/>
      <point x="281" y="0" type="line" smooth="yes"/>
      <point x="456" y="0"/>
      <point x="593" y="108"/>
      <point x="627" y="378" type="curve" smooth="yes"/>
    </contour>
    <contour>
      <point x="136" y="38" type="line"/>
      <point x="180" y="379" type="line"/>
      <point x="410" y="379" type="line"/>
      <point x="415" y="417" type="line"/>
      <point x="185" y="417" type="line"/>
      <point x="228" y="742" type="line"/>
      <point x="377" y="742" type="line" smooth="yes"/>
      <point x="532" y="742"/>
      <point x="619" y="647"/>
      <point x="588" y="402" type="curve" smooth="yes"/>
      <point x="585" y="378" type="line" smooth="yes"/>
      <point x="554" y="133"/>
      <point x="436" y="38"/>
      <point x="281" y="38" type="curve" smooth="yes"/>
    </contour>
  </outline>
</glyph>
<glyph name="Ntilde" format="1">
  <advance width="650"/>
  <unicode hex="00D1"/>
  <outline>
    <contour>
      <point x="502" y="932" type="line"/>
      <point x="498" y="897"/>
      <point x="481" y="881"/>
      <point x="456" y="881" type="curve" smooth="yes"/>
      <point x="416" y="881"/>
      <point x="390" y="942"/>
      <point x="332" y="942" type="curve" smooth="yes"/>
      <point x="289" y="942"/>
      <point x="256" y="915"/>
      <point x="248" y="858" type="curve"/>
      <point x="284" y="858" type="line"/>
      <point x="289" y="893"/>
      <point x="305" y="909"/>
      <point x="330" y="909" type="curve" smooth="yes"/>
      <point x="370" y="909"/>
      <point x="397" y="848"/>
      <point x="455" y="848" type="curve" smooth="yes"/>
      <point x="498" y="848"/>
      <point x="531" y="875"/>
      <point x="538" y="932" type="curve"/>
    </contour>
    <contour>
      <point x="623" y="780" type="line"/>
      <point x="584" y="780" type="line"/>
      <point x="514" y="250" type="line"/>
      <point x="492" y="60" type="line"/>
      <point x="177" y="780" type="line"/>
      <point x="133" y="780" type="line"/>
      <point x="31" y="0" type="line"/>
      <point x="70" y="0" type="line"/>
      <point x="139" y="530" type="line"/>
      <point x="161" y="720" type="line"/>
      <point x="477" y="0" type="line"/>
      <point x="521" y="0" type="line"/>
    </contour>
  </outline>
</glyph>
<glyph name="Ograve" format="1">
  <advance width="640"/>
  <unicode hex="00D2"/>
  <outline>
    <contour>
      <point x="313" y="950" type="line"/>
      <point x="360" y="840" type="line"/>
      <point x="402" y="840" type="line"/>
      <point x="355" y="950" type="line"/>
    </contour>
    <contour>
      <point x="580" y="402" type="line" smooth="yes"/>
      <point x="615" y="681"/>
      <point x="539" y="790"/>
      <point x="367" y="790" type="curve" smooth="yes"/>
      <point x="197" y="790"/>
      <point x="100" y="674"/>
      <point x="66" y="402" type="curve" smooth="yes"/>
      <point x="63" y="378" type="line" smooth="yes"/>
      <point x="28" y="99"/>
      <point x="104" y="-10"/>
      <point x="276" y="-10" type="curve" smooth="yes"/>
      <point x="446" y="-10"/>
      <point x="543" y="106"/>
      <point x="577" y="378" type="curve" smooth="yes"/>
    </contour>
    <contour>
      <point x="535" y="378" type="line" smooth="yes"/>
      <point x="504" y="131"/>
      <point x="421" y="28"/>
      <point x="279" y="28" type="curve" smooth="yes"/>
      <point x="273" y="28" type="line" smooth="yes"/>
      <point x="131" y="28"/>
      <point x="73" y="125"/>
      <point x="105" y="378" type="curve" smooth="yes"/>
      <point x="108" y="402" type="line" smooth="yes"/>
      <point x="139" y="649"/>
      <point x="222" y="752"/>
      <point x="364" y="752" type="curve" smooth="yes"/>
      <point x="370" y="752" type="line" smooth="yes"/>
      <point x="512" y="752"/>
      <point x="570" y="655"/>
      <point x="538" y="402" type="curve" smooth="yes"/>
    </contour>
  </outline>
</glyph>
<glyph name="Otilde" format="1">
  <advance width="640"/>
  <unicode hex="00D5"/>
  <outline>
    <contour>
      <point x="497" y="932" type="line"/>
      <point x="493" y="897"/>
      <point x="476" y="881"/>
      <point x="451" y="881" type="curve" smooth="yes"/>
      <point x="411" y="881"/>
      <point x="385" y="942"/>
      <point x="327" y="942" type="curve" smooth="yes"/>
      <point x="284" y="942"/>
      <point x="251" y="915"/>
      <point x="243" y="858" type="curve"/>
      <point x="279" y="858" type="line"/>
      <point x="284" y="893"/>
      <point x="300" y="909"/>
      <point x="325" y="909" type="curve" smooth="yes"/>
      <point x="365" y="909"/>
      <point x="392" y="848"/>
      <point x="450" y="848" type="curve" smooth="yes"/>
      <point x="493" y="848"/>
      <point x="526" y="875"/>
      <point x="533" y="932" type="curve"/>
    </contour>
    <contour>
      <point x="580" y="402" type="line" smooth="yes"/>
      <point x="615" y="681"/>
      <point x="539" y="790"/>
      <point x="367" y="790" type="curve" smooth="yes"/>
      <point x="197" y="790"/>
      <point x="100" y="674"/>
      <point x="66" y="402" type="curve" smooth="yes"/>
      <point x="63" y="378" type="line" smooth="yes"/>
      <point x="28" y="99"/>
      <point x="104" y="-10"/>
      <point x="276" y="-10" type="curve" smooth="yes"/>
      <point x="446" y="-10"/>
      <point x="543" y="106"/>
      <point x="577" y="378" type="curve" smooth="yes"/>
    </contour>
    <contour>
      <point x="535" y="378" type="line" smooth="yes"/>
      <point x="504" y="131"/>
      <point x="421" y="28"/>
      <point x="279" y="28" type="curve" smooth="yes"/>
      <point x="273" y="28" type="line" smooth="yes"/>
      <point x="131" y="28"/>
      <point x="73" y="125"/>
      <point x="105" y="378" type="curve" smooth="yes"/>
      <point x="108" y="402" type="line" smooth="yes"/>
      <point x="139" y="649"/>
      <point x="222" y="752"/>
      <point x="364" y="752" type="curve" smooth="yes"/>
      <point x="370" y="752" type="line" smooth="yes"/>
      <point x="512" y="752"/>
      <point x="570" y="655"/>
      <point x="538" y="402" type="curve" smooth="yes"/>
    </contour>
  </outline>
</glyph>
<glyph name="multiply" format="1">
  <advance width="600"/>
  <unicode hex="00D7"/>
  <outline>
    <contour>
      <point x="33" y="128" type="line"/>
      <point x="297" y="361" type="line"/>
      <point x="499" y="128" type="line"/>
      <point x="532" y="157" type="line"/>
      <point x="330" y="390" type="line"/>
      <point x="594" y="623" type="line"/>
      <point x="568" y="652" type="line"/>
      <point x="305" y="419" type="line"/>
      <point x="102" y="652" type="line"/>
      <point x="70" y="623" type="line"/>
      <point x="272" y="390" type="line"/>
      <point x="8" y="157" type="line"/>
    </contour>
  </outline>
</glyph>
<glyph name="Oslash" format="1">
  <advance width="626"/>
  <unicode hex="00D8"/>
  <outline>
    <contour>
      <point x="580" y="402" type="line" smooth="yes"/>
      <point x="596" y="530"/>
      <point x="588" y="623"/>
      <point x="559" y="685" type="curve"/>
      <point x="628" y="780" type="line"/>
      <point x="583" y="780" type="line"/>
      <point x="538" y="719" type="line"/>
      <point x="501" y="768"/>
      <point x="444" y="790"/>
      <point x="367" y="790" type="curve" smooth="yes"/>
      <point x="197" y="790"/>
      <point x="100" y="674"/>
      <point x="66" y="402" type="curve" smooth="yes"/>
      <point x="63" y="378" type="line" smooth="yes"/>
      <point x="47" y="249"/>
      <point x="54" y="157"/>
      <point x="84" y="94" type="curve"/>
      <point x="15" y="0" type="line"/>
      <point x="60" y="0" type="line"/>
      <point x="104" y="61" type="line"/>
      <point x="141" y="12"/>
      <point x="199" y="-10"/>
      <point x="276" y="-10" type="curve" smooth="yes"/>
      <point x="446" y="-10"/>
      <point x="543" y="106"/>
      <point x="577" y="378" type="curve" smooth="yes"/>
    </contour>
    <contour>
      <point x="105" y="378" type="curve" smooth="yes"/>
      <point x="108" y="402" type="line" smooth="yes"/>
      <point x="139" y="649"/>
      <point x="222" y="752"/>
      <point x="364" y="752" type="curve" smooth="yes"/>
      <point x="370" y="752" type="line" smooth="yes"/>
      <point x="436" y="752"/>
      <point x="483" y="731"/>
      <point x="512" y="683" type="curve"/>
      <point x="113" y="134" type="line"/>
      <point x="94" y="190"/>
      <point x="91" y="270"/>
    </contour>
    <contour>
      <point x="535" y="378" type="line" smooth="yes"/>
      <point x="504" y="131"/>
      <point x="421" y="28"/>
      <point x="279" y="28" type="curve" smooth="yes"/>
      <point x="273" y="28" type="line" smooth="yes"/>
      <point x="207" y="28"/>
      <point x="159" y="49"/>
      <point x="130" y="96" type="curve"/>
      <point x="530" y="645" type="line"/>
      <point x="549" y="589"/>
      <point x="551" y="510"/>
      <point x="538" y="402" type="curve" smooth="yes"/>
    </contour>
  </outline>
</glyph>
<glyph name="Ugrave" format="1">
  <advance width="630"/>
  <unicode hex="00D9"/>
  <outline>
    <contour>
      <point x="308" y="950" type="line"/>
      <point x="355" y="840" type="line"/>
      <point x="397" y="840" type="line"/>
      <point x="350" y="950" type="line"/>
    </contour>
    <contour>
      <point x="273" y="-10" type="curve" smooth="yes"/>
      <point x="423" y="-10"/>
      <point x="512" y="50"/>
      <point x="537" y="240" type="curve" smooth="yes"/>
      <point x="608" y="780" type="line"/>
      <point x="568" y="780" type="line"/>
      <point x="498" y="245" type="line" smooth="yes"/>
      <point x="476" y="78"/>
      <point x="403" y="28"/>
      <point x="273" y="28" type="curve" smooth="yes"/>
      <point x="143" y="28"/>
      <point x="76" y="77"/>
      <point x="98" y="245" type="curve" smooth="yes"/>
      <point x="168" y="780" type="line"/>
      <point x="128" y="780" type="line"/>
      <point x="57" y="240" type="line" smooth="yes"/>
      <point x="32" y="47"/>
      <point x="123" y="-10"/>
    </contour>
  </outline>
</glyph>
<glyph name="Thorn" format="1">
  <advance width="560"/>
  <unicode hex="00DE"/>
  <outline>
    <contour>
      <point x="92" y="165" type="line"/>
      <point x="259" y="165" type="line" smooth="yes"/>
      <point x="368" y="165"/>
      <point x="489" y="211"/>
      <point x="509" y="372" type="curve" smooth="yes"/>
      <point x="512" y="396" type="line" smooth="yes"/>
      <point x="533" y="566"/>
      <point x="414" y="615"/>
      <point x="308" y="615" type="curve" smooth="yes"/>
      <point x="151" y="615" type="line"/>
      <point x="173" y="780" type="line"/>
      <point x="133" y="780" type="line"/>
      <point x="31" y="0" type="line"/>
      <point x="71" y="0" type="line"/>
    </contour>
    <contour>
      <point x="97" y="203" type="line"/>
      <point x="146" y="577" type="line"/>
      <point x="305" y="577" type="line" smooth="yes"/>
      <point x="381" y="577"/>
      <point x="489" y="547"/>
      <point x="470" y="396" type="curve" smooth="yes"/>
      <point x="467" y="372" type="line" smooth="yes"/>
      <point x="449" y="227"/>
      <point x="338" y="203"/>
      <point x="264" y="203" type="curve" smooth="yes"/>
    </contour>
  </outline>
</glyph>
<glyph name="germandbls" format="1">
  <advance width="550"/>
  <unicode hex="00DF"/>
  <outline>
    <contour>
      <point x="256" y="382" type="line"/>
      <point x="321" y="336" type="line" smooth="yes"/>
      <point x="423" y="264"/>
      <point x="457" y="221"/>
      <point x="448" y="150" type="curve" smooth="yes"/>
      <point x="439" y="84"/>
      <point x="401" y="28"/>
      <point x="307" y="28" type="curve" smooth="yes"/>
      <point x="199" y="28"/>
      <point x="183" y="91"/>
      <point x="192" y="160" type="curve"/>
      <point x="153" y="160" type="line"/>
      <point x="152" y="152" type="line" smooth="yes"/>
      <point x="143" y="79"/>
      <point x="160" y="-10"/>
      <point x="307" y="-10" type="curve" smooth="yes"/>
      <point x="432" y="-10"/>
      <point x="481" y="71"/>
      <point x="490" y="145" type="curve" smooth="yes"/>
      <point x="491" y="153" type="line" smooth="yes"/>
      <point x="501" y="235"/>
      <point x="448" y="294"/>
      <point x="363" y="356" type="curve" smooth="yes"/>
      <point x="312" y="393" type="line"/>
      <point x="424" y="458"/>
      <point x="471" y="523"/>
      <point x="482" y="607" type="curve" smooth="yes"/>
      <point x="483" y="615" type="line" smooth="yes"/>
      <point x="498" y="733"/>
      <point x="442" y="810"/>
      <point x="309" y="810" type="curve" smooth="yes"/>
      <point x="190" y="810"/>
      <point x="118" y="741"/>
      <point x="101" y="614" type="curve" smooth="yes"/>
      <point x="21" y="0" type="line"/>
      <point x="61" y="0" type="line"/>
      <point x="141" y="610" type="line" smooth="yes"/>
      <point x="155" y="717"/>
      <point x="211" y="770"/>
      <point x="309" y="770" type="curve" smooth="yes"/>
      <point x="416" y="770"/>
      <point x="452" y="706"/>
      <point x="440" y="611" type="curve" smooth="yes"/>
      <point x="428" y="524"/>
      <point x="380" y="472"/>
      <point x="259" y="410" type="curve"/>
    </contour>
  </outline>
</glyph>
<glyph name="atilde" format="1">
  <advance width="500"/>
  <unicode hex="00E3"/>
  <outline>
    <contour>
      <point x="403" y="737" type="line"/>
      <point x="398" y="700"/>
      <point x="380" y="687"/>
      <point x="359" y="687" type="curve" smooth="yes"/>
      <point x="317" y="687"/>
      <point x="287" y="747"/>
      <point x="229" y="747" type="curve" smooth="yes"/>
      <point x="186" y="747"/>
      <point x="155" y="720"/>
      <point x="148" y="663" type="curve"/>
      <point x="183" y="663" type="line"/>
      <point x="188" y="700"/>
      <point x="205" y="713"/>
      <point x="226" y="713" type="curve" smooth="yes"/>
      <point x="268" y="713"/>
      <point x="298" y="653"/>
      <point x="356" y="653" type="curve" smooth="yes"/>
      <point x="399" y="653"/>
      <point x="430" y="680"/>
      <point x="438" y="737" type="curve"/>
    </contour>
    <contour>
      <point x="356" y="0" type="line"/>
      <point x="386" y="0" type="line"/>
      <point x="400" y="150" type="line"/>
      <point x="426" y="345" type="line" smooth="yes"/>
      <point x="442" y="462"/>
      <point x="410" y="540"/>
      <point x="263" y="540" type="curve" smooth="yes"/>
      <point x="122" y="540"/>
      <point x="80" y="445"/>
      <point x="69" y="369" type="curve" smooth="yes"/>
      <point x="67" y="355" type="line"/>
      <point x="107" y="355" type="line"/>
      <point x="117" y="433"/>
      <point x="148" y="502"/>
      <point x="263" y="502" type="curve" smooth="yes"/>
      <point x="373" y="502"/>
      <point x="400" y="455"/>
      <point x="387" y="350" type="curve" smooth="yes"/>
      <point x="384" y="326" type="line"/>
      <point x="208" y="298" type="line" smooth="yes"/>
      <point x="124" y="285"/>
      <point x="34" y="262"/>
      <point x="20" y="147" type="curve" smooth="yes"/>
      <point x="18" y="131" type="line" smooth="yes"/>
      <point x="7" y="46"/>
      <point x="71" y="-10"/>
      <point x="160" y="-10" type="curve" smooth="yes"/>
      <point x="254" y="-10"/>
      <point x="317" y="34"/>
      <point x="357" y="80" type="curve"/>
    </contour>
    <contour>
      <point x="160" y="28" type="curve" smooth="yes"/>
      <point x="87" y="28"/>
      <point x="53" y="81"/>
      <point x="60" y="134" type="curve" smooth="yes"/>
      <point x="62" y="150" type="line" smooth="yes"/>
      <point x="71" y="219"/>
      <point x="121" y="248"/>
      <point x="203" y="261" type="curve" smooth="yes"/>
      <point x="379" y="289" type="line"/>
      <point x="358" y="129" type="line"/>
      <point x="335" y="95"/>
      <point x="278" y="28"/>
    </contour>
  </outline>
</glyph>
<glyph name="aring" format="1">
  <advance width="500"/>
  <unicode hex="00E5"/>
  <outline>
    <contour>
      <point x="356" y="0" type="line"/>
      <point x="386" y="0" type="line"/>
      <point x="400" y="150" type="line"/>
      <point x="426" y="345" type="line" smooth="yes"/>
      <point x="442" y="462"/>
      <point x="410" y="540"/>
      <point x="263" y="540" type="curve" smooth="yes"/>
      <point x="122" y="540"/>
      <point x="80" y="445"/>
      <point x="69" y="369" type="curve" smooth="yes"/>
      <point x="67" y="355" type="line"/>
      <point x="107" y="355" type="line"/>
      <point x="117" y="433"/>
      <point x="148" y="502"/>
      <point x="263" y="502" type="curve" smooth="yes"/>
      <point x="373" y="502"/>
      <point x="400" y="455"/>
      <point x="387" y="350" type="curve" smooth="yes"/>
      <point x="384" y="326" type="line"/>
      <point x="208" y="298" type="line" smooth="yes"/>
      <point x="124" y="285"/>
      <point x="34" y="262"/>
      <point x="20" y="147" type="curve" smooth="yes"/>
      <point x="18" y="131" type="line" smooth="yes"/>
      <point x="7" y="46"/>
      <point x="71" y="-10"/>
      <point x="160" y="-10" type="curve" smooth="yes"/>
      <point x="254" y="-10"/>
      <point x="317" y="34"/>
      <point x="357" y="80" type="curve"/>
    </contour>
    <contour>
      <point x="160" y="28" type="curve" smooth="yes"/>
      <point x="87" y="28"/>
      <point x="53" y="81"/>
      <point x="60" y="134" type="curve" smooth="yes"/>
      <point x="62" y="150" type="line" smooth="yes"/>
      <point x="71" y="219"/>
      <point x="121" y="248"/>
      <point x="203" y="261" type="curve" smooth="yes"/>
      <point x="379" y="289" type="line"/>
      <point x="358" y="129" type="line"/>
      <point x="335" y="95"/>
      <point x="278" y="28"/>
    </contour>
    <contour>
      <point x="379" y="710" type="curve" smooth="yes"/>
      <point x="379" y="755"/>
      <point x="345" y="790"/>
      <point x="295" y="790" type="curve" smooth="yes"/>
      <point x="238" y="790"/>
      <point x="197" y="745"/>
      <point x="197" y="690" type="curve" smooth="yes"/>
      <point x="197" y="645"/>
      <point x="231" y="610"/>
      <point x="281" y="610" type="curve" smooth="yes"/>
      <point x="338" y="610"/>
      <point x="379" y="655"/>
    </contour>
    <contour>
      <point x="230" y="690" type="curve" smooth="yes"/>
      <point x="230" y="735"/>
      <point x="262" y="758"/>
      <point x="295" y="758" type="curve" smooth="yes"/>
      <point x="325" y="758"/>
      <point x="346" y="736"/>
      <point x="346" y="710" type="curve" smooth="yes"/>
      <point x="346" y="665"/>
      <point x="314" y="642"/>
      <point x="281" y="642" type="curve" smooth="yes"/>
      <point x="251" y="642"/>
      <point x="230" y="664"/>
    </contour>
  </outline>
</glyph>
<glyph name="ae" format="1">
  <advance width="875"/>
  <unicode hex="00E6"/>
  <outline>
    <contour>
      <point x="804" y="246" type="line"/>
      <point x="808" y="278" type="line" smooth="yes"/>
      <point x="826" y="420"/>
      <point x="781" y="540"/>
      <point x="624" y="540" type="curve" smooth="yes"/>
      <point x="526" y="540"/>
      <point x="461" y="489"/>
      <point x="423" y="409" type="curve"/>
      <point x="420" y="489"/>
      <point x="381" y="540"/>
      <point x="263" y="540" type="curve" smooth="yes"/>
      <point x="122" y="540"/>
      <point x="80" y="445"/>
      <point x="69" y="369" type="curve" smooth="yes"/>
      <point x="67" y="355" type="line"/>
      <point x="107" y="355" type="line"/>
      <point x="117" y="433"/>
      <point x="148" y="502"/>
      <point x="263" y="502" type="curve" smooth="yes"/>
      <point x="373" y="502"/>
      <point x="400" y="455"/>
      <point x="387" y="350" type="curve" smooth="yes"/>
      <point x="384" y="326" type="line"/>
      <point x="208" y="298" type="line" smooth="yes"/>
      <point x="124" y="285"/>
      <point x="34" y="262"/>
      <point x="20" y="147" type="curve" smooth="yes"/>
      <point x="18" y="131" type="line" smooth="yes"/>
      <point x="7" y="46"/>
      <point x="71" y="-10"/>
      <point x="160" y="-10" type="curve" smooth="yes"/>
      <point x="249" y="-10"/>
      <point x="329" y="32"/>
      <point x="385" y="110" type="curve"/>
      <point x="410" y="38"/>
      <point x="470" y="-10"/>
      <point x="580" y="-10" type="curve" smooth="yes"/>
      <point x="716" y="-10"/>
      <point x="781" y="80"/>
      <point x="793" y="163" type="curve" smooth="yes"/>
      <point x="794" y="170" type="line"/>
      <point x="754" y="170" type="line"/>
      <point x="745" y="105"/>
      <point x="702" y="28"/>
      <point x="580" y="28" type="curve" smooth="yes"/>
      <point x="445" y="28"/>
      <point x="401" y="116"/>
      <point x="416" y="246" type="curve"/>
    </contour>
    <contour>
      <point x="624" y="502" type="curve" smooth="yes"/>
      <point x="740" y="502"/>
      <point x="788" y="419"/>
      <point x="768" y="284" type="curve"/>
      <point x="420" y="284" type="line"/>
      <point x="435" y="410"/>
      <point x="511" y="502"/>
    </contour>
    <contour>
      <point x="160" y="28" type="curve" smooth="yes"/>
      <point x="87" y="28"/>
      <point x="53" y="81"/>
      <point x="60" y="134" type="curve" smooth="yes"/>
      <point x="62" y="150" type="line" smooth="yes"/>
      <point x="71" y="219"/>
      <point x="121" y="248"/>
      <point x="203" y="261" type="curve" smooth="yes"/>
      <point x="379" y="289" type="line"/>
      <point x="375" y="259" type="line" smooth="yes"/>
      <point x="370" y="222"/>
      <point x="370" y="186"/>
      <point x="375" y="154" type="curve"/>
      <point x="336" y="90"/>
      <point x="273" y="28"/>
    </contour>
  </outline>
</glyph>
<glyph name="ccedilla" format="1">
  <advance width="520"/>
  <unicode hex="00E7"/>
  <outline>
    <contour>
      <point x="119" y="-183" type="line"/>
      <point x="137" y="-197"/>
      <point x="173" y="-210"/>
      <point x="206" y="-210" type="curve" smooth="yes"/>
      <point x="261" y="-210"/>
      <point x="307" y="-188"/>
      <point x="307" y="-130" type="curve" smooth="yes"/>
      <point x="307" y="-78"/>
      <point x="261" y="-64"/>
      <point x="222" y="-64" type="curve" smooth="yes"/>
      <point x="217" y="-64" type="line"/>
      <point x="245" y="-10" type="line"/>
      <point x="381" y="-5"/>
      <point x="426" y="93"/>
      <point x="437" y="166" type="curve" smooth="yes"/>
      <point x="439" y="180" type="line"/>
      <point x="399" y="180" type="line"/>
      <point x="389" y="102"/>
      <point x="347" y="28"/>
      <point x="234" y="28" type="curve" smooth="yes"/>
      <point x="115" y="28"/>
      <point x="63" y="121"/>
      <point x="81" y="262" type="curve" smooth="yes"/>
      <point x="83" y="278" type="line" smooth="yes"/>
      <point x="100" y="416"/>
      <point x="165" y="502"/>
      <point x="278" y="502" type="curve" smooth="yes"/>
      <point x="390" y="502"/>
      <point x="433" y="430"/>
      <point x="421" y="340" type="curve"/>
      <point x="460" y="340" type="line"/>
      <point x="462" y="355" type="line" smooth="yes"/>
      <point x="472" y="427"/>
      <point x="439" y="540"/>
      <point x="278" y="540" type="curve" smooth="yes"/>
      <point x="133" y="540"/>
      <point x="60" y="430"/>
      <point x="41" y="275" type="curve" smooth="yes"/>
      <point x="39" y="259" type="line" smooth="yes"/>
      <point x="21" y="118"/>
      <point x="73" y="3"/>
      <point x="209" y="-9" type="curve"/>
      <point x="172" y="-83" type="line"/>
      <point x="186" y="-99" type="line"/>
      <point x="186" y="-99"/>
      <point x="199" y="-97"/>
      <point x="214" y="-97" type="curve" smooth="yes"/>
      <point x="244" y="-97"/>
      <point x="273" y="-104"/>
      <point x="273" y="-134" type="curve" smooth="yes"/>
      <point x="273" y="-164"/>
      <point x="248" y="-177"/>
      <point x="206" y="-177" type="curve" smooth="yes"/>
      <point x="175" y="-177"/>
      <point x="149" y="-166"/>
      <point x="134" y="-155" type="curve"/>
    </contour>
  </outline>
</glyph>
<glyph name="eacute" format="1">
  <advance width="540"/>
  <unicode hex="00E9"/>
  <outline>
    <contour>
      <point x="392" y="780" type="line"/>
      <point x="281" y="620" type="line"/>
      <point x="323" y="620" type="line"/>
      <point x="434" y="780" type="line"/>
    </contour>
    <contour>
      <point x="468" y="246" type="line"/>
      <point x="472" y="278" type="line" smooth="yes"/>
      <point x="490" y="420"/>
      <point x="445" y="540"/>
      <point x="288" y="540" type="curve" smooth="yes"/>
      <point x="143" y="540"/>
      <point x="60" y="430"/>
      <point x="41" y="275" type="curve" smooth="yes"/>
      <point x="39" y="259" type="line" smooth="yes"/>
      <point x="21" y="113"/>
      <point x="69" y="-10"/>
      <point x="244" y="-10" type="curve" smooth="yes"/>
      <point x="380" y="-10"/>
      <point x="445" y="80"/>
      <point x="457" y="163" type="curve" smooth="yes"/>
      <point x="458" y="170" type="line"/>
      <point x="418" y="170" type="line"/>
      <point x="409" y="105"/>
      <point x="366" y="28"/>
      <point x="244" y="28" type="curve" smooth="yes"/>
      <point x="109" y="28"/>
      <point x="65" y="116"/>
      <point x="80" y="246" type="curve"/>
    </contour>
    <contour>
      <point x="288" y="502" type="curve" smooth="yes"/>
      <point x="404" y="502"/>
      <point x="452" y="419"/>
      <point x="432" y="284" type="curve"/>
      <point x="84" y="284" type="line"/>
      <point x="99" y="410"/>
      <point x="175" y="502"/>
    </contour>
  </outline>
</glyph>
<glyph name="igrave" format="1">
  <advance width="200"/>
  <unicode hex="00EC"/>
  <outline>
    <contour>
      <point x="31" y="0" type="line"/>
      <point x="71" y="0" type="line"/>
      <point x="140" y="530" type="line"/>
      <point x="100" y="530" type="line"/>
    </contour>
    <contour>
      <point x="42" y="780" type="line"/>
      <point x="111" y="620" type="line"/>
      <point x="153" y="620" type="line"/>
      <point x="84" y="780" type="line"/>
    </contour>
  </outline>
</glyph>
<glyph name="iacute" format="1">
  <advance width="200"/>
  <unicode hex="00ED"/>
  <outline>
    <contour>
      <point x="31" y="0" type="line"/>
      <point x="71" y="0" type="line"/>
      <point x="140" y="530" type="line"/>
      <point x="100" y="530" type="line"/>
    </contour>
    <contour>
      <point x="222" y="780" type="line"/>
      <point x="111" y="620" type="line"/>
      <point x="153" y="620" type="line"/>
      <point x="264" y="780" type="line"/>
    </contour>
  </outline>
</glyph>
<glyph name="icircumflex" format="1">
  <advance width="200"/>
  <unicode hex="00EE"/>
  <outline>
    <contour>
      <point x="31" y="0" type="line"/>
      <point x="71" y="0" type="line"/>
      <point x="140" y="530" type="line"/>
      <point x="100" y="530" type="line"/>
    </contour>
    <contour>
      <point x="34" y="620" type="line"/>
      <point x="150" y="744" type="line"/>
      <point x="234" y="620" type="line"/>
      <point x="277" y="620" type="line"/>
      <point x="168" y="780" type="line"/>
      <point x="138" y="780" type="line"/>
      <point x="-13" y="620" type="line"/>
    </contour>
  </outline>
</glyph>
<glyph name="idieresis" format="1">
  <advance width="200"/>
  <unicode hex="00EF"/>
  <outline>
    <contour>
      <point x="31" y="0" type="line"/>
      <point x="71" y="0" type="line"/>
      <point x="140" y="530" type="line"/>
      <point x="100" y="530" type="line"/>
    </contour>
    <contour>
      <point x="252" y="735" type="line"/>
      <point x="192" y="735" type="line"/>
      <point x="184" y="675" type="line"/>
      <point x="244" y="675" type="line"/>
    </contour>
    <contour>
      <point x="102" y="735" type="line"/>
      <point x="42" y="735" type="line"/>
      <point x="34" y="675" type="line"/>
      <point x="94" y="675" type="line"/>
    </contour>
  </outline>
</glyph>
<glyph name="eth" format="1">
  <advance width="540"/>
  <unicode hex="00F0"/>
  <outline>
    <contour>
      <point x="107" y="772" type="line"/>
      <point x="168" y="765"/>
      <point x="223" y="749"/>
      <point x="275" y="718" type="curve"/>
      <point x="132" y="640" type="line"/>
      <point x="126" y="597" type="line"/>
      <point x="308" y="696" type="line"/>
      <point x="329" y="680"/>
      <point x="349" y="662"/>
      <point x="368" y="638" type="curve" smooth="yes"/>
      <point x="405" y="591"/>
      <point x="426" y="529"/>
      <point x="436" y="465" type="curve"/>
      <point x="411" y="512"/>
      <point x="357" y="540"/>
      <point x="283" y="540" type="curve" smooth="yes"/>
      <point x="138" y="540"/>
      <point x="60" y="430"/>
      <point x="41" y="275" type="curve" smooth="yes"/>
      <point x="39" y="259" type="line" smooth="yes"/>
      <point x="20" y="110"/>
      <point x="74" y="-10"/>
      <point x="229" y="-10" type="curve" smooth="yes"/>
      <point x="374" y="-10"/>
      <point x="452" y="100"/>
      <point x="471" y="255" type="curve" smooth="yes"/>
      <point x="473" y="271" type="line" smooth="yes"/>
      <point x="491" y="416"/>
      <point x="483" y="562"/>
      <point x="404" y="664" type="curve" smooth="yes"/>
      <point x="387" y="686"/>
      <point x="369" y="703"/>
      <point x="350" y="719" type="curve"/>
      <point x="438" y="767" type="line"/>
      <point x="444" y="810" type="line"/>
      <point x="319" y="742" type="line"/>
      <point x="258" y="784"/>
      <point x="186" y="803"/>
      <point x="112" y="810" type="curve"/>
    </contour>
    <contour>
      <point x="229" y="28" type="curve" smooth="yes"/>
      <point x="110" y="28"/>
      <point x="63" y="121"/>
      <point x="81" y="262" type="curve" smooth="yes"/>
      <point x="83" y="278" type="line" smooth="yes"/>
      <point x="100" y="416"/>
      <point x="170" y="502"/>
      <point x="283" y="502" type="curve" smooth="yes"/>
      <point x="402" y="502"/>
      <point x="449" y="409"/>
      <point x="431" y="268" type="curve" smooth="yes"/>
      <point x="429" y="252" type="line" smooth="yes"/>
      <point x="412" y="114"/>
      <point x="342" y="28"/>
    </contour>
  </outline>
</glyph>
<glyph name="ntilde" format="1">
  <advance width="510"/>
  <unicode hex="00F1"/>
  <outline>
    <contour>
      <point x="411" y="737" type="line"/>
      <point x="406" y="700"/>
      <point x="388" y="687"/>
      <point x="367" y="687" type="curve" smooth="yes"/>
      <point x="325" y="687"/>
      <point x="295" y="747"/>
      <point x="237" y="747" type="curve" smooth="yes"/>
      <point x="194" y="747"/>
      <point x="163" y="720"/>
      <point x="156" y="663" type="curve"/>
      <point x="191" y="663" type="line"/>
      <point x="196" y="700"/>
      <point x="213" y="713"/>
      <point x="234" y="713" type="curve" smooth="yes"/>
      <point x="276" y="713"/>
      <point x="306" y="653"/>
      <point x="364" y="653" type="curve" smooth="yes"/>
      <point x="407" y="653"/>
      <point x="438" y="680"/>
      <point x="446" y="737" type="curve"/>
    </contour>
    <contour>
      <point x="396" y="0" type="line"/>
      <point x="445" y="375" type="line" smooth="yes"/>
      <point x="458" y="477"/>
      <point x="403" y="540"/>
      <point x="290" y="540" type="curve" smooth="yes"/>
      <point x="214" y="540"/>
      <point x="150" y="503"/>
      <point x="114" y="452" type="curve"/>
      <point x="115" y="530" type="line"/>
      <point x="85" y="530" type="line"/>
      <point x="71" y="380" type="line"/>
      <point x="21" y="0" type="line"/>
      <point x="61" y="0" type="line"/>
      <point x="114" y="410" type="line"/>
      <point x="142" y="449"/>
      <point x="197" y="502"/>
      <point x="285" y="502" type="curve" smooth="yes"/>
      <point x="367" y="502"/>
      <point x="416" y="465"/>
      <point x="404" y="370" type="curve" smooth="yes"/>
      <point x="356" y="0" type="line"/>
    </contour>
  </outline>
</glyph>
<glyph name="ograve" format="1">
  <advance width="540"/>
  <unicode hex="00F2"/>
  <outline>
    <contour>
      <point x="212" y="780" type="line"/>
      <point x="281" y="620" type="line"/>
      <point x="323" y="620" type="line"/>
      <point x="254" y="780" type="line"/>
    </contour>
    <contour>
      <point x="229" y="28" type="curve" smooth="yes"/>
      <point x="110" y="28"/>
      <point x="63" y="121"/>
      <point x="81" y="262" type="curve" smooth="yes"/>
      <point x="83" y="278" type="line" smooth="yes"/>
      <point x="100" y="416"/>
      <point x="170" y="502"/>
      <point x="283" y="502" type="curve" smooth="yes"/>
      <point x="402" y="502"/>
      <point x="449" y="409"/>
      <point x="431" y="268" type="curve" smooth="yes"/>
      <point x="429" y="252" type="line" smooth="yes"/>
      <point x="412" y="114"/>
      <point x="342" y="28"/>
    </contour>
    <contour>
      <point x="229" y="-10" type="curve" smooth="yes"/>
      <point x="374" y="-10"/>
      <point x="452" y="100"/>
      <point x="471" y="255" type="curve" smooth="yes"/>
      <point x="473" y="271" type="line" smooth="yes"/>
      <point x="492" y="420"/>
      <point x="438" y="540"/>
      <point x="283" y="540" type="curve" smooth="yes"/>
      <point x="138" y="540"/>
      <point x="60" y="430"/>
      <point x="41" y="275" type="curve" smooth="yes"/>
      <point x="39" y="259" type="line" smooth="yes"/>
      <point x="20" y="110"/>
      <point x="74" y="-10"/>
    </contour>
  </outline>
</glyph>
<glyph name="divide" format="1">
  <advance width="600"/>
  <unicode hex="00F7"/>
  <outline>
    <contour>
      <point x="48" y="370" type="line"/>
      <point x="548" y="370" type="line"/>
      <point x="553" y="410" type="line"/>
      <point x="53" y="410" type="line"/>
    </contour>
    <contour>
      <point x="306" y="200" type="line"/>
      <point x="246" y="200" type="line"/>
      <point x="238" y="140" type="line"/>
      <point x="298" y="140" type="line"/>
    </contour>
    <contour>
      <point x="364" y="640" type="line"/>
      <point x="304" y="640" type="line"/>
      <point x="296" y="580" type="line"/>
      <point x="356" y="580" type="line"/>
    </contour>
  </outline>
</glyph>
<glyph name="oslash" format="1">
  <advance width="540"/>
  <unicode hex="00F8"/>
  <outline>
    <contour>
      <point x="229" y="-10" type="curve" smooth="yes"/>
      <point x="374" y="-10"/>
      <point x="452" y="100"/>
      <point x="471" y="255" type="curve" smooth="yes"/>
      <point x="473" y="271" type="line" smooth="yes"/>
      <point x="482" y="343"/>
      <point x="474" y="409"/>
      <point x="445" y="457" type="curve"/>
      <point x="508" y="530" type="line"/>
      <point x="462" y="530" type="line"/>
      <point x="424" y="486" type="line"/>
      <point x="392" y="520"/>
      <point x="346" y="540"/>
      <point x="283" y="540" type="curve" smooth="yes"/>
      <point x="138" y="540"/>
      <point x="60" y="430"/>
      <point x="41" y="275" type="curve" smooth="yes"/>
      <point x="39" y="259" type="line" smooth="yes"/>
      <point x="30" y="186"/>
      <point x="38" y="121"/>
      <point x="66" y="72" type="curve"/>
      <point x="4" y="0" type="line"/>
      <point x="50" y="0" type="line"/>
      <point x="88" y="44" type="line"/>
      <point x="119" y="10"/>
      <point x="166" y="-10"/>
    </contour>
    <contour>
      <point x="81" y="262" type="curve" smooth="yes"/>
      <point x="83" y="278" type="line" smooth="yes"/>
      <point x="100" y="416"/>
      <point x="170" y="502"/>
      <point x="283" y="502" type="curve" smooth="yes"/>
      <point x="334" y="502"/>
      <point x="371" y="485"/>
      <point x="396" y="454" type="curve"/>
      <point x="96" y="107" type="line"/>
      <point x="78" y="146"/>
      <point x="73" y="199"/>
    </contour>
    <contour>
      <point x="229" y="28" type="curve" smooth="yes"/>
      <point x="178" y="28"/>
      <point x="140" y="45"/>
      <point x="115" y="75" type="curve"/>
      <point x="416" y="423" type="line"/>
      <point x="434" y="383"/>
      <point x="439" y="330"/>
      <point x="431" y="268" type="curve" smooth="yes"/>
      <point x="429" y="252" type="line" smooth="yes"/>
      <point x="412" y="114"/>
      <point x="342" y="28"/>
    </contour>
  </outline>
</glyph>
<glyph name="udieresis" format="1">
  <advance width="510"/>
  <unicode hex="00FC"/>
  <outline>
    <contour>
      <point x="254" y="735" type="line"/>
      <point x="194" y="735" type="line"/>
      <point x="186" y="675" type="line"/>
      <point x="246" y="675" type="line"/>
    </contour>
    <contour>
      <point x="404" y="735" type="line"/>
      <point x="344" y="735" type="line"/>
      <point x="336" y="675" type="line"/>
      <point x="396" y="675" type="line"/>
    </contour>
    <contour>
      <point x="85" y="530" type="line"/>
      <point x="36" y="155" type="line" smooth="yes"/>
      <point x="23" y="53"/>
      <point x="78" y="-10"/>
      <point x="191" y="-10" type="curve" smooth="yes"/>
      <point x="267" y="-10"/>
      <point x="331" y="27"/>
      <point x="367" y="78" type="curve"/>
      <point x="366" y="0" type="line"/>
      <point x="396" y="0" type="line"/>
      <point x="410" y="150" type="line"/>
      <point x="460" y="530" type="line"/>
      <point x="420" y="530" type="line"/>
      <point x="367" y="120" type="line"/>
      <point x="339" y="81"/>
      <point x="284" y="28"/>
      <point x="196" y="28" type="curve" smooth="yes"/>
      <point x="114" y="28"/>
      <point x="65" y="65"/>
      <point x="77" y="160" type="curve" smooth="yes"/>
      <point x="125" y="530" type="line"/>
    </contour>
  </outline>
</glyph>
<glyph name="thorn" format="1">
  <advance width="525"/>
  <unicode hex="00FE"/>
  <outline>
    <contour>
      <point x="126" y="800" type="line"/>
      <point x="-6" y="-200" type="line"/>
      <point x="34" y="-200" type="line"/>
      <point x="70" y="71" type="line"/>
      <point x="87" y="40"/>
      <point x="136" y="-10"/>
      <point x="218" y="-10" type="curve" smooth="yes"/>
      <point x="363" y="-10"/>
      <point x="436" y="100"/>
      <point x="455" y="255" type="curve" smooth="yes"/>
      <point x="457" y="271" type="line" smooth="yes"/>
      <point x="476" y="420"/>
      <point x="425" y="540"/>
      <point x="274" y="540" type="curve" smooth="yes"/>
      <point x="208" y="540"/>
      <point x="153" y="509"/>
      <point x="123" y="470" type="curve"/>
      <point x="166" y="800" type="line"/>
    </contour>
    <contour>
      <point x="413" y="252" type="line" smooth="yes"/>
      <point x="396" y="114"/>
      <point x="331" y="28"/>
      <point x="218" y="28" type="curve" smooth="yes"/>
      <point x="140" y="28"/>
      <point x="96" y="82"/>
      <point x="77" y="126" type="curve"/>
      <point x="115" y="416" type="line"/>
      <point x="150" y="463"/>
      <point x="199" y="502"/>
      <point x="274" y="502" type="curve" smooth="yes"/>
      <point x="387" y="502"/>
      <point x="433" y="411"/>
      <point x="415" y="268" type="curve" smooth="yes"/>
    </contour>
  </outline>
</glyph>
<glyph name="ydieresis" format="1">
  <advance width="462"/>
  <unicode hex="00FF"/>
  <outline>
    <contour>
      <point x="392" y="735" type="line"/>
      <point x="332" y="735" type="line"/>
      <point x="324" y="675" type="line"/>
      <point x="384" y="675" type="line"/>
    </contour>
    <contour>
      <point x="242" y="735" type="line"/>
      <point x="182" y="735" type="line"/>
      <point x="174" y="675" type="line"/>
      <point x="234" y="675" type="line"/>
    </contour>
    <contour>
      <point x="198" y="65" type="line"/>
      <point x="90" y="530" type="line"/>
      <point x="49" y="530" type="line"/>
      <point x="173" y="20" type="line"/>
      <point x="62" y="-200" type="line"/>
      <point x="106" y="-200" type="line"/>
      <point x="213" y="18" type="line"/>
      <point x="471" y="530" type="line"/>
      <point x="428" y="530" type="line"/>
    </contour>
  </outline>
</glyph>
<glyph name="amacron" format="1">
  <advance width="500"/>
  <unicode hex="0101"/>
  <outline>
    <contour>
      <point x="185" y="680" type="line"/>
      <point x="395" y="680" type="line"/>
      <point x="400" y="720" type="line"/>
      <point x="190" y="720" type="line"/>
    </contour>
    <contour>
      <point x="356" y="0" type="line"/>
      <point x="386" y="0" type="line"/>
      <point x="400" y="150" type="line"/>
      <point x="426" y="345" type="line" smooth="yes"/>
      <point x="442" y="462"/>
      <point x="410" y="540"/>
      <point x="263" y="540" type="curve" smooth="yes"/>
      <point x="122" y="540"/>
      <point x="80" y="445"/>
      <point x="69" y="369" type="curve" smooth="yes"/>
      <point x="67" y="355" type="line"/>
      <point x="107" y="355" type="line"/>
      <point x="117" y="433"/>
      <point x="148" y="502"/>
      <point x="263" y="502" type="curve" smooth="yes"/>
      <point x="373" y="502"/>
      <point x="400" y="455"/>
      <point x="387" y="350" type="curve" smooth="yes"/>
      <point x="384" y="326" type="line"/>
      <point x="208" y="298" type="line" smooth="yes"/>
      <point x="124" y="285"/>
      <point x="34" y="262"/>
      <point x="20" y="147" type="curve" smooth="yes"/>
      <point x="18" y="131" type="line" smooth="yes"/>
      <point x="7" y="46"/>
      <point x="71" y="-10"/>
      <point x="160" y="-10" type="curve" smooth="yes"/>
      <point x="254" y="-10"/>
      <point x="317" y="34"/>
      <point x="357" y="80" type="curve"/>
    </contour>
    <contour>
      <point x="160" y="28" type="curve" smooth="yes"/>
      <point x="87" y="28"/>
      <point x="53" y="81"/>
      <point x="60" y="134" type="curve" smooth="yes"/>
      <point x="62" y="150" type="line" smooth="yes"/>
      <point x="71" y="219"/>
      <point x="121" y="248"/>
      <point x="203" y="261" type="curve" smooth="yes"/>
      <point x="379" y="289" type="line"/>
      <point x="358" y="129" type="line"/>
      <point x="335" y="95"/>
      <point x="278" y="28"/>
    </contour>
  </outline>
</glyph>
<glyph name="Abreve" format="1">
  <advance width="600"/>
  <unicode hex="0102"/>
  <outline>
    <contour>
      <point x="362" y="830" type="curve" smooth="yes"/>
      <point x="446" y="830"/>
      <point x="498" y="880"/>
      <point x="508" y="950" type="curve"/>
      <point x="472" y="950" type="line"/>
      <point x="465" y="900"/>
      <point x="429" y="863"/>
      <point x="364" y="863" type="curve" smooth="yes"/>
      <point x="299" y="863"/>
      <point x="273" y="900"/>
      <point x="280" y="950" type="curve"/>
      <point x="244" y="950" type="line"/>
      <point x="234" y="880"/>
      <point x="278" y="830"/>
    </contour>
    <contour>
      <point x="325" y="790" type="line"/>
      <point x="-15" y="0" type="line"/>
      <point x="31" y="0" type="line"/>
      <point x="120" y="211" type="line"/>
      <point x="439" y="211" type="line"/>
      <point x="475" y="0" type="line"/>
      <point x="517" y="0" type="line"/>
      <point x="385" y="790" type="line"/>
    </contour>
    <contour>
      <point x="351" y="750" type="line"/>
      <point x="433" y="249" type="line"/>
      <point x="136" y="249" type="line"/>
    </contour>
  </outline>
</glyph>
<glyph name="abreve" format="1">
  <advance width="500"/>
  <unicode hex="0103"/>
  <outline>
    <contour>
      <point x="283" y="610" type="curve" smooth="yes"/>
      <point x="388" y="610"/>
      <point x="442" y="680"/>
      <point x="455" y="780" type="curve"/>
      <point x="419" y="780" type="line"/>
      <point x="409" y="702"/>
      <point x="370" y="643"/>
      <point x="285" y="643" type="curve" smooth="yes"/>
      <point x="200" y="643"/>
      <point x="177" y="702"/>
      <point x="187" y="780" type="curve"/>
      <point x="151" y="780" type="line"/>
      <point x="138" y="680"/>
      <point x="178" y="610"/>
    </contour>
    <contour>
      <point x="356" y="0" type="line"/>
      <point x="386" y="0" type="line"/>
      <point x="400" y="150" type="line"/>
      <point x="426" y="345" type="line" smooth="yes"/>
      <point x="442" y="462"/>
      <point x="410" y="540"/>
      <point x="263" y="540" type="curve" smooth="yes"/>
      <point x="122" y="540"/>
      <point x="80" y="445"/>
      <point x="69" y="369" type="curve" smooth="yes"/>
      <point x="67" y="355" type="line"/>
      <point x="107" y="355" type="line"/>
      <point x="117" y="433"/>
      <point x="148" y="502"/>
      <point x="263" y="502" type="curve" smooth="yes"/>
      <point x="373" y="502"/>
      <point x="400" y="455"/>
      <point x="387" y="350" type="curve" smooth="yes"/>
      <point x="384" y="326" type="line"/>
      <point x="208" y="298" type="line" smooth="yes"/>
      <point x="124" y="285"/>
      <point x="34" y="262"/>
      <point x="20" y="147" type="curve" smooth="yes"/>
      <point x="18" y="131" type="line" smooth="yes"/>
      <point x="7" y="46"/>
      <point x="71" y="-10"/>
      <point x="160" y="-10" type="curve" smooth="yes"/>
      <point x="254" y="-10"/>
      <point x="317" y="34"/>
      <point x="357" y="80" type="curve"/>
    </contour>
    <contour>
      <point x="160" y="28" type="curve" smooth="yes"/>
      <point x="87" y="28"/>
      <point x="53" y="81"/>
      <point x="60" y="134" type="curve" smooth="yes"/>
      <point x="62" y="150" type="line" smooth="yes"/>
      <point x="71" y="219"/>
      <point x="121" y="248"/>
      <point x="203" y="261" type="curve" smooth="yes"/>
      <point x="379" y="289" type="line"/>
      <point x="358" y="129" type="line"/>
      <point x="335" y="95"/>
      <point x="278" y="28"/>
    </contour>
  </outline>
</glyph>
<glyph name="Aogonek" format="1">
  <advance width="600"/>
  <unicode hex="0104"/>
  <outline>
    <contour>
      <point x="325" y="790" type="line"/>
      <point x="-15" y="0" type="line"/>
      <point x="31" y="0" type="line"/>
      <point x="120" y="211" type="line"/>
      <point x="439" y="211" type="line"/>
      <point x="473" y="11" type="line"/>
      <point x="420" y="-17"/>
      <point x="373" y="-62"/>
      <point x="373" y="-131" type="curve" smooth="yes"/>
      <point x="373" y="-183"/>
      <point x="409" y="-210"/>
      <point x="466" y="-210" type="curve" smooth="yes"/>
      <point x="490" y="-210"/>
      <point x="522" y="-204"/>
      <point x="544" y="-191" type="curve"/>
      <point x="536" y="-163" type="line"/>
      <point x="518" y="-172"/>
      <point x="494" y="-177"/>
      <point x="473" y="-177" type="curve" smooth="yes"/>
      <point x="432" y="-177"/>
      <point x="407" y="-160"/>
      <point x="407" y="-127" type="curve" smooth="yes"/>
      <point x="407" y="-63"/>
      <point x="468" y="-21"/>
      <point x="517" y="0" type="curve"/>
      <point x="385" y="790" type="line"/>
    </contour>
    <contour>
      <point x="351" y="750" type="line"/>
      <point x="433" y="249" type="line"/>
      <point x="136" y="249" type="line"/>
    </contour>
  </outline>
</glyph>
<glyph name="aogonek" format="1">
  <advance width="500"/>
  <unicode hex="0105"/>
  <outline>
    <contour>
      <point x="386" y="0" type="curve"/>
      <point x="400" y="150" type="line"/>
      <point x="426" y="345" type="line" smooth="yes"/>
      <point x="442" y="462"/>
      <point x="410" y="540"/>
      <point x="263" y="540" type="curve" smooth="yes"/>
      <point x="122" y="540"/>
      <point x="80" y="445"/>
      <point x="69" y="369" type="curve" smooth="yes"/>
      <point x="67" y="355" type="line"/>
      <point x="107" y="355" type="line"/>
      <point x="117" y="433"/>
      <point x="148" y="502"/>
      <point x="263" y="502" type="curve" smooth="yes"/>
      <point x="373" y="502"/>
      <point x="400" y="455"/>
      <point x="387" y="350" type="curve" smooth="yes"/>
      <point x="384" y="326" type="line"/>
      <point x="208" y="298" type="line" smooth="yes"/>
      <point x="124" y="285"/>
      <point x="34" y="262"/>
      <point x="20" y="147" type="curve" smooth="yes"/>
      <point x="18" y="131" type="line" smooth="yes"/>
      <point x="7" y="46"/>
      <point x="71" y="-10"/>
      <point x="160" y="-10" type="curve" smooth="yes"/>
      <point x="254" y="-10"/>
      <point x="317" y="34"/>
      <point x="357" y="80" type="curve"/>
      <point x="356" y="18" type="line"/>
      <point x="298" y="-9"/>
      <point x="242" y="-55"/>
      <point x="242" y="-131" type="curve" smooth="yes"/>
      <point x="242" y="-183"/>
      <point x="278" y="-210"/>
      <point x="335" y="-210" type="curve" smooth="yes"/>
      <point x="359" y="-210"/>
      <point x="391" y="-204"/>
      <point x="413" y="-191" type="curve"/>
      <point x="405" y="-163" type="line"/>
      <point x="387" y="-172"/>
      <point x="363" y="-177"/>
      <point x="342" y="-177" type="curve" smooth="yes"/>
      <point x="301" y="-177"/>
      <point x="276" y="-160"/>
      <point x="276" y="-127" type="curve" smooth="yes"/>
      <point x="276" y="-63"/>
      <point x="337" y="-21"/>
    </contour>
    <contour>
      <point x="160" y="28" type="curve" smooth="yes"/>
      <point x="87" y="28"/>
      <point x="53" y="81"/>
      <point x="60" y="134" type="curve" smooth="yes"/>
      <point x="62" y="150" type="line" smooth="yes"/>
      <point x="71" y="219"/>
      <point x="121" y="248"/>
      <point x="203" y="261" type="curve" smooth="yes"/>
      <point x="379" y="289" type="line"/>
      <point x="358" y="129" type="line"/>
      <point x="335" y="95"/>
      <point x="278" y="28"/>
    </contour>
  </outline>
</glyph>
<glyph name="Emacron" format="1">
  <advance width="540"/>
  <unicode hex="0112"/>
  <outline>
    <contour>
      <point x="133" y="780" type="line"/>
      <point x="31" y="0" type="line"/>
      <point x="451" y="0" type="line"/>
      <point x="456" y="38" type="line"/>
      <point x="76" y="38" type="line"/>
      <point x="120" y="379" type="line"/>
      <point x="450" y="379" type="line"/>
      <point x="455" y="417" type="line"/>
      <point x="125" y="417" type="line"/>
      <point x="168" y="742" type="line"/>
      <point x="548" y="742" type="line"/>
      <point x="553" y="780" type="line"/>
    </contour>
    <contour>
      <point x="266" y="875" type="line"/>
      <point x="466" y="875" type="line"/>
      <point x="471" y="915" type="line"/>
      <point x="271" y="915" type="line"/>
    </contour>
  </outline>
</glyph>
<glyph name="Ebreve" format="1">
  <advance width="540"/>
  <unicode hex="0114"/>
  <outline>
    <contour>
      <point x="133" y="780" type="line"/>
      <point x="31" y="0" type="line"/>
      <point x="451" y="0" type="line"/>
      <point x="456" y="38" type="line"/>
      <point x="76" y="38" type="line"/>
      <point x="120" y="379" type="line"/>
      <point x="450" y="379" type="line"/>
      <point x="455" y="417" type="line"/>
      <point x="125" y="417" type="line"/>
      <point x="168" y="742" type="line"/>
      <point x="548" y="742" type="line"/>
      <point x="553" y="780" type="line"/>
    </contour>
    <contour>
      <point x="362" y="830" type="curve" smooth="yes"/>
      <point x="446" y="830"/>
      <point x="498" y="880"/>
      <point x="508" y="950" type="curve"/>
      <point x="472" y="950" type="line"/>
      <point x="465" y="900"/>
      <point x="429" y="863"/>
      <point x="364" y="863" type="curve" smooth="yes"/>
      <point x="299" y="863"/>
      <point x="273" y="900"/>
      <point x="280" y="950" type="curve"/>
      <point x="244" y="950" type="line"/>
      <point x="234" y="880"/>
      <point x="278" y="830"/>
    </contour>
  </outline>
</glyph>
<glyph name="ebreve" format="1">
  <advance width="540"/>
  <unicode hex="0115"/>
  <outline>
    <contour>
      <point x="303" y="610" type="curve" smooth="yes"/>
      <point x="408" y="610"/>
      <point x="462" y="680"/>
      <point x="475" y="780" type="curve"/>
      <point x="439" y="780" type="line"/>
      <point x="429" y="702"/>
      <point x="390" y="643"/>
      <point x="305" y="643" type="curve" smooth="yes"/>
      <point x="220" y="643"/>
      <point x="197" y="702"/>
      <point x="207" y="780" type="curve"/>
      <point x="171" y="780" type="line"/>
      <point x="158" y="680"/>
      <point x="198" y="610"/>
    </contour>
    <contour>
      <point x="468" y="246" type="line"/>
      <point x="472" y="278" type="line" smooth="yes"/>
      <point x="490" y="420"/>
      <point x="445" y="540"/>
      <point x="288" y="540" type="curve" smooth="yes"/>
      <point x="143" y="540"/>
      <point x="60" y="430"/>
      <point x="41" y="275" type="curve" smooth="yes"/>
      <point x="39" y="259" type="line" smooth="yes"/>
      <point x="21" y="113"/>
      <point x="69" y="-10"/>
      <point x="244" y="-10" type="curve" smooth="yes"/>
      <point x="380" y="-10"/>
      <point x="445" y="80"/>
      <point x="457" y="163" type="curve" smooth="yes"/>
      <point x="458" y="170" type="line"/>
      <point x="418" y="170" type="line"/>
      <point x="409" y="105"/>
      <point x="366" y="28"/>
      <point x="244" y="28" type="curve" smooth="yes"/>
      <point x="109" y="28"/>
      <point x="65" y="116"/>
      <point x="80" y="246" type="curve"/>
    </contour>
    <contour>
      <point x="288" y="502" type="curve" smooth="yes"/>
      <point x="404" y="502"/>
      <point x="452" y="419"/>
      <point x="432" y="284" type="curve"/>
      <point x="84" y="284" type="line"/>
      <point x="99" y="410"/>
      <point x="175" y="502"/>
    </contour>
  </outline>
</glyph>
<glyph name="Edotaccent" format="1">
  <advance width="540"/>
  <unicode hex="0116"/>
  <outline>
    <contour>
      <point x="133" y="780" type="line"/>
      <point x="31" y="0" type="line"/>
      <point x="451" y="0" type="line"/>
      <point x="456" y="38" type="line"/>
      <point x="76" y="38" type="line"/>
      <point x="120" y="379" type="line"/>
      <point x="450" y="379" type="line"/>
      <point x="455" y="417" type="line"/>
      <point x="125" y="417" type="line"/>
      <point x="168" y="742" type="line"/>
      <point x="548" y="742" type="line"/>
      <point x="553" y="780" type="line"/>
    </contour>
    <contour>
      <point x="402" y="925" type="line"/>
      <point x="342" y="925" type="line"/>
      <point x="334" y="865" type="line"/>
      <point x="394" y="865" type="line"/>
    </contour>
  </outline>
</glyph>
<glyph name="Eogonek" format="1">
  <advance width="540"/>
  <unicode hex="0118"/>
  <outline>
    <contour>
      <point x="133" y="780" type="line"/>
      <point x="31" y="0" type="line"/>
      <point x="388" y="0" type="line"/>
      <point x="344" y="-28"/>
      <point x="307" y="-70"/>
      <point x="307" y="-131" type="curve" smooth="yes"/>
      <point x="307" y="-183"/>
      <point x="343" y="-210"/>
      <point x="400" y="-210" type="curve" smooth="yes"/>
      <point x="424" y="-210"/>
      <point x="456" y="-204"/>
      <point x="478" y="-191" type="curve"/>
      <point x="470" y="-163" type="line"/>
      <point x="452" y="-172"/>
      <point x="428" y="-177"/>
      <point x="407" y="-177" type="curve" smooth="yes"/>
      <point x="366" y="-177"/>
      <point x="341" y="-160"/>
      <point x="341" y="-127" type="curve" smooth="yes"/>
      <point x="341" y="-63"/>
      <point x="402" y="-21"/>
      <point x="451" y="0" type="curve"/>
      <point x="456" y="38" type="line"/>
      <point x="76" y="38" type="line"/>
      <point x="120" y="379" type="line"/>
      <point x="450" y="379" type="line"/>
      <point x="455" y="417" type="line"/>
      <point x="125" y="417" type="line"/>
      <point x="168" y="742" type="line"/>
      <point x="548" y="742" type="line"/>
      <point x="553" y="780" type="line"/>
    </contour>
  </outline>
</glyph>
<glyph name="eogonek" format="1">
  <advance width="540"/>
  <unicode hex="0119"/>
  <outline>
    <contour>
      <point x="468" y="246" type="line"/>
      <point x="472" y="278" type="line" smooth="yes"/>
      <point x="490" y="420"/>
      <point x="445" y="540"/>
      <point x="288" y="540" type="curve" smooth="yes"/>
      <point x="143" y="540"/>
      <point x="60" y="430"/>
      <point x="41" y="275" type="curve" smooth="yes"/>
      <point x="39" y="259" type="line" smooth="yes"/>
      <point x="21" y="114"/>
      <point x="68" y="-8"/>
      <point x="240" y="-10" type="curve"/>
      <point x="202" y="-38"/>
      <point x="173" y="-77"/>
      <point x="173" y="-131" type="curve" smooth="yes"/>
      <point x="173" y="-183"/>
      <point x="209" y="-210"/>
      <point x="266" y="-210" type="curve" smooth="yes"/>
      <point x="290" y="-210"/>
      <point x="322" y="-204"/>
      <point x="344" y="-191" type="curve"/>
      <point x="336" y="-163" type="line"/>
      <point x="318" y="-172"/>
      <point x="294" y="-177"/>
      <point x="273" y="-177" type="curve" smooth="yes"/>
      <point x="232" y="-177"/>
      <point x="207" y="-160"/>
      <point x="207" y="-127" type="curve" smooth="yes"/>
      <point x="207" y="-63"/>
      <point x="268" y="-21"/>
      <point x="317" y="0" type="curve"/>
      <point x="403" y="25"/>
      <point x="447" y="96"/>
      <point x="457" y="163" type="curve" smooth="yes"/>
      <point x="458" y="170" type="line"/>
      <point x="418" y="170" type="line"/>
      <point x="409" y="105"/>
      <point x="366" y="28"/>
      <point x="244" y="28" type="curve" smooth="yes"/>
      <point x="109" y="28"/>
      <point x="65" y="116"/>
      <point x="80" y="246" type="curve"/>
    </contour>
    <contour>
      <point x="288" y="502" type="curve" smooth="yes"/>
      <point x="404" y="502"/>
      <point x="452" y="419"/>
      <point x="432" y="284" type="curve"/>
      <point x="84" y="284" type="line"/>
      <point x="99" y="410"/>
      <point x="175" y="502"/>
    </contour>
  </outline>
</glyph>
<glyph name="Ecaron" format="1">
  <advance width="540"/>
  <unicode hex="011A"/>
  <outline>
    <contour>
      <point x="133" y="780" type="line"/>
      <point x="31" y="0" type="line"/>
      <point x="451" y="0" type="line"/>
      <point x="456" y="38" type="line"/>
      <point x="76" y="38" type="line"/>
      <point x="120" y="379" type="line"/>
      <point x="450" y="379" type="line"/>
      <point x="455" y="417" type="line"/>
      <point x="125" y="417" type="line"/>
      <point x="168" y="742" type="line"/>
      <point x="548" y="742" type="line"/>
      <point x="553" y="780" type="line"/>
    </contour>
    <contour>
      <point x="261" y="950" type="line"/>
      <point x="346" y="840" type="line"/>
      <point x="376" y="840" type="line"/>
      <point x="491" y="950" type="line"/>
      <point x="446" y="950" type="line"/>
      <point x="365" y="873" type="line"/>
      <point x="306" y="950" type="line"/>
    </contour>
  </outline>
</glyph>
<glyph name="Gbreve" format="1">
  <advance width="638"/>
  <unicode hex="011E"/>
  <outline>
    <contour>
      <point x="386" y="830" type="curve" smooth="yes"/>
      <point x="470" y="830"/>
      <point x="522" y="880"/>
      <point x="532" y="950" type="curve"/>
      <point x="496" y="950" type="line"/>
      <point x="489" y="900"/>
      <point x="453" y="863"/>
      <point x="388" y="863" type="curve" smooth="yes"/>
      <point x="323" y="863"/>
      <point x="297" y="900"/>
      <point x="304" y="950" type="curve"/>
      <point x="268" y="950" type="line"/>
      <point x="258" y="880"/>
      <point x="302" y="830"/>
    </contour>
    <contour>
      <point x="285" y="-10" type="curve" smooth="yes"/>
      <point x="410" y="-10"/>
      <point x="481" y="37"/>
      <point x="523" y="79" type="curve"/>
      <point x="561" y="371" type="line"/>
      <point x="376" y="371" type="line"/>
      <point x="371" y="333" type="line"/>
      <point x="516" y="333" type="line"/>
      <point x="486" y="99" type="line"/>
      <point x="452" y="64"/>
      <point x="382" y="28"/>
      <point x="288" y="28" type="curve" smooth="yes"/>
      <point x="282" y="28" type="line" smooth="yes"/>
      <point x="140" y="28"/>
      <point x="72" y="125"/>
      <point x="104" y="378" type="curve" smooth="yes"/>
      <point x="107" y="402" type="line" smooth="yes"/>
      <point x="138" y="649"/>
      <point x="226" y="752"/>
      <point x="368" y="752" type="curve" smooth="yes"/>
      <point x="374" y="752" type="line" smooth="yes"/>
      <point x="508" y="752"/>
      <point x="559" y="680"/>
      <point x="535" y="500" type="curve"/>
      <point x="577" y="500" type="line"/>
      <point x="580" y="519" type="line" smooth="yes"/>
      <point x="607" y="689"/>
      <point x="536" y="790"/>
      <point x="371" y="790" type="curve" smooth="yes"/>
      <point x="201" y="790"/>
      <point x="99" y="674"/>
      <point x="65" y="402" type="curve" smooth="yes"/>
      <point x="62" y="378" type="line" smooth="yes"/>
      <point x="27" y="99"/>
      <point x="113" y="-10"/>
    </contour>
  </outline>
</glyph>
<glyph name="Hcircumflex" format="1">
  <advance width="630"/>
  <unicode hex="0124"/>
  <outline>
    <contour>
      <point x="563" y="780" type="line"/>
      <point x="515" y="417" type="line"/>
      <point x="125" y="417" type="line"/>
      <point x="173" y="780" type="line"/>
      <point x="133" y="780" type="line"/>
      <point x="31" y="0" type="line"/>
      <point x="71" y="0" type="line"/>
      <point x="120" y="379" type="line"/>
      <point x="510" y="379" type="line"/>
      <point x="461" y="0" type="line"/>
      <point x="501" y="0" type="line"/>
      <point x="603" y="780" type="line"/>
    </contour>
    <contour>
      <point x="308" y="840" type="line"/>
      <point x="388" y="917" type="line"/>
      <point x="448" y="840" type="line"/>
      <point x="491" y="840" type="line"/>
      <point x="406" y="950" type="line"/>
      <point x="376" y="950" type="line"/>
      <point x="261" y="840" type="line"/>
    </contour>
  </outline>
</glyph>
<glyph name="Itilde" format="1">
  <advance width="210"/>
  <unicode hex="0128"/>
  <outline>
    <contour>
      <point x="178" y="780" type="line"/>
      <point x="138" y="780" type="line"/>
      <point x="36" y="0" type="line"/>
      <point x="76" y="0" type="line"/>
    </contour>
    <contour>
      <point x="282" y="932" type="line"/>
      <point x="278" y="897"/>
      <point x="261" y="881"/>
      <point x="236" y="881" type="curve" smooth="yes"/>
      <point x="196" y="881"/>
      <point x="170" y="942"/>
      <point x="112" y="942" type="curve" smooth="yes"/>
      <point x="69" y="942"/>
      <point x="36" y="915"/>
      <point x="28" y="858" type="curve"/>
      <point x="64" y="858" type="line"/>
      <point x="69" y="893"/>
      <point x="85" y="909"/>
      <point x="110" y="909" type="curve" smooth="yes"/>
      <point x="150" y="909"/>
      <point x="177" y="848"/>
      <point x="235" y="848" type="curve" smooth="yes"/>
      <point x="278" y="848"/>
      <point x="311" y="875"/>
      <point x="318" y="932" type="curve"/>
    </contour>
  </outline>
</glyph>
<glyph name="itilde" format="1">
  <advance width="200"/>
  <unicode hex="0129"/>
  <outline>
    <contour>
      <point x="31" y="0" type="line"/>
      <point x="71" y="0" type="line"/>
      <point x="140" y="530" type="line"/>
      <point x="100" y="530" type="line"/>
    </contour>
    <contour>
      <point x="253" y="737" type="line"/>
      <point x="248" y="700"/>
      <point x="230" y="687"/>
      <point x="209" y="687" type="curve" smooth="yes"/>
      <point x="167" y="687"/>
      <point x="137" y="747"/>
      <point x="79" y="747" type="curve" smooth="yes"/>
      <point x="36" y="747"/>
      <point x="5" y="720"/>
      <point x="-2" y="663" type="curve"/>
      <point x="33" y="663" type="line"/>
      <point x="38" y="700"/>
      <point x="55" y="713"/>
      <point x="76" y="713" type="curve" smooth="yes"/>
      <point x="118" y="713"/>
      <point x="148" y="653"/>
      <point x="206" y="653" type="curve" smooth="yes"/>
      <point x="249" y="653"/>
      <point x="280" y="680"/>
      <point x="288" y="737" type="curve"/>
    </contour>
  </outline>
</glyph>
<glyph name="Imacron" format="1">
  <advance width="210"/>
  <unicode hex="012A"/>
  <outline>
    <contour>
      <point x="178" y="780" type="line"/>
      <point x="138" y="780" type="line"/>
      <point x="36" y="0" type="line"/>
      <point x="76" y="0" type="line"/>
    </contour>
    <contour>
      <point x="71" y="875" type="line"/>
      <point x="271" y="875" type="line"/>
      <point x="276" y="915" type="line"/>
      <point x="76" y="915" type="line"/>
    </contour>
  </outline>
</glyph>
<glyph name="imacron" format="1">
  <advance width="200"/>
  <unicode hex="012B"/>
  <outline>
    <contour>
      <point x="31" y="0" type="line"/>
      <point x="71" y="0" type="line"/>
      <point x="140" y="530" type="line"/>
      <point x="100" y="530" type="line"/>
    </contour>
    <contour>
      <point x="35" y="680" type="line"/>
      <point x="245" y="680" type="line"/>
      <point x="250" y="720" type="line"/>
      <point x="40" y="720" type="line"/>
    </contour>
  </outline>
</glyph>
<glyph name="Ibreve" format="1">
  <advance width="210"/>
  <unicode hex="012C"/>
  <outline>
    <contour>
      <point x="178" y="780" type="line"/>
      <point x="138" y="780" type="line"/>
      <point x="36" y="0" type="line"/>
      <point x="76" y="0" type="line"/>
    </contour>
    <contour>
      <point x="167" y="830" type="curve" smooth="yes"/>
      <point x="251" y="830"/>
      <point x="303" y="880"/>
      <point x="313" y="950" type="curve"/>
      <point x="277" y="950" type="line"/>
      <point x="270" y="900"/>
      <point x="234" y="863"/>
      <point x="169" y="863" type="curve" smooth="yes"/>
      <point x="104" y="863"/>
      <point x="78" y="900"/>
      <point x="85" y="950" type="curve"/>
      <point x="49" y="950" type="line"/>
      <point x="39" y="880"/>
      <point x="83" y="830"/>
    </contour>
  </outline>
</glyph>
<glyph name="ibreve" format="1">
  <advance width="200"/>
  <unicode hex="012D"/>
  <outline>
    <contour>
      <point x="31" y="0" type="line"/>
      <point x="71" y="0" type="line"/>
      <point x="140" y="530" type="line"/>
      <point x="100" y="530" type="line"/>
    </contour>
    <contour>
      <point x="133" y="610" type="curve" smooth="yes"/>
      <point x="238" y="610"/>
      <point x="292" y="680"/>
      <point x="305" y="780" type="curve"/>
      <point x="269" y="780" type="line"/>
      <point x="259" y="702"/>
      <point x="220" y="643"/>
      <point x="135" y="643" type="curve" smooth="yes"/>
      <point x="50" y="643"/>
      <point x="27" y="702"/>
      <point x="37" y="780" type="curve"/>
      <point x="1" y="780" type="line"/>
      <point x="-12" y="680"/>
      <point x="28" y="610"/>
    </contour>
  </outline>
</glyph>
<glyph name="Iogonek" format="1">
  <advance width="210"/>
  <unicode hex="012E"/>
  <outline>
    <contour>
      <point x="178" y="780" type="line"/>
      <point x="138" y="780" type="line"/>
      <point x="38" y="14" type="line"/>
      <point x="-17" y="-14"/>
      <point x="-68" y="-59"/>
      <point x="-68" y="-131" type="curve" smooth="yes"/>
      <point x="-68" y="-183"/>
      <point x="-32" y="-210"/>
      <point x="25" y="-210" type="curve" smooth="yes"/>
      <point x="49" y="-210"/>
      <point x="81" y="-204"/>
      <point x="103" y="-191" type="curve"/>
      <point x="95" y="-163" type="line"/>
      <point x="77" y="-172"/>
      <point x="53" y="-177"/>
      <point x="32" y="-177" type="curve" smooth="yes"/>
      <point x="-9" y="-177"/>
      <point x="-34" y="-160"/>
      <point x="-34" y="-127" type="curve" smooth="yes"/>
      <point x="-34" y="-63"/>
      <point x="27" y="-21"/>
      <point x="76" y="0" type="curve"/>
    </contour>
  </outline>
</glyph>
<glyph name="iogonek" format="1">
  <advance width="200"/>
  <unicode hex="012F"/>
  <outline>
    <contour>
      <point x="177" y="735" type="line"/>
      <point x="117" y="735" type="line"/>
      <point x="109" y="675" type="line"/>
      <point x="169" y="675" type="line"/>
    </contour>
    <contour>
      <point x="71" y="0" type="curve"/>
      <point x="140" y="530" type="line"/>
      <point x="100" y="530" type="line"/>
      <point x="33" y="14" type="line"/>
      <point x="-22" y="-14"/>
      <point x="-73" y="-59"/>
      <point x="-73" y="-131" type="curve" smooth="yes"/>
      <point x="-73" y="-183"/>
      <point x="-37" y="-210"/>
      <point x="20" y="-210" type="curve" smooth="yes"/>
      <point x="44" y="-210"/>
      <point x="76" y="-204"/>
      <point x="98" y="-191" type="curve"/>
      <point x="90" y="-163" type="line"/>
      <point x="72" y="-172"/>
      <point x="48" y="-177"/>
      <point x="27" y="-177" type="curve" smooth="yes"/>
      <point x="-14" y="-177"/>
      <point x="-39" y="-160"/>
      <point x="-39" y="-127" type="curve" smooth="yes"/>
      <point x="-39" y="-63"/>
      <point x="22" y="-21"/>
    </contour>
  </outline>
</glyph>
<glyph name="Idotaccent" format="1">
  <advance width="210"/>
  <unicode hex="0130"/>
  <outline>
    <contour>
      <point x="178" y="780" type="line"/>
      <point x="138" y="780" type="line"/>
      <point x="36" y="0" type="line"/>
      <point x="76" y="0" type="line"/>
    </contour>
    <contour>
      <point x="207" y="925" type="line"/>
      <point x="147" y="925" type="line"/>
      <point x="139" y="865" type="line"/>
      <point x="199" y="865" type="line"/>
    </contour>
  </outline>
</glyph>
<glyph name="dotlessi" format="1">
  <advance width="200"/>
  <unicode hex="0131"/>
  <outline>
    <contour>
      <point x="31" y="0" type="line"/>
      <point x="71" y="0" type="line"/>
      <point x="140" y="530" type="line"/>
      <point x="100" y="530" type="line"/>
    </contour>
  </outline>
</glyph>
<glyph name="IJ" format="1">
  <advance width="460"/>
  <unicode hex="0132"/>
  <outline>
    <contour>
      <point x="313" y="133" type="line" smooth="yes"/>
      <point x="303" y="55"/>
      <point x="265" y="28"/>
      <point x="207" y="28" type="curve" smooth="yes"/>
      <point x="180" y="28"/>
      <point x="151" y="34"/>
      <point x="141" y="39" type="curve"/>
      <point x="136" y="2" type="line"/>
      <point x="142" y="-2"/>
      <point x="167" y="-10"/>
      <point x="207" y="-10" type="curve" smooth="yes"/>
      <point x="281" y="-10"/>
      <point x="340" y="30"/>
      <point x="353" y="128" type="curve" smooth="yes"/>
      <point x="438" y="780" type="line"/>
      <point x="398" y="780" type="line"/>
    </contour>
    <contour>
      <point x="178" y="780" type="line"/>
      <point x="138" y="780" type="line"/>
      <point x="36" y="0" type="line"/>
      <point x="76" y="0" type="line"/>
    </contour>
  </outline>
</glyph>
<glyph name="ij" format="1">
  <advance width="350"/>
  <unicode hex="0133"/>
  <outline>
    <contour>
      <point x="31" y="0" type="line"/>
      <point x="71" y="0" type="line"/>
      <point x="140" y="530" type="line"/>
      <point x="100" y="530" type="line"/>
    </contour>
    <contour>
      <point x="177" y="735" type="line"/>
      <point x="117" y="735" type="line"/>
      <point x="109" y="675" type="line"/>
      <point x="169" y="675" type="line"/>
    </contour>
    <contour>
      <point x="327" y="735" type="line"/>
      <point x="267" y="735" type="line"/>
      <point x="259" y="675" type="line"/>
      <point x="319" y="675" type="line"/>
    </contour>
    <contour>
      <point x="172" y="-67" type="line" smooth="yes"/>
      <point x="161" y="-149"/>
      <point x="120" y="-172"/>
      <point x="53" y="-172" type="curve" smooth="yes"/>
      <point x="29" y="-172"/>
      <point x="-1" y="-167"/>
      <point x="-10" y="-163" type="curve"/>
      <point x="-15" y="-199" type="line"/>
      <point x="-8" y="-202"/>
      <point x="19" y="-210"/>
      <point x="53" y="-210" type="curve" smooth="yes"/>
      <point x="139" y="-210"/>
      <point x="197" y="-173"/>
      <point x="210" y="-79" type="curve" smooth="yes"/>
      <point x="290" y="530" type="line"/>
      <point x="250" y="530" type="line"/>
    </contour>
  </outline>
</glyph>
<glyph name="Jcircumflex" format="1">
  <advance width="480"/>
  <unicode hex="0134"/>
  <outline>
    <contour>
      <point x="418" y="780" type="line"/>
      <point x="348" y="250" type="line" smooth="yes"/>
      <point x="328" y="95"/>
      <point x="276" y="28"/>
      <point x="171" y="28" type="curve" smooth="yes"/>
      <point x="66" y="28"/>
      <point x="30" y="93"/>
      <point x="52" y="250" type="curve"/>
      <point x="14" y="250" type="line"/>
      <point x="13" y="243" type="line" smooth="yes"/>
      <point x="-10" y="85"/>
      <point x="30" y="-10"/>
      <point x="170" y="-10" type="curve" smooth="yes"/>
      <point x="308" y="-10"/>
      <point x="367" y="85"/>
      <point x="387" y="240" type="curve" smooth="yes"/>
      <point x="458" y="780" type="line"/>
    </contour>
    <contour>
      <point x="378" y="840" type="line"/>
      <point x="458" y="917" type="line"/>
      <point x="518" y="840" type="line"/>
      <point x="561" y="840" type="line"/>
      <point x="476" y="950" type="line"/>
      <point x="446" y="950" type="line"/>
      <point x="331" y="840" type="line"/>
    </contour>
  </outline>
</glyph>
<glyph name="Kcommaaccent" format="1">
  <advance width="540"/>
  <unicode hex="0136"/>
  <outline>
    <contour>
      <point x="238" y="-60" type="line"/>
      <point x="178" y="-60" type="line"/>
      <point x="170" y="-120" type="line"/>
      <point x="200" y="-120" type="line"/>
      <point x="191" y="-162"/>
      <point x="164" y="-180"/>
      <point x="132" y="-180" type="curve"/>
      <point x="128" y="-210" type="line"/>
      <point x="183" y="-210"/>
      <point x="223" y="-170"/>
      <point x="231" y="-108" type="curve" smooth="yes"/>
    </contour>
    <contour>
      <point x="173" y="780" type="line"/>
      <point x="133" y="780" type="line"/>
      <point x="31" y="0" type="line"/>
      <point x="71" y="0" type="line"/>
      <point x="103" y="246" type="line"/>
      <point x="243" y="412" type="line"/>
      <point x="407" y="0" type="line"/>
      <point x="451" y="0" type="line"/>
      <point x="271" y="445" type="line"/>
      <point x="553" y="780" type="line"/>
      <point x="503" y="780" type="line"/>
      <point x="112" y="315" type="line"/>
    </contour>
  </outline>
</glyph>
<glyph name="kcommaaccent" format="1">
  <advance width="480"/>
  <unicode hex="0137"/>
  <outline>
    <contour>
      <point x="218" y="-60" type="line"/>
      <point x="158" y="-60" type="line"/>
      <point x="150" y="-120" type="line"/>
      <point x="180" y="-120" type="line"/>
      <point x="171" y="-162"/>
      <point x="144" y="-180"/>
      <point x="112" y="-180" type="curve"/>
      <point x="108" y="-210" type="line"/>
      <point x="163" y="-210"/>
      <point x="203" y="-170"/>
      <point x="211" y="-108" type="curve" smooth="yes"/>
    </contour>
    <contour>
      <point x="21" y="0" type="line"/>
      <point x="61" y="0" type="line"/>
      <point x="82" y="162" type="line"/>
      <point x="229" y="302" type="line"/>
      <point x="358" y="0" type="line"/>
      <point x="401" y="0" type="line"/>
      <point x="259" y="330" type="line"/>
      <point x="470" y="530" type="line"/>
      <point x="416" y="530" type="line"/>
      <point x="89" y="218" type="line"/>
      <point x="166" y="800" type="line"/>
      <point x="126" y="800" type="line"/>
    </contour>
  </outline>
</glyph>
<glyph name="kgreenlandic" format="1">
  <advance width="480"/>
  <unicode hex="0138"/>
  <outline>
    <contour>
      <point x="21" y="0" type="line"/>
      <point x="61" y="0" type="line"/>
      <point x="82" y="162" type="line"/>
      <point x="229" y="302" type="line"/>
      <point x="358" y="0" type="line"/>
      <point x="401" y="0" type="line"/>
      <point x="259" y="330" type="line"/>
      <point x="470" y="530" type="line"/>
      <point x="416" y="530" type="line"/>
      <point x="89" y="218" type="line"/>
      <point x="130" y="530" type="line"/>
      <point x="90" y="530" type="line"/>
    </contour>
  </outline>
</glyph>
<glyph name="Lacute" format="1">
  <advance width="480"/>
  <unicode hex="0139"/>
  <outline>
    <contour>
      <point x="416" y="0" type="line"/>
      <point x="421" y="38" type="line"/>
      <point x="76" y="38" type="line"/>
      <point x="173" y="780" type="line"/>
      <point x="133" y="780" type="line"/>
      <point x="31" y="0" type="line"/>
    </contour>
    <contour>
      <point x="217" y="950" type="line"/>
      <point x="140" y="840" type="line"/>
      <point x="182" y="840" type="line"/>
      <point x="259" y="950" type="line"/>
    </contour>
  </outline>
</glyph>
<glyph name="lacute" format="1">
  <advance width="200"/>
  <unicode hex="013A"/>
  <outline>
    <contour>
      <point x="31" y="0" type="line"/>
      <point x="71" y="0" type="line"/>
      <point x="176" y="800" type="line"/>
      <point x="136" y="800" type="line"/>
    </contour>
    <contour>
      <point x="217" y="950" type="line"/>
      <point x="140" y="840" type="line"/>
      <point x="182" y="840" type="line"/>
      <point x="259" y="950" type="line"/>
    </contour>
  </outline>
</glyph>
